G75*
%MOIN*%
%OFA0B0*%
%FSLAX25Y25*%
%IPPOS*%
%LPD*%
%AMOC8*
5,1,8,0,0,1.08239X$1,22.5*
%
%ADD10C,0.00800*%
%ADD11C,0.00600*%
%ADD12C,0.00500*%
%ADD13C,0.00700*%
D10*
X0086375Y0102869D02*
X0086375Y0107473D01*
X0087910Y0109008D01*
X0090979Y0109008D01*
X0092514Y0107473D01*
X0095583Y0109008D02*
X0098652Y0109008D01*
X0097118Y0110543D02*
X0097118Y0104404D01*
X0095583Y0102869D01*
X0092514Y0102869D02*
X0092514Y0112077D01*
X0101722Y0107473D02*
X0107860Y0107473D01*
X0103256Y0112077D01*
X0103256Y0102869D01*
X0120137Y0104404D02*
X0121672Y0105939D01*
X0124741Y0105939D01*
X0126276Y0107473D01*
X0124741Y0109008D01*
X0120137Y0109008D01*
X0120137Y0104404D02*
X0121672Y0102869D01*
X0126276Y0102869D01*
X0129345Y0102869D02*
X0129345Y0107473D01*
X0130880Y0109008D01*
X0135484Y0109008D01*
X0135484Y0102869D01*
X0138553Y0102869D02*
X0141622Y0102869D01*
X0140088Y0102869D02*
X0140088Y0109008D01*
X0141622Y0109008D01*
X0144692Y0109008D02*
X0149295Y0105939D01*
X0144692Y0102869D01*
X0149295Y0102869D02*
X0149295Y0112077D01*
X0153899Y0109008D02*
X0152365Y0107473D01*
X0152365Y0104404D01*
X0153899Y0102869D01*
X0158503Y0102869D01*
X0158503Y0099800D02*
X0158503Y0109008D01*
X0153899Y0109008D01*
X0161573Y0107473D02*
X0161573Y0104404D01*
X0163107Y0102869D01*
X0166177Y0102869D01*
X0167711Y0104404D01*
X0167711Y0107473D01*
X0166177Y0109008D01*
X0163107Y0109008D01*
X0161573Y0107473D01*
X0170780Y0107473D02*
X0176919Y0107473D01*
X0176919Y0102869D02*
X0176919Y0112077D01*
X0170780Y0112077D02*
X0170780Y0102869D01*
X0140088Y0112077D02*
X0140088Y0113612D01*
X0142394Y0072628D02*
X0145463Y0072628D01*
X0146998Y0071094D01*
X0142394Y0072628D02*
X0140859Y0071094D01*
X0140859Y0069559D01*
X0146998Y0063420D01*
X0140859Y0063420D01*
X0137790Y0064955D02*
X0131651Y0071094D01*
X0131651Y0064955D01*
X0133186Y0063420D01*
X0136255Y0063420D01*
X0137790Y0064955D01*
X0137790Y0071094D01*
X0136255Y0072628D01*
X0133186Y0072628D01*
X0131651Y0071094D01*
X0128582Y0069559D02*
X0125513Y0072628D01*
X0125513Y0063420D01*
X0128582Y0063420D02*
X0122444Y0063420D01*
X0119374Y0064955D02*
X0117840Y0063420D01*
X0114770Y0063420D01*
X0113236Y0064955D01*
X0113236Y0066490D01*
X0114770Y0068024D01*
X0119374Y0068024D01*
X0119374Y0064955D01*
X0119374Y0068024D02*
X0116305Y0071094D01*
X0113236Y0072628D01*
X0125764Y0176800D02*
X0130264Y0176800D01*
X0130264Y0179300D01*
X0131264Y0179300D01*
X0131264Y0177300D01*
X0130264Y0176800D02*
X0135764Y0176800D01*
X0135764Y0181300D01*
X0133264Y0183800D01*
X0130764Y0181300D01*
X0125764Y0181300D01*
X0125764Y0176800D01*
X0125764Y0181300D02*
X0125764Y0185800D01*
X0126264Y0185800D01*
X0126264Y0184300D01*
X0135764Y0184300D01*
X0135764Y0181300D01*
D11*
X0074921Y0086002D02*
X0073854Y0084935D01*
X0074921Y0086002D02*
X0074921Y0090273D01*
X0073854Y0089205D02*
X0075989Y0089205D01*
X0079218Y0089205D02*
X0079218Y0084935D01*
X0078151Y0084935D02*
X0080286Y0084935D01*
X0082461Y0084935D02*
X0085664Y0088137D01*
X0086731Y0087070D02*
X0082461Y0091340D01*
X0080286Y0089205D02*
X0079218Y0089205D01*
X0079218Y0091340D02*
X0079218Y0092408D01*
X0086731Y0091340D02*
X0086731Y0084935D01*
X0095345Y0089205D02*
X0096413Y0089205D01*
X0098548Y0087070D01*
X0098548Y0084935D02*
X0098548Y0089205D01*
X0100723Y0088137D02*
X0100723Y0087070D01*
X0104994Y0087070D01*
X0104994Y0088137D02*
X0104994Y0086002D01*
X0103926Y0084935D01*
X0101791Y0084935D01*
X0100723Y0088137D02*
X0101791Y0089205D01*
X0103926Y0089205D01*
X0104994Y0088137D01*
X0107169Y0089205D02*
X0110372Y0089205D01*
X0111439Y0088137D01*
X0111439Y0086002D01*
X0110372Y0084935D01*
X0107169Y0084935D01*
X0107169Y0091340D01*
X0114669Y0091340D02*
X0114669Y0084935D01*
X0115736Y0084935D02*
X0113601Y0084935D01*
X0117911Y0086002D02*
X0117911Y0088137D01*
X0118979Y0089205D01*
X0121114Y0089205D01*
X0122182Y0088137D01*
X0122182Y0086002D01*
X0121114Y0084935D01*
X0118979Y0084935D01*
X0117911Y0086002D01*
X0115736Y0091340D02*
X0114669Y0091340D01*
X0124357Y0090273D02*
X0125424Y0091340D01*
X0127560Y0091340D01*
X0128627Y0090273D01*
X0128627Y0089205D01*
X0127560Y0088137D01*
X0125424Y0088137D01*
X0124357Y0087070D01*
X0124357Y0086002D01*
X0125424Y0084935D01*
X0127560Y0084935D01*
X0128627Y0086002D01*
X0137248Y0086002D02*
X0137248Y0088137D01*
X0138315Y0089205D01*
X0140451Y0089205D01*
X0141518Y0088137D01*
X0141518Y0086002D01*
X0140451Y0084935D01*
X0138315Y0084935D01*
X0137248Y0086002D01*
X0143693Y0091340D02*
X0147964Y0091340D01*
X0145828Y0091340D02*
X0145828Y0084935D01*
X0156584Y0084935D02*
X0156584Y0088137D01*
X0157652Y0089205D01*
X0160855Y0089205D01*
X0160855Y0084935D01*
X0163023Y0089205D02*
X0164091Y0089205D01*
X0166226Y0087070D01*
X0166226Y0084935D02*
X0166226Y0089205D01*
X0168401Y0088137D02*
X0168401Y0084935D01*
X0171604Y0084935D01*
X0172671Y0086002D01*
X0171604Y0087070D01*
X0168401Y0087070D01*
X0168401Y0088137D02*
X0169469Y0089205D01*
X0171604Y0089205D01*
X0174847Y0088137D02*
X0174847Y0087070D01*
X0179117Y0087070D01*
X0179117Y0088137D02*
X0179117Y0086002D01*
X0178049Y0084935D01*
X0175914Y0084935D01*
X0174847Y0088137D02*
X0175914Y0089205D01*
X0178049Y0089205D01*
X0179117Y0088137D01*
X0181292Y0084935D02*
X0185562Y0084935D01*
X0185562Y0091340D01*
X0159651Y0166076D02*
X0158183Y0166076D01*
X0157449Y0166810D01*
X0157449Y0167544D01*
X0158183Y0168278D01*
X0159651Y0168278D01*
X0160385Y0169012D01*
X0160385Y0169746D01*
X0159651Y0170480D01*
X0158183Y0170480D01*
X0157449Y0169746D01*
X0155781Y0168278D02*
X0155781Y0166810D01*
X0155047Y0166076D01*
X0152845Y0166076D01*
X0151177Y0166076D02*
X0151177Y0170480D01*
X0150443Y0169012D02*
X0148975Y0169012D01*
X0148242Y0168278D01*
X0148242Y0166076D01*
X0146573Y0166076D02*
X0146573Y0169012D01*
X0145839Y0169012D01*
X0145106Y0168278D01*
X0144372Y0169012D01*
X0143638Y0168278D01*
X0143638Y0166076D01*
X0145106Y0166076D02*
X0145106Y0168278D01*
X0141970Y0166810D02*
X0141236Y0167544D01*
X0139034Y0167544D01*
X0139034Y0168278D02*
X0139034Y0166076D01*
X0141236Y0166076D01*
X0141970Y0166810D01*
X0141236Y0169012D02*
X0139768Y0169012D01*
X0139034Y0168278D01*
X0137366Y0166076D02*
X0135898Y0166076D01*
X0136632Y0166076D02*
X0136632Y0170480D01*
X0137366Y0170480D01*
X0134296Y0169012D02*
X0131360Y0169012D01*
X0134296Y0166076D01*
X0131360Y0166076D01*
X0129692Y0166076D02*
X0129692Y0170480D01*
X0129692Y0168278D02*
X0126757Y0168278D01*
X0126757Y0170480D02*
X0126757Y0166076D01*
X0125088Y0166810D02*
X0124354Y0167544D01*
X0122153Y0167544D01*
X0122153Y0168278D02*
X0122153Y0166076D01*
X0124354Y0166076D01*
X0125088Y0166810D01*
X0124354Y0169012D02*
X0122887Y0169012D01*
X0122153Y0168278D01*
X0120485Y0169012D02*
X0120485Y0166810D01*
X0119751Y0166076D01*
X0117549Y0166076D01*
X0117549Y0169012D01*
X0115881Y0168278D02*
X0115147Y0169012D01*
X0112945Y0169012D01*
X0113679Y0167544D02*
X0115147Y0167544D01*
X0115881Y0168278D01*
X0115881Y0166076D02*
X0113679Y0166076D01*
X0112945Y0166810D01*
X0113679Y0167544D01*
X0106673Y0166076D02*
X0103737Y0166076D01*
X0102069Y0166076D02*
X0099133Y0166076D01*
X0097465Y0166810D02*
X0096731Y0166076D01*
X0095263Y0166076D01*
X0094529Y0166810D01*
X0097465Y0166810D02*
X0097465Y0169746D01*
X0096731Y0170480D01*
X0095263Y0170480D01*
X0094529Y0169746D01*
X0102069Y0170480D02*
X0102069Y0166076D01*
X0106673Y0166076D02*
X0106673Y0170480D01*
X0150443Y0169012D02*
X0151177Y0168278D01*
X0152845Y0169012D02*
X0155047Y0169012D01*
X0155781Y0168278D01*
X0159651Y0166076D02*
X0160385Y0166810D01*
D12*
X0160430Y0153160D02*
X0158428Y0153160D01*
X0156953Y0152493D02*
X0156286Y0153160D01*
X0154952Y0153160D01*
X0154284Y0152493D01*
X0154284Y0151825D01*
X0156953Y0151825D01*
X0156953Y0151158D02*
X0156953Y0152493D01*
X0156953Y0151158D02*
X0156286Y0150491D01*
X0154952Y0150491D01*
X0156309Y0147744D02*
X0156977Y0147077D01*
X0156977Y0143741D01*
X0154881Y0143741D02*
X0154881Y0146410D01*
X0153547Y0146410D02*
X0154881Y0145075D01*
X0156309Y0145743D02*
X0157644Y0145743D01*
X0153547Y0146410D02*
X0152880Y0146410D01*
X0151429Y0145743D02*
X0151429Y0144408D01*
X0150761Y0143741D01*
X0149427Y0143741D01*
X0148760Y0144408D01*
X0148760Y0145743D01*
X0149427Y0146410D01*
X0150761Y0146410D01*
X0151429Y0145743D01*
X0147285Y0146410D02*
X0147285Y0143741D01*
X0146618Y0141662D02*
X0146618Y0140994D01*
X0146618Y0139660D02*
X0146618Y0136991D01*
X0147285Y0136991D02*
X0145950Y0136991D01*
X0144523Y0137658D02*
X0143855Y0136991D01*
X0141854Y0136991D01*
X0140379Y0136991D02*
X0139045Y0136991D01*
X0139712Y0136991D02*
X0139712Y0139660D01*
X0140379Y0139660D01*
X0141854Y0139660D02*
X0143855Y0139660D01*
X0144523Y0138993D01*
X0144523Y0137658D01*
X0146618Y0139660D02*
X0147285Y0139660D01*
X0148736Y0139660D02*
X0149403Y0139660D01*
X0150738Y0138325D01*
X0150738Y0136991D02*
X0150738Y0139660D01*
X0152166Y0139660D02*
X0153500Y0139660D01*
X0152833Y0140327D02*
X0152833Y0137658D01*
X0152166Y0136991D01*
X0154975Y0136991D02*
X0156977Y0136991D01*
X0157644Y0137658D01*
X0157644Y0138993D01*
X0156977Y0139660D01*
X0154975Y0139660D01*
X0159118Y0138993D02*
X0159118Y0138325D01*
X0161787Y0138325D01*
X0161787Y0137658D02*
X0161787Y0138993D01*
X0161120Y0139660D01*
X0159786Y0139660D01*
X0159118Y0138993D01*
X0159786Y0136991D02*
X0161120Y0136991D01*
X0161787Y0137658D01*
X0163215Y0136991D02*
X0164550Y0136991D01*
X0163882Y0136991D02*
X0163882Y0140994D01*
X0164550Y0140994D01*
X0166024Y0138993D02*
X0166024Y0138325D01*
X0168693Y0138325D01*
X0168693Y0137658D02*
X0168693Y0138993D01*
X0168026Y0139660D01*
X0166692Y0139660D01*
X0166024Y0138993D01*
X0166692Y0136991D02*
X0168026Y0136991D01*
X0168693Y0137658D01*
X0167405Y0143741D02*
X0167405Y0145743D01*
X0168073Y0146410D01*
X0169407Y0146410D01*
X0170074Y0145743D01*
X0171502Y0146410D02*
X0172837Y0146410D01*
X0172170Y0147077D02*
X0172170Y0144408D01*
X0171502Y0143741D01*
X0170074Y0143741D02*
X0170074Y0147744D01*
X0168693Y0150491D02*
X0168693Y0153160D01*
X0167359Y0153160D02*
X0168693Y0151825D01*
X0167359Y0153160D02*
X0166692Y0153160D01*
X0164573Y0153160D02*
X0163239Y0153160D01*
X0162571Y0152493D01*
X0162571Y0150491D01*
X0164573Y0150491D01*
X0165240Y0151158D01*
X0164573Y0151825D01*
X0162571Y0151825D01*
X0161097Y0151158D02*
X0161097Y0152493D01*
X0160430Y0153160D01*
X0161097Y0151158D02*
X0160430Y0150491D01*
X0158428Y0150491D01*
X0163262Y0145743D02*
X0163262Y0145075D01*
X0165931Y0145075D01*
X0165931Y0144408D02*
X0165931Y0145743D01*
X0165264Y0146410D01*
X0163929Y0146410D01*
X0163262Y0145743D01*
X0163929Y0143741D02*
X0165264Y0143741D01*
X0165931Y0144408D01*
X0171502Y0150491D02*
X0171502Y0154494D01*
X0170168Y0154494D02*
X0172837Y0154494D01*
X0148666Y0153160D02*
X0147332Y0153160D01*
X0147999Y0153827D02*
X0147999Y0151158D01*
X0147332Y0150491D01*
X0145904Y0150491D02*
X0145904Y0154494D01*
X0145237Y0153160D02*
X0143902Y0153160D01*
X0143235Y0152493D01*
X0143235Y0150491D01*
X0141760Y0151158D02*
X0141760Y0152493D01*
X0141093Y0153160D01*
X0139759Y0153160D01*
X0139091Y0152493D01*
X0139091Y0151825D01*
X0141760Y0151825D01*
X0141760Y0151158D02*
X0141093Y0150491D01*
X0139759Y0150491D01*
X0142474Y0147077D02*
X0142474Y0144408D01*
X0141807Y0143741D01*
X0141807Y0146410D02*
X0143141Y0146410D01*
X0144616Y0145743D02*
X0144616Y0143741D01*
X0144616Y0145743D02*
X0145283Y0146410D01*
X0147285Y0146410D01*
X0145904Y0152493D02*
X0145237Y0153160D01*
X0136236Y0146410D02*
X0134901Y0146410D01*
X0135568Y0147077D02*
X0135568Y0144408D01*
X0134901Y0143741D01*
X0133473Y0144408D02*
X0132806Y0143741D01*
X0131471Y0143741D01*
X0130804Y0144408D01*
X0130804Y0145743D01*
X0131471Y0146410D01*
X0132806Y0146410D01*
X0133473Y0145743D01*
X0133473Y0144408D01*
X0136949Y0140327D02*
X0136949Y0137658D01*
X0136282Y0136991D01*
X0134854Y0137658D02*
X0134854Y0139660D01*
X0136282Y0139660D02*
X0137617Y0139660D01*
X0139712Y0140994D02*
X0139712Y0141662D01*
X0134854Y0137658D02*
X0134187Y0136991D01*
X0132185Y0136991D01*
X0132185Y0136324D02*
X0132853Y0135656D01*
X0133520Y0135656D01*
X0132185Y0136324D02*
X0132185Y0139660D01*
X0126567Y0138993D02*
X0125233Y0138993D01*
X0125900Y0140327D02*
X0125233Y0140994D01*
X0125900Y0140327D02*
X0125900Y0136991D01*
X0123805Y0136991D02*
X0122470Y0136991D01*
X0123138Y0136991D02*
X0123138Y0140994D01*
X0123805Y0140994D01*
X0123184Y0143741D02*
X0122517Y0144408D01*
X0123184Y0145075D01*
X0124519Y0145075D01*
X0125186Y0145743D01*
X0124519Y0146410D01*
X0122517Y0146410D01*
X0121043Y0145743D02*
X0120375Y0146410D01*
X0119041Y0146410D01*
X0118374Y0145743D01*
X0118374Y0145075D01*
X0121043Y0145075D01*
X0121043Y0144408D02*
X0121043Y0145743D01*
X0121043Y0144408D02*
X0120375Y0143741D01*
X0119041Y0143741D01*
X0116899Y0144408D02*
X0116899Y0145743D01*
X0116232Y0146410D01*
X0114897Y0146410D01*
X0114230Y0145743D01*
X0114230Y0145075D01*
X0116899Y0145075D01*
X0116899Y0144408D02*
X0116232Y0143741D01*
X0114897Y0143741D01*
X0114230Y0139660D02*
X0114230Y0137658D01*
X0114897Y0136991D01*
X0115565Y0137658D01*
X0116232Y0136991D01*
X0116899Y0137658D01*
X0116899Y0139660D01*
X0118374Y0138993D02*
X0118374Y0137658D01*
X0119041Y0136991D01*
X0120375Y0136991D01*
X0121043Y0137658D01*
X0121043Y0138993D01*
X0120375Y0139660D01*
X0119041Y0139660D01*
X0118374Y0138993D01*
X0112755Y0138993D02*
X0112088Y0139660D01*
X0110087Y0139660D01*
X0110754Y0138325D02*
X0112088Y0138325D01*
X0112755Y0138993D01*
X0112755Y0136991D02*
X0110754Y0136991D01*
X0110087Y0137658D01*
X0110754Y0138325D01*
X0108612Y0137658D02*
X0108612Y0136991D01*
X0108612Y0138993D02*
X0108612Y0141662D01*
X0107945Y0143741D02*
X0107277Y0144408D01*
X0106610Y0143741D01*
X0105943Y0144408D01*
X0105943Y0146410D01*
X0104468Y0145743D02*
X0103801Y0146410D01*
X0102467Y0146410D01*
X0101799Y0145743D01*
X0101799Y0143741D01*
X0100325Y0144408D02*
X0100325Y0145743D01*
X0099658Y0146410D01*
X0098323Y0146410D01*
X0097656Y0145743D01*
X0097656Y0145075D01*
X0100325Y0145075D01*
X0100325Y0144408D02*
X0099658Y0143741D01*
X0098323Y0143741D01*
X0096181Y0143741D02*
X0096181Y0146410D01*
X0094847Y0146410D02*
X0094180Y0146410D01*
X0094847Y0146410D02*
X0096181Y0145075D01*
X0092728Y0145075D02*
X0090059Y0145075D01*
X0090059Y0145743D01*
X0090727Y0146410D01*
X0092061Y0146410D01*
X0092728Y0145743D01*
X0092728Y0144408D01*
X0092061Y0143741D01*
X0090727Y0143741D01*
X0104468Y0143741D02*
X0104468Y0147744D01*
X0104562Y0150491D02*
X0104562Y0152493D01*
X0105229Y0153160D01*
X0107231Y0153160D01*
X0107231Y0150491D01*
X0108705Y0151158D02*
X0108705Y0152493D01*
X0109373Y0153160D01*
X0110707Y0153160D01*
X0111374Y0152493D01*
X0111374Y0151158D01*
X0110707Y0150491D01*
X0109373Y0150491D01*
X0108705Y0151158D01*
X0108612Y0146410D02*
X0108612Y0144408D01*
X0107945Y0143741D01*
X0116992Y0151158D02*
X0117660Y0151825D01*
X0118994Y0151825D01*
X0119661Y0152493D01*
X0118994Y0153160D01*
X0116992Y0153160D01*
X0116992Y0151158D02*
X0117660Y0150491D01*
X0119661Y0150491D01*
X0121136Y0151825D02*
X0121136Y0152493D01*
X0121803Y0153160D01*
X0123138Y0153160D01*
X0123805Y0152493D01*
X0123805Y0151158D01*
X0123138Y0150491D01*
X0121803Y0150491D01*
X0121136Y0151825D02*
X0123805Y0151825D01*
X0125280Y0152493D02*
X0125280Y0150491D01*
X0125280Y0152493D02*
X0125947Y0153160D01*
X0127948Y0153160D01*
X0127948Y0150491D01*
X0129376Y0150491D02*
X0130711Y0150491D01*
X0130044Y0150491D02*
X0130044Y0153160D01*
X0130711Y0153160D01*
X0130044Y0154494D02*
X0130044Y0155162D01*
X0132806Y0154494D02*
X0132806Y0150491D01*
X0133473Y0150491D02*
X0132139Y0150491D01*
X0132806Y0154494D02*
X0133473Y0154494D01*
X0125186Y0143741D02*
X0123184Y0143741D01*
X0164854Y0184333D02*
X0164854Y0186335D01*
X0165522Y0187002D01*
X0166189Y0186335D01*
X0166189Y0184333D01*
X0167523Y0184333D02*
X0167523Y0187002D01*
X0166856Y0187002D01*
X0166189Y0186335D01*
X0168998Y0186335D02*
X0168998Y0185001D01*
X0169665Y0184333D01*
X0171000Y0184333D01*
X0171667Y0185001D01*
X0171667Y0186335D01*
X0171000Y0187002D01*
X0169665Y0187002D01*
X0168998Y0186335D01*
X0169665Y0191083D02*
X0171000Y0191083D01*
X0171667Y0191751D01*
X0171000Y0193085D02*
X0169665Y0193085D01*
X0168998Y0192418D01*
X0168998Y0191751D01*
X0169665Y0191083D01*
X0167523Y0191751D02*
X0166856Y0191083D01*
X0164854Y0191083D01*
X0163380Y0191083D02*
X0163380Y0195087D01*
X0162713Y0193752D02*
X0161378Y0193752D01*
X0160711Y0193085D01*
X0160711Y0191083D01*
X0159236Y0191083D02*
X0159236Y0193752D01*
X0158569Y0193752D01*
X0157902Y0193085D01*
X0157235Y0193752D01*
X0156567Y0193085D01*
X0156567Y0191083D01*
X0157902Y0191083D02*
X0157902Y0193085D01*
X0155093Y0191751D02*
X0154426Y0191083D01*
X0152424Y0191083D01*
X0152424Y0193085D01*
X0153091Y0193752D01*
X0154426Y0193752D01*
X0154426Y0192418D02*
X0152424Y0192418D01*
X0150949Y0191083D02*
X0149615Y0191083D01*
X0150282Y0191083D02*
X0150282Y0195087D01*
X0150949Y0195087D01*
X0148187Y0193752D02*
X0145518Y0193752D01*
X0148187Y0191083D01*
X0145518Y0191083D01*
X0154426Y0192418D02*
X0155093Y0191751D01*
X0162713Y0193752D02*
X0163380Y0193085D01*
X0164854Y0193752D02*
X0166856Y0193752D01*
X0167523Y0193085D01*
X0167523Y0191751D01*
X0168998Y0194420D02*
X0169665Y0195087D01*
X0171000Y0195087D01*
X0171667Y0194420D01*
X0171667Y0193752D01*
X0171000Y0193085D01*
X0177285Y0193085D02*
X0177285Y0191083D01*
X0179287Y0191083D01*
X0179954Y0191751D01*
X0179287Y0192418D01*
X0177285Y0192418D01*
X0177285Y0193085D02*
X0177952Y0193752D01*
X0179287Y0193752D01*
X0181429Y0193085D02*
X0181429Y0191083D01*
X0181429Y0193085D02*
X0182096Y0193752D01*
X0184098Y0193752D01*
X0184098Y0191083D01*
X0185572Y0191083D02*
X0185572Y0193085D01*
X0186239Y0193752D01*
X0188241Y0193752D01*
X0188241Y0191083D01*
X0189716Y0191083D02*
X0189716Y0193085D01*
X0190383Y0193752D01*
X0191717Y0193752D01*
X0191717Y0192418D02*
X0189716Y0192418D01*
X0189716Y0191083D02*
X0191717Y0191083D01*
X0192385Y0191751D01*
X0191717Y0192418D01*
X0193859Y0192418D02*
X0196528Y0192418D01*
X0196528Y0193085D02*
X0195861Y0193752D01*
X0194526Y0193752D01*
X0193859Y0193085D01*
X0193859Y0192418D01*
X0194526Y0191083D02*
X0195861Y0191083D01*
X0196528Y0191751D01*
X0196528Y0193085D01*
X0198003Y0191751D02*
X0198003Y0194420D01*
X0198670Y0195087D01*
X0200672Y0195087D01*
X0200672Y0191083D01*
X0198670Y0191083D01*
X0198003Y0191751D01*
X0200695Y0188337D02*
X0200695Y0184333D01*
X0201362Y0184333D02*
X0200028Y0184333D01*
X0198600Y0184333D02*
X0195931Y0184333D01*
X0194456Y0184333D02*
X0194456Y0188337D01*
X0193789Y0187002D02*
X0192455Y0187002D01*
X0191787Y0186335D01*
X0191787Y0184333D01*
X0190313Y0185001D02*
X0189646Y0185668D01*
X0187644Y0185668D01*
X0187644Y0186335D02*
X0187644Y0184333D01*
X0189646Y0184333D01*
X0190313Y0185001D01*
X0189646Y0187002D02*
X0188311Y0187002D01*
X0187644Y0186335D01*
X0186169Y0187002D02*
X0186169Y0185001D01*
X0185502Y0184333D01*
X0183500Y0184333D01*
X0183500Y0187002D01*
X0182026Y0186335D02*
X0181359Y0185668D01*
X0180024Y0185668D01*
X0179357Y0185001D01*
X0180024Y0184333D01*
X0182026Y0184333D01*
X0182026Y0186335D02*
X0181359Y0187002D01*
X0179357Y0187002D01*
X0177882Y0185001D02*
X0177215Y0185001D01*
X0177215Y0184333D01*
X0177882Y0184333D01*
X0177882Y0185001D01*
X0175810Y0185001D02*
X0175810Y0186335D01*
X0175143Y0187002D01*
X0173142Y0187002D01*
X0173142Y0184333D02*
X0175143Y0184333D01*
X0175810Y0185001D01*
X0193789Y0187002D02*
X0194456Y0186335D01*
X0195931Y0187002D02*
X0198600Y0184333D01*
X0198600Y0187002D02*
X0195931Y0187002D01*
X0200695Y0188337D02*
X0201362Y0188337D01*
X0202837Y0186335D02*
X0202837Y0184333D01*
X0204839Y0184333D01*
X0205506Y0185001D01*
X0204839Y0185668D01*
X0202837Y0185668D01*
X0202837Y0186335D02*
X0203504Y0187002D01*
X0204839Y0187002D01*
X0206980Y0186335D02*
X0206980Y0184333D01*
X0208315Y0184333D02*
X0208315Y0186335D01*
X0207648Y0187002D01*
X0206980Y0186335D01*
X0208315Y0186335D02*
X0208982Y0187002D01*
X0209649Y0187002D01*
X0209649Y0184333D01*
X0211124Y0184333D02*
X0211124Y0186335D01*
X0211791Y0187002D01*
X0213126Y0187002D01*
X0213793Y0186335D01*
X0215268Y0187002D02*
X0217269Y0187002D01*
X0217936Y0186335D01*
X0217936Y0185001D01*
X0217269Y0184333D01*
X0215268Y0184333D01*
X0213793Y0184333D02*
X0213793Y0188337D01*
X0213172Y0191083D02*
X0212505Y0191751D01*
X0212505Y0193085D01*
X0213172Y0193752D01*
X0215174Y0193752D01*
X0215174Y0195087D02*
X0215174Y0191083D01*
X0213172Y0191083D01*
X0211031Y0191751D02*
X0210363Y0191083D01*
X0208362Y0191083D01*
X0208362Y0190416D02*
X0209029Y0189749D01*
X0209696Y0189749D01*
X0208362Y0190416D02*
X0208362Y0193752D01*
X0206887Y0193752D02*
X0206887Y0193085D01*
X0206220Y0193085D01*
X0206220Y0193752D01*
X0206887Y0193752D01*
X0206887Y0191751D02*
X0206220Y0191751D01*
X0206220Y0191083D01*
X0206887Y0191083D01*
X0206887Y0191751D01*
X0211031Y0191751D02*
X0211031Y0193752D01*
X0219411Y0187002D02*
X0221413Y0187002D01*
X0222080Y0186335D01*
X0221413Y0185668D01*
X0220078Y0185668D01*
X0219411Y0185001D01*
X0220078Y0184333D01*
X0222080Y0184333D01*
X0223555Y0185001D02*
X0224222Y0184333D01*
X0225556Y0184333D01*
X0226224Y0185001D01*
X0226224Y0187670D01*
X0225556Y0188337D01*
X0224222Y0188337D01*
X0223555Y0187670D01*
X0223555Y0186335D01*
X0224222Y0185668D01*
X0224222Y0187002D01*
X0225556Y0187002D01*
X0225556Y0185668D01*
X0224222Y0185668D01*
X0227698Y0185668D02*
X0229700Y0185668D01*
X0230367Y0185001D01*
X0229700Y0184333D01*
X0227698Y0184333D01*
X0227698Y0186335D01*
X0228365Y0187002D01*
X0229700Y0187002D01*
X0231842Y0186335D02*
X0231842Y0184333D01*
X0231842Y0186335D02*
X0232509Y0187002D01*
X0234511Y0187002D01*
X0234511Y0184333D01*
X0235985Y0184333D02*
X0235985Y0186335D01*
X0236652Y0187002D01*
X0238654Y0187002D01*
X0238654Y0184333D01*
X0240129Y0184333D02*
X0242130Y0184333D01*
X0242798Y0185001D01*
X0242130Y0185668D01*
X0240129Y0185668D01*
X0240129Y0186335D02*
X0240129Y0184333D01*
X0240129Y0186335D02*
X0240796Y0187002D01*
X0242130Y0187002D01*
X0244272Y0186335D02*
X0244272Y0185668D01*
X0246941Y0185668D01*
X0246941Y0185001D02*
X0246941Y0186335D01*
X0246274Y0187002D01*
X0244940Y0187002D01*
X0244272Y0186335D01*
X0244940Y0184333D02*
X0246274Y0184333D01*
X0246941Y0185001D01*
X0248416Y0184333D02*
X0250418Y0184333D01*
X0251085Y0185001D01*
X0251085Y0186335D01*
X0250418Y0187002D01*
X0248416Y0187002D01*
X0248416Y0188337D02*
X0248416Y0184333D01*
X0249083Y0191083D02*
X0248416Y0191751D01*
X0248416Y0194420D01*
X0249083Y0195087D01*
X0251085Y0195087D01*
X0251085Y0191083D01*
X0249083Y0191083D01*
X0246941Y0191751D02*
X0246941Y0193085D01*
X0246274Y0193752D01*
X0244940Y0193752D01*
X0244272Y0193085D01*
X0244272Y0192418D01*
X0246941Y0192418D01*
X0246941Y0191751D02*
X0246274Y0191083D01*
X0244940Y0191083D01*
X0242798Y0191083D02*
X0240796Y0191083D01*
X0240129Y0191751D01*
X0240796Y0192418D01*
X0242130Y0192418D01*
X0242798Y0193085D01*
X0242130Y0193752D01*
X0240129Y0193752D01*
X0238654Y0193752D02*
X0237987Y0193752D01*
X0237987Y0191083D01*
X0238654Y0191083D02*
X0237320Y0191083D01*
X0235892Y0191083D02*
X0235892Y0193752D01*
X0233890Y0193752D01*
X0233223Y0193085D01*
X0233223Y0191083D01*
X0231748Y0191751D02*
X0231081Y0191083D01*
X0229079Y0191083D01*
X0229079Y0190416D02*
X0229079Y0193752D01*
X0231081Y0193752D01*
X0231748Y0193085D01*
X0231748Y0191751D01*
X0230414Y0189749D02*
X0229747Y0189749D01*
X0229079Y0190416D01*
X0227605Y0191751D02*
X0227605Y0193085D01*
X0226938Y0193752D01*
X0225603Y0193752D01*
X0224936Y0193085D01*
X0224936Y0192418D01*
X0227605Y0192418D01*
X0227605Y0191751D02*
X0226938Y0191083D01*
X0225603Y0191083D01*
X0223461Y0191751D02*
X0223461Y0193085D01*
X0222794Y0193752D01*
X0220792Y0193752D01*
X0220792Y0195087D02*
X0220792Y0191083D01*
X0222794Y0191083D01*
X0223461Y0191751D01*
X0237987Y0195087D02*
X0237987Y0195754D01*
X0219996Y0218599D02*
X0219412Y0218599D01*
X0218828Y0219183D01*
X0218828Y0222102D01*
X0220580Y0222102D01*
X0221164Y0221518D01*
X0221164Y0220350D01*
X0220580Y0219767D01*
X0218828Y0219767D01*
X0217480Y0220350D02*
X0216897Y0219767D01*
X0215729Y0219767D01*
X0215145Y0220350D01*
X0215145Y0221518D01*
X0215729Y0222102D01*
X0216897Y0222102D01*
X0217480Y0221518D01*
X0217480Y0220350D01*
X0213797Y0220350D02*
X0213213Y0219767D01*
X0212046Y0219767D01*
X0211462Y0220934D02*
X0213797Y0220934D01*
X0213797Y0220350D02*
X0213797Y0221518D01*
X0213213Y0222102D01*
X0212046Y0222102D01*
X0211462Y0221518D01*
X0211462Y0220934D01*
X0210114Y0221518D02*
X0209530Y0222102D01*
X0207779Y0222102D01*
X0208363Y0220934D02*
X0209530Y0220934D01*
X0210114Y0221518D01*
X0210114Y0219767D02*
X0208363Y0219767D01*
X0207779Y0220350D01*
X0208363Y0220934D01*
X0209530Y0225767D02*
X0210114Y0225767D01*
X0210114Y0226350D01*
X0209530Y0226350D01*
X0209530Y0225767D01*
X0209530Y0227518D02*
X0210114Y0227518D01*
X0210114Y0228102D01*
X0209530Y0228102D01*
X0209530Y0227518D01*
X0211462Y0226350D02*
X0211462Y0228686D01*
X0212046Y0229270D01*
X0213797Y0229270D01*
X0213797Y0225767D01*
X0212046Y0225767D01*
X0211462Y0226350D01*
X0215145Y0225767D02*
X0217480Y0225767D01*
X0217480Y0229270D01*
X0215145Y0229270D01*
X0216313Y0227518D02*
X0217480Y0227518D01*
X0218828Y0225767D02*
X0221164Y0225767D01*
X0221164Y0229270D01*
X0204589Y0229270D02*
X0204589Y0225767D01*
X0202254Y0225767D01*
X0200906Y0226350D02*
X0200906Y0227518D01*
X0200322Y0228102D01*
X0199155Y0228102D01*
X0198571Y0227518D01*
X0198571Y0226350D01*
X0199155Y0225767D01*
X0200322Y0225767D01*
X0200906Y0226350D01*
X0202164Y0223853D02*
X0202164Y0223270D01*
X0202164Y0222102D02*
X0202164Y0219767D01*
X0202748Y0219767D02*
X0201580Y0219767D01*
X0200292Y0219767D02*
X0200292Y0222102D01*
X0198541Y0222102D01*
X0197957Y0221518D01*
X0197957Y0219767D01*
X0202164Y0222102D02*
X0202748Y0222102D01*
X0197223Y0225767D02*
X0197223Y0228102D01*
X0195472Y0228102D01*
X0194888Y0227518D01*
X0194888Y0225767D01*
X0193540Y0226350D02*
X0192956Y0225767D01*
X0191205Y0225767D01*
X0191205Y0225183D02*
X0191205Y0228102D01*
X0192956Y0228102D01*
X0193540Y0227518D01*
X0193540Y0226350D01*
X0192372Y0224599D02*
X0191788Y0224599D01*
X0191205Y0225183D01*
X0190591Y0222102D02*
X0192342Y0222102D01*
X0192926Y0221518D01*
X0192342Y0220934D01*
X0191175Y0220934D01*
X0190591Y0220350D01*
X0191175Y0219767D01*
X0192926Y0219767D01*
X0189243Y0220350D02*
X0188659Y0219767D01*
X0186908Y0219767D01*
X0186908Y0218599D02*
X0186908Y0222102D01*
X0188659Y0222102D01*
X0189243Y0221518D01*
X0189243Y0220350D01*
X0185560Y0220350D02*
X0184976Y0219767D01*
X0183224Y0219767D01*
X0183224Y0222102D01*
X0181293Y0222102D02*
X0180125Y0222102D01*
X0179541Y0221518D01*
X0179541Y0219767D01*
X0181293Y0219767D01*
X0181877Y0220350D01*
X0181293Y0220934D01*
X0179541Y0220934D01*
X0178194Y0220934D02*
X0177026Y0222102D01*
X0176442Y0222102D01*
X0175124Y0221518D02*
X0174540Y0222102D01*
X0173373Y0222102D01*
X0172789Y0221518D01*
X0172789Y0220934D01*
X0175124Y0220934D01*
X0175124Y0220350D02*
X0175124Y0221518D01*
X0175124Y0220350D02*
X0174540Y0219767D01*
X0173373Y0219767D01*
X0178194Y0219767D02*
X0178194Y0222102D01*
X0176382Y0225767D02*
X0175214Y0225767D01*
X0176382Y0225767D02*
X0176966Y0226350D01*
X0176966Y0227518D01*
X0176382Y0228102D01*
X0175214Y0228102D01*
X0174630Y0227518D01*
X0174630Y0226934D01*
X0176966Y0226934D01*
X0178284Y0228102D02*
X0178867Y0228102D01*
X0180035Y0226934D01*
X0180035Y0225767D02*
X0180035Y0228102D01*
X0181907Y0228102D02*
X0181907Y0225767D01*
X0182491Y0225767D02*
X0181323Y0225767D01*
X0181907Y0228102D02*
X0182491Y0228102D01*
X0181907Y0229270D02*
X0181907Y0229853D01*
X0183838Y0228102D02*
X0183838Y0226350D01*
X0184422Y0225767D01*
X0185006Y0226350D01*
X0185590Y0225767D01*
X0186174Y0226350D01*
X0186174Y0228102D01*
X0185560Y0222102D02*
X0185560Y0220350D01*
X0167758Y0219767D02*
X0167758Y0223270D01*
X0167174Y0222102D02*
X0166006Y0222102D01*
X0165423Y0221518D01*
X0165423Y0219767D01*
X0164075Y0220350D02*
X0163491Y0219767D01*
X0162323Y0219767D01*
X0161739Y0220350D01*
X0161739Y0221518D01*
X0162323Y0222102D01*
X0163491Y0222102D01*
X0164075Y0221518D01*
X0164075Y0220350D01*
X0167174Y0222102D02*
X0167758Y0221518D01*
X0160392Y0219767D02*
X0159224Y0219767D01*
X0159808Y0219767D02*
X0159808Y0223270D01*
X0160392Y0223270D01*
X0157936Y0221518D02*
X0157352Y0222102D01*
X0156185Y0222102D01*
X0155601Y0221518D01*
X0155601Y0220934D01*
X0157936Y0220934D01*
X0157936Y0220350D02*
X0157936Y0221518D01*
X0157936Y0220350D02*
X0157352Y0219767D01*
X0156185Y0219767D01*
X0111518Y0204663D02*
X0111518Y0201160D01*
X0111518Y0202912D02*
X0110350Y0202912D01*
X0111518Y0204663D02*
X0109183Y0204663D01*
X0107835Y0202912D02*
X0107251Y0203496D01*
X0106083Y0203496D01*
X0105499Y0202912D01*
X0105499Y0201744D01*
X0106083Y0201160D01*
X0107251Y0201160D01*
X0107835Y0201744D01*
X0107835Y0202912D01*
X0105379Y0198663D02*
X0105379Y0195160D01*
X0106667Y0195160D02*
X0107251Y0195744D01*
X0107251Y0198079D01*
X0107835Y0197496D02*
X0106667Y0197496D01*
X0105379Y0196912D02*
X0104795Y0197496D01*
X0103628Y0197496D01*
X0103044Y0196912D01*
X0103044Y0195160D01*
X0101696Y0195744D02*
X0101696Y0196912D01*
X0101112Y0197496D01*
X0099945Y0197496D01*
X0099361Y0196912D01*
X0099361Y0196328D01*
X0101696Y0196328D01*
X0101696Y0195744D02*
X0101112Y0195160D01*
X0099945Y0195160D01*
X0098013Y0195160D02*
X0098013Y0197496D01*
X0096845Y0197496D02*
X0096262Y0197496D01*
X0096845Y0197496D02*
X0098013Y0196328D01*
X0097399Y0201160D02*
X0097399Y0203496D01*
X0096815Y0203496D01*
X0096232Y0202912D01*
X0095648Y0203496D01*
X0095064Y0202912D01*
X0095064Y0201160D01*
X0096232Y0201160D02*
X0096232Y0202912D01*
X0093716Y0202912D02*
X0093132Y0203496D01*
X0091965Y0203496D01*
X0091381Y0202912D01*
X0091381Y0201744D01*
X0091965Y0201160D01*
X0093132Y0201160D01*
X0093716Y0201744D01*
X0093716Y0202912D01*
X0090033Y0203496D02*
X0090033Y0201160D01*
X0090033Y0202328D02*
X0088865Y0203496D01*
X0088281Y0203496D01*
X0086964Y0202912D02*
X0086380Y0203496D01*
X0085212Y0203496D01*
X0084628Y0202912D01*
X0084628Y0202328D01*
X0086964Y0202328D01*
X0086964Y0201744D02*
X0086964Y0202912D01*
X0086964Y0201744D02*
X0086380Y0201160D01*
X0085212Y0201160D01*
X0085122Y0197496D02*
X0083371Y0197496D01*
X0082787Y0196912D01*
X0082787Y0195160D01*
X0085122Y0195160D02*
X0085122Y0197496D01*
X0086470Y0197496D02*
X0086470Y0195160D01*
X0088221Y0195160D01*
X0088805Y0195744D01*
X0088805Y0197496D01*
X0090093Y0196912D02*
X0091261Y0196912D01*
X0090677Y0198079D02*
X0090093Y0198663D01*
X0090677Y0198079D02*
X0090677Y0195160D01*
X0079597Y0201160D02*
X0078430Y0201160D01*
X0079013Y0201160D02*
X0079013Y0203496D01*
X0079597Y0203496D01*
X0079013Y0204663D02*
X0079013Y0205247D01*
X0077142Y0203496D02*
X0077142Y0201160D01*
X0074807Y0201160D02*
X0074807Y0202912D01*
X0075390Y0203496D01*
X0077142Y0203496D01*
X0073459Y0202912D02*
X0072291Y0202912D01*
X0071003Y0202912D02*
X0071003Y0201744D01*
X0070419Y0201160D01*
X0069252Y0201160D01*
X0068668Y0201744D01*
X0068668Y0202912D01*
X0069252Y0203496D01*
X0070419Y0203496D01*
X0071003Y0202912D01*
X0072291Y0204663D02*
X0072875Y0204079D01*
X0072875Y0201160D01*
X0074103Y0199247D02*
X0074103Y0198663D01*
X0074103Y0197496D02*
X0074103Y0195160D01*
X0074686Y0195160D02*
X0073519Y0195160D01*
X0071647Y0195744D02*
X0071647Y0198079D01*
X0072231Y0197496D02*
X0071063Y0197496D01*
X0069776Y0196912D02*
X0069192Y0197496D01*
X0067440Y0197496D01*
X0068024Y0196328D02*
X0067440Y0195744D01*
X0068024Y0195160D01*
X0069776Y0195160D01*
X0071063Y0195160D02*
X0071647Y0195744D01*
X0069776Y0196912D02*
X0069192Y0196328D01*
X0068024Y0196328D01*
X0067320Y0201160D02*
X0067320Y0203496D01*
X0066153Y0203496D02*
X0065569Y0203496D01*
X0066153Y0203496D02*
X0067320Y0202328D01*
X0064251Y0203496D02*
X0063667Y0203496D01*
X0063083Y0202912D01*
X0062499Y0203496D01*
X0061916Y0202912D01*
X0061916Y0201160D01*
X0063083Y0201160D02*
X0063083Y0202912D01*
X0064251Y0203496D02*
X0064251Y0201160D01*
X0060568Y0201744D02*
X0059984Y0202328D01*
X0058232Y0202328D01*
X0058232Y0202912D02*
X0058232Y0201160D01*
X0059984Y0201160D01*
X0060568Y0201744D01*
X0059984Y0203496D02*
X0058816Y0203496D01*
X0058232Y0202912D01*
X0056885Y0203496D02*
X0055717Y0203496D01*
X0056301Y0204079D02*
X0056301Y0201744D01*
X0055717Y0201160D01*
X0054429Y0201160D02*
X0053262Y0201160D01*
X0053845Y0201160D02*
X0053845Y0203496D01*
X0054429Y0203496D01*
X0053845Y0204663D02*
X0053845Y0205247D01*
X0051974Y0202912D02*
X0051974Y0201744D01*
X0051390Y0201160D01*
X0050222Y0201160D01*
X0049638Y0201744D01*
X0049638Y0202912D01*
X0050222Y0203496D01*
X0051390Y0203496D01*
X0051974Y0202912D01*
X0048291Y0203496D02*
X0046539Y0203496D01*
X0045955Y0202912D01*
X0045955Y0201160D01*
X0044637Y0199247D02*
X0044637Y0198663D01*
X0044637Y0197496D02*
X0044637Y0195160D01*
X0044054Y0195160D02*
X0045221Y0195160D01*
X0046569Y0195160D02*
X0046569Y0197496D01*
X0045221Y0197496D02*
X0044637Y0197496D01*
X0042766Y0198663D02*
X0042182Y0198663D01*
X0042182Y0195160D01*
X0042766Y0195160D02*
X0041598Y0195160D01*
X0040310Y0195744D02*
X0040310Y0196912D01*
X0039727Y0197496D01*
X0037975Y0197496D01*
X0037975Y0198663D02*
X0037975Y0195160D01*
X0039727Y0195160D01*
X0040310Y0195744D01*
X0036627Y0193993D02*
X0035460Y0195160D01*
X0036043Y0195160D01*
X0036043Y0195744D01*
X0035460Y0195744D01*
X0035460Y0195160D01*
X0030489Y0195744D02*
X0029905Y0195160D01*
X0028153Y0195160D01*
X0028153Y0194576D02*
X0028153Y0197496D01*
X0029905Y0197496D01*
X0030489Y0196912D01*
X0030489Y0195744D01*
X0029321Y0193993D02*
X0028737Y0193993D01*
X0028153Y0194576D01*
X0026806Y0195744D02*
X0026222Y0195160D01*
X0025054Y0195160D01*
X0024470Y0195744D01*
X0024470Y0196912D01*
X0025054Y0197496D01*
X0026222Y0197496D01*
X0026806Y0196912D01*
X0026806Y0195744D01*
X0031223Y0201160D02*
X0032974Y0201160D01*
X0033558Y0201744D01*
X0033558Y0202912D01*
X0032974Y0203496D01*
X0031223Y0203496D01*
X0031223Y0204663D02*
X0031223Y0201160D01*
X0034906Y0201160D02*
X0034906Y0202912D01*
X0035490Y0203496D01*
X0037241Y0203496D01*
X0037241Y0201160D01*
X0038589Y0201160D02*
X0040340Y0201160D01*
X0040924Y0201744D01*
X0040340Y0202328D01*
X0038589Y0202328D01*
X0038589Y0202912D02*
X0038589Y0201160D01*
X0038589Y0202912D02*
X0039173Y0203496D01*
X0040340Y0203496D01*
X0048291Y0203496D02*
X0048291Y0201160D01*
X0048904Y0197496D02*
X0048904Y0195744D01*
X0048321Y0195160D01*
X0046569Y0195160D01*
X0050252Y0195744D02*
X0050252Y0196912D01*
X0050836Y0197496D01*
X0052588Y0197496D01*
X0052588Y0198663D02*
X0052588Y0195160D01*
X0050836Y0195160D01*
X0050252Y0195744D01*
X0057619Y0195744D02*
X0057619Y0196912D01*
X0058202Y0197496D01*
X0059370Y0197496D01*
X0059954Y0196912D01*
X0059954Y0195744D01*
X0059370Y0195160D01*
X0058202Y0195160D01*
X0057619Y0195744D01*
X0061242Y0195160D02*
X0061825Y0195744D01*
X0061825Y0198079D01*
X0061242Y0197496D02*
X0062409Y0197496D01*
X0074103Y0197496D02*
X0074686Y0197496D01*
X0076004Y0197496D02*
X0077756Y0196328D01*
X0076004Y0195160D01*
X0077756Y0195160D02*
X0077756Y0198663D01*
X0093329Y0219583D02*
X0092746Y0220167D01*
X0092746Y0223086D01*
X0094497Y0223086D01*
X0095081Y0222502D01*
X0095081Y0221335D01*
X0094497Y0220751D01*
X0092746Y0220751D01*
X0093329Y0219583D02*
X0093913Y0219583D01*
X0091398Y0221335D02*
X0090814Y0220751D01*
X0089646Y0220751D01*
X0089062Y0221335D01*
X0089062Y0222502D01*
X0089646Y0223086D01*
X0090814Y0223086D01*
X0091398Y0222502D01*
X0091398Y0221335D01*
X0087715Y0221335D02*
X0087715Y0222502D01*
X0087131Y0223086D01*
X0085963Y0223086D01*
X0085379Y0222502D01*
X0085379Y0221918D01*
X0087715Y0221918D01*
X0087715Y0221335D02*
X0087131Y0220751D01*
X0085963Y0220751D01*
X0084031Y0220751D02*
X0082280Y0220751D01*
X0081696Y0221335D01*
X0082280Y0221918D01*
X0083448Y0221918D01*
X0084031Y0222502D01*
X0083448Y0223086D01*
X0081696Y0223086D01*
X0083448Y0226751D02*
X0084031Y0226751D01*
X0084031Y0227335D01*
X0083448Y0227335D01*
X0083448Y0226751D01*
X0083448Y0228502D02*
X0084031Y0228502D01*
X0084031Y0229086D01*
X0083448Y0229086D01*
X0083448Y0228502D01*
X0085379Y0227335D02*
X0085379Y0229670D01*
X0085963Y0230254D01*
X0087715Y0230254D01*
X0087715Y0226751D01*
X0085963Y0226751D01*
X0085379Y0227335D01*
X0089062Y0226751D02*
X0091398Y0226751D01*
X0091398Y0230254D01*
X0089062Y0230254D01*
X0090230Y0228502D02*
X0091398Y0228502D01*
X0092746Y0226751D02*
X0095081Y0226751D01*
X0095081Y0230254D01*
X0078507Y0230254D02*
X0078507Y0226751D01*
X0076171Y0226751D01*
X0074824Y0227335D02*
X0074824Y0228502D01*
X0074240Y0229086D01*
X0073072Y0229086D01*
X0072488Y0228502D01*
X0072488Y0227335D01*
X0073072Y0226751D01*
X0074240Y0226751D01*
X0074824Y0227335D01*
X0076081Y0224838D02*
X0076081Y0224254D01*
X0076081Y0223086D02*
X0076081Y0220751D01*
X0076665Y0220751D02*
X0075497Y0220751D01*
X0074210Y0220751D02*
X0074210Y0223086D01*
X0072458Y0223086D01*
X0071874Y0222502D01*
X0071874Y0220751D01*
X0076081Y0223086D02*
X0076665Y0223086D01*
X0071140Y0226751D02*
X0071140Y0229086D01*
X0069389Y0229086D01*
X0068805Y0228502D01*
X0068805Y0226751D01*
X0067457Y0227335D02*
X0067457Y0228502D01*
X0066873Y0229086D01*
X0065122Y0229086D01*
X0065122Y0226167D01*
X0065706Y0225583D01*
X0066290Y0225583D01*
X0066873Y0226751D02*
X0065122Y0226751D01*
X0066873Y0226751D02*
X0067457Y0227335D01*
X0066260Y0223086D02*
X0064508Y0223086D01*
X0065092Y0221918D02*
X0066260Y0221918D01*
X0066843Y0222502D01*
X0066260Y0223086D01*
X0065092Y0221918D02*
X0064508Y0221335D01*
X0065092Y0220751D01*
X0066843Y0220751D01*
X0063160Y0221335D02*
X0062576Y0220751D01*
X0060825Y0220751D01*
X0060825Y0219583D02*
X0060825Y0223086D01*
X0062576Y0223086D01*
X0063160Y0222502D01*
X0063160Y0221335D01*
X0059477Y0221335D02*
X0058893Y0220751D01*
X0057142Y0220751D01*
X0057142Y0223086D01*
X0055210Y0223086D02*
X0054043Y0223086D01*
X0053459Y0222502D01*
X0053459Y0220751D01*
X0055210Y0220751D01*
X0055794Y0221335D01*
X0055210Y0221918D01*
X0053459Y0221918D01*
X0052111Y0221918D02*
X0050943Y0223086D01*
X0050359Y0223086D01*
X0049042Y0222502D02*
X0048458Y0223086D01*
X0047290Y0223086D01*
X0046706Y0222502D01*
X0046706Y0221918D01*
X0049042Y0221918D01*
X0049042Y0221335D02*
X0049042Y0222502D01*
X0049042Y0221335D02*
X0048458Y0220751D01*
X0047290Y0220751D01*
X0052111Y0220751D02*
X0052111Y0223086D01*
X0050299Y0226751D02*
X0049132Y0226751D01*
X0050299Y0226751D02*
X0050883Y0227335D01*
X0050883Y0228502D01*
X0050299Y0229086D01*
X0049132Y0229086D01*
X0048548Y0228502D01*
X0048548Y0227918D01*
X0050883Y0227918D01*
X0052201Y0229086D02*
X0052785Y0229086D01*
X0053952Y0227918D01*
X0053952Y0226751D02*
X0053952Y0229086D01*
X0055824Y0229086D02*
X0055824Y0226751D01*
X0056408Y0226751D02*
X0055240Y0226751D01*
X0055824Y0229086D02*
X0056408Y0229086D01*
X0055824Y0230254D02*
X0055824Y0230838D01*
X0057756Y0229086D02*
X0057756Y0227335D01*
X0058340Y0226751D01*
X0058923Y0227335D01*
X0059507Y0226751D01*
X0060091Y0227335D01*
X0060091Y0229086D01*
X0059477Y0223086D02*
X0059477Y0221335D01*
X0041675Y0220751D02*
X0041675Y0224254D01*
X0041091Y0223086D02*
X0039924Y0223086D01*
X0039340Y0222502D01*
X0039340Y0220751D01*
X0037992Y0221335D02*
X0037408Y0220751D01*
X0036241Y0220751D01*
X0035657Y0221335D01*
X0035657Y0222502D01*
X0036241Y0223086D01*
X0037408Y0223086D01*
X0037992Y0222502D01*
X0037992Y0221335D01*
X0041091Y0223086D02*
X0041675Y0222502D01*
X0034309Y0220751D02*
X0033141Y0220751D01*
X0033725Y0220751D02*
X0033725Y0224254D01*
X0034309Y0224254D01*
X0031854Y0222502D02*
X0031270Y0223086D01*
X0030102Y0223086D01*
X0029518Y0222502D01*
X0029518Y0221918D01*
X0031854Y0221918D01*
X0031854Y0221335D02*
X0031854Y0222502D01*
X0031854Y0221335D02*
X0031270Y0220751D01*
X0030102Y0220751D01*
X0018855Y0198079D02*
X0018855Y0195744D01*
X0018272Y0195160D01*
X0016984Y0195744D02*
X0016400Y0195160D01*
X0015232Y0195160D01*
X0014649Y0195744D01*
X0014649Y0196912D01*
X0015232Y0197496D01*
X0016400Y0197496D01*
X0016984Y0196912D01*
X0016984Y0195744D01*
X0018272Y0197496D02*
X0019439Y0197496D01*
X0102400Y0203496D02*
X0102984Y0203496D01*
X0104152Y0202328D01*
X0104152Y0201160D02*
X0104152Y0203496D01*
X0109766Y0197496D02*
X0110934Y0197496D01*
X0111518Y0196912D01*
X0111518Y0195744D01*
X0110934Y0195160D01*
X0109766Y0195160D01*
X0109183Y0195744D01*
X0109183Y0196912D01*
X0109766Y0197496D01*
D13*
X0109646Y0191405D02*
X0109646Y0186500D01*
X0109646Y0188952D02*
X0108829Y0189770D01*
X0107194Y0189770D01*
X0106377Y0188952D01*
X0106377Y0186500D01*
X0103672Y0187318D02*
X0103672Y0190587D01*
X0102855Y0189770D02*
X0104490Y0189770D01*
X0103672Y0187318D02*
X0102855Y0186500D01*
X0100235Y0187318D02*
X0100235Y0190587D01*
X0101052Y0189770D02*
X0099418Y0189770D01*
X0097615Y0189770D02*
X0095163Y0189770D01*
X0094345Y0188952D01*
X0094345Y0187318D01*
X0095163Y0186500D01*
X0097615Y0186500D01*
X0097615Y0184866D02*
X0097615Y0189770D01*
X0100235Y0187318D02*
X0099418Y0186500D01*
X0092458Y0186500D02*
X0090006Y0186500D01*
X0089189Y0187318D01*
X0090006Y0188135D01*
X0091641Y0188135D01*
X0092458Y0188952D01*
X0091641Y0189770D01*
X0089189Y0189770D01*
X0087302Y0189770D02*
X0087302Y0188952D01*
X0086484Y0188952D01*
X0086484Y0189770D01*
X0087302Y0189770D01*
X0087302Y0187318D02*
X0087302Y0186500D01*
X0086484Y0186500D01*
X0086484Y0187318D01*
X0087302Y0187318D01*
X0084724Y0186500D02*
X0081454Y0191405D01*
X0076298Y0191405D02*
X0079567Y0186500D01*
X0074411Y0187318D02*
X0073593Y0186500D01*
X0071141Y0186500D01*
X0071141Y0185683D02*
X0071141Y0189770D01*
X0073593Y0189770D01*
X0074411Y0188952D01*
X0074411Y0187318D01*
X0072776Y0184866D02*
X0071959Y0184866D01*
X0071141Y0185683D01*
X0069254Y0187318D02*
X0068437Y0186500D01*
X0066802Y0186500D01*
X0065985Y0187318D01*
X0065985Y0188952D01*
X0066802Y0189770D01*
X0068437Y0189770D01*
X0069254Y0188952D01*
X0069254Y0187318D01*
X0064098Y0187318D02*
X0063281Y0186500D01*
X0061646Y0186500D01*
X0060829Y0187318D01*
X0060829Y0188952D01*
X0061646Y0189770D01*
X0063281Y0189770D01*
X0064098Y0188952D01*
X0064098Y0187318D01*
X0058942Y0187318D02*
X0058124Y0187318D01*
X0058124Y0186500D01*
X0058942Y0186500D01*
X0058942Y0187318D01*
X0056363Y0187318D02*
X0056363Y0188952D01*
X0055546Y0189770D01*
X0053094Y0189770D01*
X0053094Y0185683D01*
X0053911Y0184866D01*
X0054729Y0184866D01*
X0055546Y0186500D02*
X0053094Y0186500D01*
X0051207Y0186500D02*
X0049572Y0186500D01*
X0050390Y0186500D02*
X0050390Y0191405D01*
X0051207Y0191405D01*
X0047769Y0186500D02*
X0044500Y0191405D01*
X0042613Y0188952D02*
X0040978Y0188952D01*
X0041796Y0190587D02*
X0040978Y0191405D01*
X0041796Y0190587D02*
X0041796Y0186500D01*
X0039175Y0184866D02*
X0038358Y0184866D01*
X0037541Y0185683D01*
X0037541Y0189770D01*
X0037541Y0191405D02*
X0037541Y0192222D01*
X0034920Y0189770D02*
X0032468Y0189770D01*
X0032468Y0191405D02*
X0032468Y0186500D01*
X0034920Y0186500D01*
X0035738Y0187318D01*
X0035738Y0188952D01*
X0034920Y0189770D01*
X0030581Y0189770D02*
X0030581Y0190587D01*
X0029764Y0191405D01*
X0028129Y0191405D01*
X0027312Y0190587D01*
X0027312Y0189770D01*
X0028129Y0188952D01*
X0029764Y0188952D01*
X0030581Y0189770D01*
X0029764Y0188952D02*
X0030581Y0188135D01*
X0030581Y0187318D01*
X0029764Y0186500D01*
X0028129Y0186500D01*
X0027312Y0187318D01*
X0027312Y0188135D01*
X0028129Y0188952D01*
X0025425Y0186500D02*
X0023790Y0188135D01*
X0022156Y0186500D01*
X0022156Y0191405D01*
X0020269Y0190587D02*
X0019451Y0191405D01*
X0017817Y0191405D01*
X0016999Y0190587D01*
X0016999Y0189770D01*
X0017817Y0188952D01*
X0016999Y0188135D01*
X0016999Y0187318D01*
X0017817Y0186500D01*
X0019451Y0186500D01*
X0020269Y0187318D01*
X0018634Y0188952D02*
X0017817Y0188952D01*
X0025425Y0191405D02*
X0025425Y0186500D01*
X0055546Y0186500D02*
X0056363Y0187318D01*
M02*
