G75*
%MOIN*%
%OFA0B0*%
%FSLAX25Y25*%
%IPPOS*%
%LPD*%
%AMOC8*
5,1,8,0,0,1.08239X$1,22.5*
%
%ADD10C,0.03200*%
%ADD11C,0.00700*%
%ADD12C,0.00800*%
%ADD13C,0.00600*%
%ADD14C,0.00100*%
%ADD15C,0.00500*%
D10*
X0068264Y0064300D02*
X0130764Y0014300D01*
X0193264Y0064300D01*
X0229977Y0141761D01*
X0181551Y0142154D01*
X0181551Y0161643D02*
X0229780Y0161643D01*
X0230764Y0201800D01*
X0199268Y0214005D01*
X0188638Y0214005D02*
X0130764Y0164595D01*
X0130764Y0123454D01*
X0130370Y0164005D02*
X0073480Y0214005D01*
X0063638Y0214005D02*
X0030764Y0201800D01*
X0030961Y0161643D01*
X0080567Y0162036D01*
X0080370Y0141957D02*
X0031354Y0141957D01*
X0068264Y0064300D01*
X0130764Y0039300D02*
X0130764Y0014300D01*
D11*
X0131902Y0085418D02*
X0131085Y0086235D01*
X0131085Y0087870D01*
X0131902Y0088687D01*
X0134354Y0088687D01*
X0134354Y0090322D02*
X0134354Y0085418D01*
X0131902Y0085418D01*
X0129282Y0085418D02*
X0127647Y0085418D01*
X0128465Y0085418D02*
X0128465Y0090322D01*
X0127647Y0090322D01*
X0125760Y0087870D02*
X0124943Y0088687D01*
X0123308Y0088687D01*
X0122491Y0087870D01*
X0122491Y0086235D01*
X0123308Y0085418D01*
X0124943Y0085418D01*
X0125760Y0086235D01*
X0125760Y0087870D01*
X0120604Y0087870D02*
X0120604Y0085418D01*
X0120604Y0087870D02*
X0119787Y0088687D01*
X0118152Y0088687D01*
X0117334Y0087870D01*
X0117334Y0090322D02*
X0117334Y0085418D01*
X0117334Y0093818D02*
X0119787Y0093818D01*
X0120604Y0094635D01*
X0120604Y0096270D01*
X0119787Y0097087D01*
X0117334Y0097087D01*
X0117334Y0098722D02*
X0117334Y0093818D01*
X0122491Y0094635D02*
X0123308Y0095452D01*
X0125760Y0095452D01*
X0125760Y0096270D02*
X0125760Y0093818D01*
X0123308Y0093818D01*
X0122491Y0094635D01*
X0123308Y0097087D02*
X0124943Y0097087D01*
X0125760Y0096270D01*
X0127647Y0097087D02*
X0129282Y0097087D01*
X0128465Y0097905D02*
X0128465Y0094635D01*
X0129282Y0093818D01*
X0131902Y0094635D02*
X0132720Y0093818D01*
X0131902Y0094635D02*
X0131902Y0097905D01*
X0131085Y0097087D02*
X0132720Y0097087D01*
X0134522Y0096270D02*
X0135340Y0097087D01*
X0136974Y0097087D01*
X0137792Y0096270D01*
X0137792Y0095452D01*
X0134522Y0095452D01*
X0134522Y0094635D02*
X0134522Y0096270D01*
X0134522Y0094635D02*
X0135340Y0093818D01*
X0136974Y0093818D01*
X0139679Y0093818D02*
X0139679Y0097087D01*
X0139679Y0095452D02*
X0141314Y0097087D01*
X0142131Y0097087D01*
X0143976Y0097087D02*
X0143976Y0094635D01*
X0144793Y0093818D01*
X0147245Y0093818D01*
X0147245Y0093000D02*
X0146428Y0092183D01*
X0145611Y0092183D01*
X0147245Y0093000D02*
X0147245Y0097087D01*
X0143850Y0088687D02*
X0143032Y0088687D01*
X0141398Y0087052D01*
X0141398Y0085418D02*
X0141398Y0088687D01*
X0139511Y0087870D02*
X0139511Y0087052D01*
X0136241Y0087052D01*
X0136241Y0086235D02*
X0136241Y0087870D01*
X0137059Y0088687D01*
X0138693Y0088687D01*
X0139511Y0087870D01*
X0138693Y0085418D02*
X0137059Y0085418D01*
X0136241Y0086235D01*
X0194303Y0149197D02*
X0196755Y0149197D01*
X0197572Y0150015D01*
X0196755Y0150832D01*
X0195120Y0150832D01*
X0194303Y0151649D01*
X0195120Y0152467D01*
X0197572Y0152467D01*
X0199459Y0152467D02*
X0199459Y0150015D01*
X0200277Y0149197D01*
X0201094Y0150015D01*
X0201911Y0149197D01*
X0202729Y0150015D01*
X0202729Y0152467D01*
X0204616Y0152467D02*
X0205433Y0152467D01*
X0205433Y0149197D01*
X0204616Y0149197D02*
X0206250Y0149197D01*
X0208871Y0150015D02*
X0209688Y0149197D01*
X0208871Y0150015D02*
X0208871Y0153284D01*
X0209688Y0152467D02*
X0208053Y0152467D01*
X0205433Y0154101D02*
X0205433Y0154919D01*
X0211491Y0151649D02*
X0211491Y0150015D01*
X0212308Y0149197D01*
X0214760Y0149197D01*
X0216647Y0149197D02*
X0216647Y0154101D01*
X0217465Y0152467D02*
X0216647Y0151649D01*
X0217465Y0152467D02*
X0219099Y0152467D01*
X0219917Y0151649D01*
X0219917Y0149197D01*
X0214760Y0152467D02*
X0212308Y0152467D01*
X0211491Y0151649D01*
X0070310Y0151649D02*
X0070310Y0149197D01*
X0070310Y0151649D02*
X0069493Y0152467D01*
X0067858Y0152467D01*
X0067041Y0151649D01*
X0065154Y0152467D02*
X0062702Y0152467D01*
X0061885Y0151649D01*
X0061885Y0150015D01*
X0062702Y0149197D01*
X0065154Y0149197D01*
X0067041Y0149197D02*
X0067041Y0154101D01*
X0060082Y0152467D02*
X0058447Y0152467D01*
X0059264Y0153284D02*
X0059264Y0150015D01*
X0060082Y0149197D01*
X0056644Y0149197D02*
X0055009Y0149197D01*
X0055827Y0149197D02*
X0055827Y0152467D01*
X0055009Y0152467D01*
X0055827Y0154101D02*
X0055827Y0154919D01*
X0053122Y0152467D02*
X0053122Y0150015D01*
X0052305Y0149197D01*
X0051488Y0150015D01*
X0050670Y0149197D01*
X0049853Y0150015D01*
X0049853Y0152467D01*
X0047966Y0152467D02*
X0045514Y0152467D01*
X0044697Y0151649D01*
X0045514Y0150832D01*
X0047149Y0150832D01*
X0047966Y0150015D01*
X0047149Y0149197D01*
X0044697Y0149197D01*
D12*
X0058264Y0206800D02*
X0058264Y0221800D01*
X0115803Y0129241D02*
X0145725Y0129241D01*
X0145725Y0117509D01*
X0115803Y0117509D02*
X0115803Y0129241D01*
X0145724Y0117508D02*
X0146723Y0117129D01*
X0147712Y0116726D01*
X0148691Y0116299D01*
X0149659Y0115848D01*
X0150616Y0115374D01*
X0151562Y0114877D01*
X0152494Y0114356D01*
X0153414Y0113813D01*
X0154320Y0113248D01*
X0155213Y0112660D01*
X0156090Y0112051D01*
X0156953Y0111421D01*
X0157799Y0110770D01*
X0158630Y0110099D01*
X0159444Y0109407D01*
X0160241Y0108696D01*
X0161020Y0107965D01*
X0161781Y0107216D01*
X0162524Y0106448D01*
X0163248Y0105663D01*
X0163952Y0104860D01*
X0164637Y0104040D01*
X0165301Y0103203D01*
X0165945Y0102351D01*
X0166568Y0101483D01*
X0167169Y0100601D01*
X0167749Y0099703D01*
X0168306Y0098792D01*
X0168842Y0097868D01*
X0169354Y0096931D01*
X0169843Y0095981D01*
X0170310Y0095020D01*
X0170752Y0094048D01*
X0171171Y0093065D01*
X0171565Y0092073D01*
X0171936Y0091071D01*
X0172281Y0090060D01*
X0172602Y0089041D01*
X0172898Y0088015D01*
X0173169Y0086982D01*
X0173414Y0085942D01*
X0173634Y0084897D01*
X0173829Y0083847D01*
X0173998Y0082792D01*
X0174140Y0081734D01*
X0174258Y0080672D01*
X0174349Y0079608D01*
X0174414Y0078541D01*
X0174453Y0077474D01*
X0174466Y0076406D01*
X0174453Y0075338D01*
X0174414Y0074271D01*
X0174349Y0073204D01*
X0174258Y0072140D01*
X0174140Y0071078D01*
X0173998Y0070020D01*
X0173829Y0068965D01*
X0173634Y0067915D01*
X0173414Y0066870D01*
X0173169Y0065830D01*
X0172898Y0064797D01*
X0172602Y0063771D01*
X0172281Y0062752D01*
X0171936Y0061741D01*
X0171565Y0060739D01*
X0171171Y0059747D01*
X0170752Y0058764D01*
X0170310Y0057792D01*
X0169843Y0056831D01*
X0169354Y0055881D01*
X0168842Y0054944D01*
X0168306Y0054020D01*
X0167749Y0053109D01*
X0167169Y0052211D01*
X0166568Y0051329D01*
X0165945Y0050461D01*
X0165301Y0049609D01*
X0164637Y0048772D01*
X0163952Y0047952D01*
X0163248Y0047149D01*
X0162524Y0046364D01*
X0161781Y0045596D01*
X0161020Y0044847D01*
X0160241Y0044116D01*
X0159444Y0043405D01*
X0158630Y0042713D01*
X0157799Y0042042D01*
X0156953Y0041391D01*
X0156090Y0040761D01*
X0155213Y0040152D01*
X0154320Y0039564D01*
X0153414Y0038999D01*
X0152494Y0038456D01*
X0151562Y0037935D01*
X0150616Y0037438D01*
X0149659Y0036964D01*
X0148691Y0036513D01*
X0147712Y0036086D01*
X0146723Y0035683D01*
X0145724Y0035304D01*
X0145725Y0035304D02*
X0115803Y0035304D01*
X0115804Y0035304D02*
X0114805Y0035683D01*
X0113816Y0036086D01*
X0112837Y0036513D01*
X0111869Y0036964D01*
X0110912Y0037438D01*
X0109966Y0037935D01*
X0109034Y0038456D01*
X0108114Y0038999D01*
X0107208Y0039564D01*
X0106315Y0040152D01*
X0105438Y0040761D01*
X0104575Y0041391D01*
X0103729Y0042042D01*
X0102898Y0042713D01*
X0102084Y0043405D01*
X0101287Y0044116D01*
X0100508Y0044847D01*
X0099747Y0045596D01*
X0099004Y0046364D01*
X0098280Y0047149D01*
X0097576Y0047952D01*
X0096891Y0048772D01*
X0096227Y0049609D01*
X0095583Y0050461D01*
X0094960Y0051329D01*
X0094359Y0052211D01*
X0093779Y0053109D01*
X0093222Y0054020D01*
X0092686Y0054944D01*
X0092174Y0055881D01*
X0091685Y0056831D01*
X0091218Y0057792D01*
X0090776Y0058764D01*
X0090357Y0059747D01*
X0089963Y0060739D01*
X0089592Y0061741D01*
X0089247Y0062752D01*
X0088926Y0063771D01*
X0088630Y0064797D01*
X0088359Y0065830D01*
X0088114Y0066870D01*
X0087894Y0067915D01*
X0087699Y0068965D01*
X0087530Y0070020D01*
X0087388Y0071078D01*
X0087270Y0072140D01*
X0087179Y0073204D01*
X0087114Y0074271D01*
X0087075Y0075338D01*
X0087062Y0076406D01*
X0087075Y0077474D01*
X0087114Y0078541D01*
X0087179Y0079608D01*
X0087270Y0080672D01*
X0087388Y0081734D01*
X0087530Y0082792D01*
X0087699Y0083847D01*
X0087894Y0084897D01*
X0088114Y0085942D01*
X0088359Y0086982D01*
X0088630Y0088015D01*
X0088926Y0089041D01*
X0089247Y0090060D01*
X0089592Y0091071D01*
X0089963Y0092073D01*
X0090357Y0093065D01*
X0090776Y0094048D01*
X0091218Y0095020D01*
X0091685Y0095981D01*
X0092174Y0096931D01*
X0092686Y0097868D01*
X0093222Y0098792D01*
X0093779Y0099703D01*
X0094359Y0100601D01*
X0094960Y0101483D01*
X0095583Y0102351D01*
X0096227Y0103203D01*
X0096891Y0104040D01*
X0097576Y0104860D01*
X0098280Y0105663D01*
X0099004Y0106448D01*
X0099747Y0107216D01*
X0100508Y0107965D01*
X0101287Y0108696D01*
X0102084Y0109407D01*
X0102898Y0110099D01*
X0103729Y0110770D01*
X0104575Y0111421D01*
X0105438Y0112051D01*
X0106315Y0112660D01*
X0107208Y0113248D01*
X0108114Y0113813D01*
X0109034Y0114356D01*
X0109966Y0114877D01*
X0110912Y0115374D01*
X0111869Y0115848D01*
X0112837Y0116299D01*
X0113816Y0116726D01*
X0114805Y0117129D01*
X0115804Y0117508D01*
X0203264Y0206800D02*
X0203264Y0221800D01*
D13*
X0183264Y0214300D02*
X0183267Y0214545D01*
X0183276Y0214791D01*
X0183291Y0215036D01*
X0183312Y0215280D01*
X0183339Y0215524D01*
X0183372Y0215767D01*
X0183411Y0216010D01*
X0183456Y0216251D01*
X0183507Y0216491D01*
X0183564Y0216730D01*
X0183626Y0216967D01*
X0183695Y0217203D01*
X0183769Y0217437D01*
X0183849Y0217669D01*
X0183934Y0217899D01*
X0184025Y0218127D01*
X0184122Y0218352D01*
X0184224Y0218576D01*
X0184332Y0218796D01*
X0184445Y0219014D01*
X0184563Y0219229D01*
X0184687Y0219441D01*
X0184815Y0219650D01*
X0184949Y0219856D01*
X0185088Y0220058D01*
X0185232Y0220257D01*
X0185381Y0220452D01*
X0185534Y0220644D01*
X0185692Y0220832D01*
X0185854Y0221016D01*
X0186022Y0221195D01*
X0186193Y0221371D01*
X0186369Y0221542D01*
X0186548Y0221710D01*
X0186732Y0221872D01*
X0186920Y0222030D01*
X0187112Y0222183D01*
X0187307Y0222332D01*
X0187506Y0222476D01*
X0187708Y0222615D01*
X0187914Y0222749D01*
X0188123Y0222877D01*
X0188335Y0223001D01*
X0188550Y0223119D01*
X0188768Y0223232D01*
X0188988Y0223340D01*
X0189212Y0223442D01*
X0189437Y0223539D01*
X0189665Y0223630D01*
X0189895Y0223715D01*
X0190127Y0223795D01*
X0190361Y0223869D01*
X0190597Y0223938D01*
X0190834Y0224000D01*
X0191073Y0224057D01*
X0191313Y0224108D01*
X0191554Y0224153D01*
X0191797Y0224192D01*
X0192040Y0224225D01*
X0192284Y0224252D01*
X0192528Y0224273D01*
X0192773Y0224288D01*
X0193019Y0224297D01*
X0193264Y0224300D01*
X0193509Y0224297D01*
X0193755Y0224288D01*
X0194000Y0224273D01*
X0194244Y0224252D01*
X0194488Y0224225D01*
X0194731Y0224192D01*
X0194974Y0224153D01*
X0195215Y0224108D01*
X0195455Y0224057D01*
X0195694Y0224000D01*
X0195931Y0223938D01*
X0196167Y0223869D01*
X0196401Y0223795D01*
X0196633Y0223715D01*
X0196863Y0223630D01*
X0197091Y0223539D01*
X0197316Y0223442D01*
X0197540Y0223340D01*
X0197760Y0223232D01*
X0197978Y0223119D01*
X0198193Y0223001D01*
X0198405Y0222877D01*
X0198614Y0222749D01*
X0198820Y0222615D01*
X0199022Y0222476D01*
X0199221Y0222332D01*
X0199416Y0222183D01*
X0199608Y0222030D01*
X0199796Y0221872D01*
X0199980Y0221710D01*
X0200159Y0221542D01*
X0200335Y0221371D01*
X0200506Y0221195D01*
X0200674Y0221016D01*
X0200836Y0220832D01*
X0200994Y0220644D01*
X0201147Y0220452D01*
X0201296Y0220257D01*
X0201440Y0220058D01*
X0201579Y0219856D01*
X0201713Y0219650D01*
X0201841Y0219441D01*
X0201965Y0219229D01*
X0202083Y0219014D01*
X0202196Y0218796D01*
X0202304Y0218576D01*
X0202406Y0218352D01*
X0202503Y0218127D01*
X0202594Y0217899D01*
X0202679Y0217669D01*
X0202759Y0217437D01*
X0202833Y0217203D01*
X0202902Y0216967D01*
X0202964Y0216730D01*
X0203021Y0216491D01*
X0203072Y0216251D01*
X0203117Y0216010D01*
X0203156Y0215767D01*
X0203189Y0215524D01*
X0203216Y0215280D01*
X0203237Y0215036D01*
X0203252Y0214791D01*
X0203261Y0214545D01*
X0203264Y0214300D01*
X0203261Y0214055D01*
X0203252Y0213809D01*
X0203237Y0213564D01*
X0203216Y0213320D01*
X0203189Y0213076D01*
X0203156Y0212833D01*
X0203117Y0212590D01*
X0203072Y0212349D01*
X0203021Y0212109D01*
X0202964Y0211870D01*
X0202902Y0211633D01*
X0202833Y0211397D01*
X0202759Y0211163D01*
X0202679Y0210931D01*
X0202594Y0210701D01*
X0202503Y0210473D01*
X0202406Y0210248D01*
X0202304Y0210024D01*
X0202196Y0209804D01*
X0202083Y0209586D01*
X0201965Y0209371D01*
X0201841Y0209159D01*
X0201713Y0208950D01*
X0201579Y0208744D01*
X0201440Y0208542D01*
X0201296Y0208343D01*
X0201147Y0208148D01*
X0200994Y0207956D01*
X0200836Y0207768D01*
X0200674Y0207584D01*
X0200506Y0207405D01*
X0200335Y0207229D01*
X0200159Y0207058D01*
X0199980Y0206890D01*
X0199796Y0206728D01*
X0199608Y0206570D01*
X0199416Y0206417D01*
X0199221Y0206268D01*
X0199022Y0206124D01*
X0198820Y0205985D01*
X0198614Y0205851D01*
X0198405Y0205723D01*
X0198193Y0205599D01*
X0197978Y0205481D01*
X0197760Y0205368D01*
X0197540Y0205260D01*
X0197316Y0205158D01*
X0197091Y0205061D01*
X0196863Y0204970D01*
X0196633Y0204885D01*
X0196401Y0204805D01*
X0196167Y0204731D01*
X0195931Y0204662D01*
X0195694Y0204600D01*
X0195455Y0204543D01*
X0195215Y0204492D01*
X0194974Y0204447D01*
X0194731Y0204408D01*
X0194488Y0204375D01*
X0194244Y0204348D01*
X0194000Y0204327D01*
X0193755Y0204312D01*
X0193509Y0204303D01*
X0193264Y0204300D01*
X0193019Y0204303D01*
X0192773Y0204312D01*
X0192528Y0204327D01*
X0192284Y0204348D01*
X0192040Y0204375D01*
X0191797Y0204408D01*
X0191554Y0204447D01*
X0191313Y0204492D01*
X0191073Y0204543D01*
X0190834Y0204600D01*
X0190597Y0204662D01*
X0190361Y0204731D01*
X0190127Y0204805D01*
X0189895Y0204885D01*
X0189665Y0204970D01*
X0189437Y0205061D01*
X0189212Y0205158D01*
X0188988Y0205260D01*
X0188768Y0205368D01*
X0188550Y0205481D01*
X0188335Y0205599D01*
X0188123Y0205723D01*
X0187914Y0205851D01*
X0187708Y0205985D01*
X0187506Y0206124D01*
X0187307Y0206268D01*
X0187112Y0206417D01*
X0186920Y0206570D01*
X0186732Y0206728D01*
X0186548Y0206890D01*
X0186369Y0207058D01*
X0186193Y0207229D01*
X0186022Y0207405D01*
X0185854Y0207584D01*
X0185692Y0207768D01*
X0185534Y0207956D01*
X0185381Y0208148D01*
X0185232Y0208343D01*
X0185088Y0208542D01*
X0184949Y0208744D01*
X0184815Y0208950D01*
X0184687Y0209159D01*
X0184563Y0209371D01*
X0184445Y0209586D01*
X0184332Y0209804D01*
X0184224Y0210024D01*
X0184122Y0210248D01*
X0184025Y0210473D01*
X0183934Y0210701D01*
X0183849Y0210931D01*
X0183769Y0211163D01*
X0183695Y0211397D01*
X0183626Y0211633D01*
X0183564Y0211870D01*
X0183507Y0212109D01*
X0183456Y0212349D01*
X0183411Y0212590D01*
X0183372Y0212833D01*
X0183339Y0213076D01*
X0183312Y0213320D01*
X0183291Y0213564D01*
X0183276Y0213809D01*
X0183267Y0214055D01*
X0183264Y0214300D01*
X0058264Y0214300D02*
X0058267Y0214545D01*
X0058276Y0214791D01*
X0058291Y0215036D01*
X0058312Y0215280D01*
X0058339Y0215524D01*
X0058372Y0215767D01*
X0058411Y0216010D01*
X0058456Y0216251D01*
X0058507Y0216491D01*
X0058564Y0216730D01*
X0058626Y0216967D01*
X0058695Y0217203D01*
X0058769Y0217437D01*
X0058849Y0217669D01*
X0058934Y0217899D01*
X0059025Y0218127D01*
X0059122Y0218352D01*
X0059224Y0218576D01*
X0059332Y0218796D01*
X0059445Y0219014D01*
X0059563Y0219229D01*
X0059687Y0219441D01*
X0059815Y0219650D01*
X0059949Y0219856D01*
X0060088Y0220058D01*
X0060232Y0220257D01*
X0060381Y0220452D01*
X0060534Y0220644D01*
X0060692Y0220832D01*
X0060854Y0221016D01*
X0061022Y0221195D01*
X0061193Y0221371D01*
X0061369Y0221542D01*
X0061548Y0221710D01*
X0061732Y0221872D01*
X0061920Y0222030D01*
X0062112Y0222183D01*
X0062307Y0222332D01*
X0062506Y0222476D01*
X0062708Y0222615D01*
X0062914Y0222749D01*
X0063123Y0222877D01*
X0063335Y0223001D01*
X0063550Y0223119D01*
X0063768Y0223232D01*
X0063988Y0223340D01*
X0064212Y0223442D01*
X0064437Y0223539D01*
X0064665Y0223630D01*
X0064895Y0223715D01*
X0065127Y0223795D01*
X0065361Y0223869D01*
X0065597Y0223938D01*
X0065834Y0224000D01*
X0066073Y0224057D01*
X0066313Y0224108D01*
X0066554Y0224153D01*
X0066797Y0224192D01*
X0067040Y0224225D01*
X0067284Y0224252D01*
X0067528Y0224273D01*
X0067773Y0224288D01*
X0068019Y0224297D01*
X0068264Y0224300D01*
X0068509Y0224297D01*
X0068755Y0224288D01*
X0069000Y0224273D01*
X0069244Y0224252D01*
X0069488Y0224225D01*
X0069731Y0224192D01*
X0069974Y0224153D01*
X0070215Y0224108D01*
X0070455Y0224057D01*
X0070694Y0224000D01*
X0070931Y0223938D01*
X0071167Y0223869D01*
X0071401Y0223795D01*
X0071633Y0223715D01*
X0071863Y0223630D01*
X0072091Y0223539D01*
X0072316Y0223442D01*
X0072540Y0223340D01*
X0072760Y0223232D01*
X0072978Y0223119D01*
X0073193Y0223001D01*
X0073405Y0222877D01*
X0073614Y0222749D01*
X0073820Y0222615D01*
X0074022Y0222476D01*
X0074221Y0222332D01*
X0074416Y0222183D01*
X0074608Y0222030D01*
X0074796Y0221872D01*
X0074980Y0221710D01*
X0075159Y0221542D01*
X0075335Y0221371D01*
X0075506Y0221195D01*
X0075674Y0221016D01*
X0075836Y0220832D01*
X0075994Y0220644D01*
X0076147Y0220452D01*
X0076296Y0220257D01*
X0076440Y0220058D01*
X0076579Y0219856D01*
X0076713Y0219650D01*
X0076841Y0219441D01*
X0076965Y0219229D01*
X0077083Y0219014D01*
X0077196Y0218796D01*
X0077304Y0218576D01*
X0077406Y0218352D01*
X0077503Y0218127D01*
X0077594Y0217899D01*
X0077679Y0217669D01*
X0077759Y0217437D01*
X0077833Y0217203D01*
X0077902Y0216967D01*
X0077964Y0216730D01*
X0078021Y0216491D01*
X0078072Y0216251D01*
X0078117Y0216010D01*
X0078156Y0215767D01*
X0078189Y0215524D01*
X0078216Y0215280D01*
X0078237Y0215036D01*
X0078252Y0214791D01*
X0078261Y0214545D01*
X0078264Y0214300D01*
X0078261Y0214055D01*
X0078252Y0213809D01*
X0078237Y0213564D01*
X0078216Y0213320D01*
X0078189Y0213076D01*
X0078156Y0212833D01*
X0078117Y0212590D01*
X0078072Y0212349D01*
X0078021Y0212109D01*
X0077964Y0211870D01*
X0077902Y0211633D01*
X0077833Y0211397D01*
X0077759Y0211163D01*
X0077679Y0210931D01*
X0077594Y0210701D01*
X0077503Y0210473D01*
X0077406Y0210248D01*
X0077304Y0210024D01*
X0077196Y0209804D01*
X0077083Y0209586D01*
X0076965Y0209371D01*
X0076841Y0209159D01*
X0076713Y0208950D01*
X0076579Y0208744D01*
X0076440Y0208542D01*
X0076296Y0208343D01*
X0076147Y0208148D01*
X0075994Y0207956D01*
X0075836Y0207768D01*
X0075674Y0207584D01*
X0075506Y0207405D01*
X0075335Y0207229D01*
X0075159Y0207058D01*
X0074980Y0206890D01*
X0074796Y0206728D01*
X0074608Y0206570D01*
X0074416Y0206417D01*
X0074221Y0206268D01*
X0074022Y0206124D01*
X0073820Y0205985D01*
X0073614Y0205851D01*
X0073405Y0205723D01*
X0073193Y0205599D01*
X0072978Y0205481D01*
X0072760Y0205368D01*
X0072540Y0205260D01*
X0072316Y0205158D01*
X0072091Y0205061D01*
X0071863Y0204970D01*
X0071633Y0204885D01*
X0071401Y0204805D01*
X0071167Y0204731D01*
X0070931Y0204662D01*
X0070694Y0204600D01*
X0070455Y0204543D01*
X0070215Y0204492D01*
X0069974Y0204447D01*
X0069731Y0204408D01*
X0069488Y0204375D01*
X0069244Y0204348D01*
X0069000Y0204327D01*
X0068755Y0204312D01*
X0068509Y0204303D01*
X0068264Y0204300D01*
X0068019Y0204303D01*
X0067773Y0204312D01*
X0067528Y0204327D01*
X0067284Y0204348D01*
X0067040Y0204375D01*
X0066797Y0204408D01*
X0066554Y0204447D01*
X0066313Y0204492D01*
X0066073Y0204543D01*
X0065834Y0204600D01*
X0065597Y0204662D01*
X0065361Y0204731D01*
X0065127Y0204805D01*
X0064895Y0204885D01*
X0064665Y0204970D01*
X0064437Y0205061D01*
X0064212Y0205158D01*
X0063988Y0205260D01*
X0063768Y0205368D01*
X0063550Y0205481D01*
X0063335Y0205599D01*
X0063123Y0205723D01*
X0062914Y0205851D01*
X0062708Y0205985D01*
X0062506Y0206124D01*
X0062307Y0206268D01*
X0062112Y0206417D01*
X0061920Y0206570D01*
X0061732Y0206728D01*
X0061548Y0206890D01*
X0061369Y0207058D01*
X0061193Y0207229D01*
X0061022Y0207405D01*
X0060854Y0207584D01*
X0060692Y0207768D01*
X0060534Y0207956D01*
X0060381Y0208148D01*
X0060232Y0208343D01*
X0060088Y0208542D01*
X0059949Y0208744D01*
X0059815Y0208950D01*
X0059687Y0209159D01*
X0059563Y0209371D01*
X0059445Y0209586D01*
X0059332Y0209804D01*
X0059224Y0210024D01*
X0059122Y0210248D01*
X0059025Y0210473D01*
X0058934Y0210701D01*
X0058849Y0210931D01*
X0058769Y0211163D01*
X0058695Y0211397D01*
X0058626Y0211633D01*
X0058564Y0211870D01*
X0058507Y0212109D01*
X0058456Y0212349D01*
X0058411Y0212590D01*
X0058372Y0212833D01*
X0058339Y0213076D01*
X0058312Y0213320D01*
X0058291Y0213564D01*
X0058276Y0213809D01*
X0058267Y0214055D01*
X0058264Y0214300D01*
D14*
X0057935Y0206491D02*
X0058655Y0207031D01*
X0058654Y0207030D02*
X0058835Y0206797D01*
X0059021Y0206569D01*
X0059213Y0206345D01*
X0059410Y0206126D01*
X0059612Y0205912D01*
X0059820Y0205703D01*
X0060033Y0205500D01*
X0060250Y0205301D01*
X0060473Y0205108D01*
X0060700Y0204920D01*
X0060931Y0204738D01*
X0061167Y0204561D01*
X0061408Y0204391D01*
X0061652Y0204226D01*
X0061900Y0204068D01*
X0062152Y0203915D01*
X0062408Y0203769D01*
X0062667Y0203629D01*
X0062930Y0203495D01*
X0063195Y0203368D01*
X0063464Y0203247D01*
X0063736Y0203133D01*
X0064010Y0203026D01*
X0064287Y0202925D01*
X0064566Y0202831D01*
X0064848Y0202744D01*
X0065131Y0202664D01*
X0065417Y0202591D01*
X0065704Y0202525D01*
X0065993Y0202466D01*
X0066283Y0202414D01*
X0066574Y0202369D01*
X0066866Y0202331D01*
X0067159Y0202301D01*
X0067453Y0202277D01*
X0067747Y0202261D01*
X0068041Y0202252D01*
X0068336Y0202250D01*
X0068631Y0202256D01*
X0068925Y0202268D01*
X0069219Y0202288D01*
X0069512Y0202315D01*
X0069805Y0202349D01*
X0070097Y0202390D01*
X0070387Y0202439D01*
X0070677Y0202494D01*
X0070964Y0202556D01*
X0071251Y0202626D01*
X0071535Y0202703D01*
X0071818Y0202786D01*
X0072098Y0202876D01*
X0072376Y0202973D01*
X0072652Y0203077D01*
X0072925Y0203188D01*
X0073195Y0203305D01*
X0073463Y0203429D01*
X0073727Y0203559D01*
X0073988Y0203696D01*
X0074245Y0203839D01*
X0074499Y0203989D01*
X0074750Y0204144D01*
X0074996Y0204306D01*
X0075238Y0204473D01*
X0075476Y0204647D01*
X0075710Y0204826D01*
X0075940Y0205011D01*
X0076164Y0205201D01*
X0076385Y0205397D01*
X0076600Y0205598D01*
X0076810Y0205805D01*
X0077015Y0206016D01*
X0077215Y0206233D01*
X0077410Y0206454D01*
X0077599Y0206680D01*
X0077782Y0206910D01*
X0077960Y0207145D01*
X0078132Y0207385D01*
X0078298Y0207628D01*
X0078458Y0207875D01*
X0078612Y0208126D01*
X0078760Y0208381D01*
X0078902Y0208640D01*
X0079037Y0208901D01*
X0079166Y0209166D01*
X0079288Y0209434D01*
X0079404Y0209705D01*
X0079513Y0209979D01*
X0079615Y0210255D01*
X0079710Y0210534D01*
X0079799Y0210815D01*
X0079881Y0211098D01*
X0079956Y0211383D01*
X0080023Y0211670D01*
X0080084Y0211958D01*
X0080138Y0212248D01*
X0080185Y0212539D01*
X0080224Y0212831D01*
X0080256Y0213123D01*
X0080282Y0213417D01*
X0080300Y0213711D01*
X0080310Y0214005D01*
X0080314Y0214300D01*
X0080310Y0214595D01*
X0080300Y0214889D01*
X0080282Y0215183D01*
X0080256Y0215477D01*
X0080224Y0215769D01*
X0080185Y0216061D01*
X0080138Y0216352D01*
X0080084Y0216642D01*
X0080023Y0216930D01*
X0079956Y0217217D01*
X0079881Y0217502D01*
X0079799Y0217785D01*
X0079710Y0218066D01*
X0079615Y0218345D01*
X0079513Y0218621D01*
X0079404Y0218895D01*
X0079288Y0219166D01*
X0079166Y0219434D01*
X0079037Y0219699D01*
X0078902Y0219960D01*
X0078760Y0220219D01*
X0078612Y0220474D01*
X0078458Y0220725D01*
X0078298Y0220972D01*
X0078132Y0221215D01*
X0077960Y0221455D01*
X0077782Y0221690D01*
X0077599Y0221920D01*
X0077410Y0222146D01*
X0077215Y0222367D01*
X0077015Y0222584D01*
X0076810Y0222795D01*
X0076600Y0223002D01*
X0076385Y0223203D01*
X0076164Y0223399D01*
X0075940Y0223589D01*
X0075710Y0223774D01*
X0075476Y0223953D01*
X0075238Y0224127D01*
X0074996Y0224294D01*
X0074750Y0224456D01*
X0074499Y0224611D01*
X0074245Y0224761D01*
X0073988Y0224904D01*
X0073727Y0225041D01*
X0073463Y0225171D01*
X0073195Y0225295D01*
X0072925Y0225412D01*
X0072652Y0225523D01*
X0072376Y0225627D01*
X0072098Y0225724D01*
X0071818Y0225814D01*
X0071535Y0225897D01*
X0071251Y0225974D01*
X0070964Y0226044D01*
X0070677Y0226106D01*
X0070387Y0226161D01*
X0070097Y0226210D01*
X0069805Y0226251D01*
X0069512Y0226285D01*
X0069219Y0226312D01*
X0068925Y0226332D01*
X0068631Y0226344D01*
X0068336Y0226350D01*
X0068041Y0226348D01*
X0067747Y0226339D01*
X0067453Y0226323D01*
X0067159Y0226299D01*
X0066866Y0226269D01*
X0066574Y0226231D01*
X0066283Y0226186D01*
X0065993Y0226134D01*
X0065704Y0226075D01*
X0065417Y0226009D01*
X0065131Y0225936D01*
X0064848Y0225856D01*
X0064566Y0225769D01*
X0064287Y0225675D01*
X0064010Y0225574D01*
X0063736Y0225467D01*
X0063464Y0225353D01*
X0063195Y0225232D01*
X0062930Y0225105D01*
X0062667Y0224971D01*
X0062408Y0224831D01*
X0062152Y0224685D01*
X0061900Y0224532D01*
X0061652Y0224374D01*
X0061408Y0224209D01*
X0061167Y0224039D01*
X0060931Y0223862D01*
X0060700Y0223680D01*
X0060473Y0223492D01*
X0060250Y0223299D01*
X0060033Y0223100D01*
X0059820Y0222897D01*
X0059612Y0222688D01*
X0059410Y0222474D01*
X0059213Y0222255D01*
X0059021Y0222031D01*
X0058835Y0221803D01*
X0058654Y0221570D01*
X0057935Y0222109D01*
X0057934Y0222110D01*
X0058128Y0222360D01*
X0058328Y0222606D01*
X0058534Y0222846D01*
X0058746Y0223081D01*
X0058964Y0223311D01*
X0059187Y0223536D01*
X0059415Y0223755D01*
X0059649Y0223969D01*
X0059888Y0224177D01*
X0060132Y0224379D01*
X0060381Y0224574D01*
X0060635Y0224764D01*
X0060893Y0224947D01*
X0061155Y0225124D01*
X0061422Y0225295D01*
X0061693Y0225459D01*
X0061968Y0225616D01*
X0062246Y0225767D01*
X0062529Y0225911D01*
X0062814Y0226047D01*
X0063103Y0226177D01*
X0063395Y0226300D01*
X0063690Y0226415D01*
X0063987Y0226523D01*
X0064288Y0226624D01*
X0064590Y0226718D01*
X0064895Y0226804D01*
X0065202Y0226883D01*
X0065510Y0226954D01*
X0065820Y0227017D01*
X0066132Y0227073D01*
X0066445Y0227122D01*
X0066759Y0227162D01*
X0067074Y0227195D01*
X0067390Y0227220D01*
X0067706Y0227238D01*
X0068022Y0227248D01*
X0068339Y0227250D01*
X0068656Y0227244D01*
X0068972Y0227231D01*
X0069288Y0227209D01*
X0069603Y0227181D01*
X0069918Y0227144D01*
X0070231Y0227100D01*
X0070544Y0227048D01*
X0070855Y0226988D01*
X0071164Y0226921D01*
X0071472Y0226846D01*
X0071778Y0226764D01*
X0072081Y0226675D01*
X0072383Y0226578D01*
X0072682Y0226473D01*
X0072978Y0226361D01*
X0073272Y0226243D01*
X0073562Y0226117D01*
X0073849Y0225984D01*
X0074134Y0225843D01*
X0074414Y0225696D01*
X0074691Y0225543D01*
X0074964Y0225382D01*
X0075233Y0225215D01*
X0075498Y0225041D01*
X0075758Y0224861D01*
X0076014Y0224675D01*
X0076265Y0224482D01*
X0076512Y0224284D01*
X0076754Y0224079D01*
X0076990Y0223869D01*
X0077222Y0223652D01*
X0077447Y0223430D01*
X0077668Y0223203D01*
X0077883Y0222971D01*
X0078092Y0222733D01*
X0078295Y0222490D01*
X0078493Y0222242D01*
X0078684Y0221990D01*
X0078869Y0221733D01*
X0079047Y0221471D01*
X0079219Y0221205D01*
X0079385Y0220936D01*
X0079544Y0220662D01*
X0079696Y0220384D01*
X0079841Y0220103D01*
X0079980Y0219818D01*
X0080111Y0219530D01*
X0080235Y0219238D01*
X0080353Y0218944D01*
X0080463Y0218647D01*
X0080565Y0218348D01*
X0080660Y0218046D01*
X0080748Y0217742D01*
X0080829Y0217435D01*
X0080902Y0217127D01*
X0080967Y0216817D01*
X0081025Y0216506D01*
X0081075Y0216193D01*
X0081117Y0215879D01*
X0081152Y0215565D01*
X0081179Y0215249D01*
X0081199Y0214933D01*
X0081210Y0214617D01*
X0081214Y0214300D01*
X0081210Y0213983D01*
X0081199Y0213667D01*
X0081179Y0213351D01*
X0081152Y0213035D01*
X0081117Y0212721D01*
X0081075Y0212407D01*
X0081025Y0212094D01*
X0080967Y0211783D01*
X0080902Y0211473D01*
X0080829Y0211165D01*
X0080748Y0210858D01*
X0080660Y0210554D01*
X0080565Y0210252D01*
X0080463Y0209953D01*
X0080353Y0209656D01*
X0080235Y0209362D01*
X0080111Y0209070D01*
X0079980Y0208782D01*
X0079841Y0208497D01*
X0079696Y0208216D01*
X0079544Y0207938D01*
X0079385Y0207664D01*
X0079219Y0207395D01*
X0079047Y0207129D01*
X0078869Y0206867D01*
X0078684Y0206610D01*
X0078493Y0206358D01*
X0078295Y0206110D01*
X0078092Y0205867D01*
X0077883Y0205629D01*
X0077668Y0205397D01*
X0077447Y0205170D01*
X0077222Y0204948D01*
X0076990Y0204731D01*
X0076754Y0204521D01*
X0076512Y0204316D01*
X0076265Y0204118D01*
X0076014Y0203925D01*
X0075758Y0203739D01*
X0075498Y0203559D01*
X0075233Y0203385D01*
X0074964Y0203218D01*
X0074691Y0203057D01*
X0074414Y0202904D01*
X0074134Y0202757D01*
X0073849Y0202616D01*
X0073562Y0202483D01*
X0073272Y0202357D01*
X0072978Y0202239D01*
X0072682Y0202127D01*
X0072383Y0202022D01*
X0072081Y0201925D01*
X0071778Y0201836D01*
X0071472Y0201754D01*
X0071164Y0201679D01*
X0070855Y0201612D01*
X0070544Y0201552D01*
X0070231Y0201500D01*
X0069918Y0201456D01*
X0069603Y0201419D01*
X0069288Y0201391D01*
X0068972Y0201369D01*
X0068656Y0201356D01*
X0068339Y0201350D01*
X0068022Y0201352D01*
X0067706Y0201362D01*
X0067390Y0201380D01*
X0067074Y0201405D01*
X0066759Y0201438D01*
X0066445Y0201478D01*
X0066132Y0201527D01*
X0065820Y0201583D01*
X0065510Y0201646D01*
X0065202Y0201717D01*
X0064895Y0201796D01*
X0064590Y0201882D01*
X0064288Y0201976D01*
X0063987Y0202077D01*
X0063690Y0202185D01*
X0063395Y0202300D01*
X0063103Y0202423D01*
X0062814Y0202553D01*
X0062529Y0202689D01*
X0062246Y0202833D01*
X0061968Y0202984D01*
X0061693Y0203141D01*
X0061422Y0203305D01*
X0061155Y0203476D01*
X0060893Y0203653D01*
X0060635Y0203836D01*
X0060381Y0204026D01*
X0060132Y0204221D01*
X0059888Y0204423D01*
X0059649Y0204631D01*
X0059415Y0204845D01*
X0059187Y0205064D01*
X0058964Y0205289D01*
X0058746Y0205519D01*
X0058534Y0205754D01*
X0058328Y0205994D01*
X0058128Y0206240D01*
X0057934Y0206490D01*
X0058009Y0206546D01*
X0058202Y0206298D01*
X0058401Y0206054D01*
X0058605Y0205816D01*
X0058815Y0205582D01*
X0059031Y0205354D01*
X0059253Y0205131D01*
X0059480Y0204913D01*
X0059712Y0204701D01*
X0059949Y0204495D01*
X0060191Y0204294D01*
X0060439Y0204100D01*
X0060690Y0203912D01*
X0060947Y0203730D01*
X0061207Y0203554D01*
X0061472Y0203385D01*
X0061741Y0203222D01*
X0062014Y0203066D01*
X0062290Y0202916D01*
X0062570Y0202774D01*
X0062854Y0202638D01*
X0063141Y0202509D01*
X0063431Y0202387D01*
X0063723Y0202273D01*
X0064019Y0202165D01*
X0064317Y0202065D01*
X0064617Y0201972D01*
X0064920Y0201887D01*
X0065224Y0201809D01*
X0065530Y0201738D01*
X0065838Y0201675D01*
X0066148Y0201619D01*
X0066458Y0201571D01*
X0066770Y0201531D01*
X0067083Y0201498D01*
X0067396Y0201473D01*
X0067710Y0201456D01*
X0068024Y0201446D01*
X0068339Y0201444D01*
X0068653Y0201450D01*
X0068967Y0201463D01*
X0069281Y0201484D01*
X0069594Y0201513D01*
X0069906Y0201549D01*
X0070217Y0201593D01*
X0070527Y0201645D01*
X0070836Y0201704D01*
X0071143Y0201771D01*
X0071449Y0201845D01*
X0071752Y0201926D01*
X0072054Y0202015D01*
X0072353Y0202112D01*
X0072650Y0202215D01*
X0072944Y0202326D01*
X0073235Y0202444D01*
X0073524Y0202569D01*
X0073809Y0202701D01*
X0074091Y0202840D01*
X0074369Y0202986D01*
X0074644Y0203139D01*
X0074915Y0203298D01*
X0075182Y0203464D01*
X0075445Y0203637D01*
X0075704Y0203815D01*
X0075958Y0204000D01*
X0076207Y0204192D01*
X0076452Y0204389D01*
X0076692Y0204592D01*
X0076927Y0204801D01*
X0077157Y0205016D01*
X0077381Y0205236D01*
X0077600Y0205461D01*
X0077813Y0205692D01*
X0078021Y0205928D01*
X0078223Y0206170D01*
X0078418Y0206415D01*
X0078608Y0206666D01*
X0078792Y0206921D01*
X0078969Y0207181D01*
X0079140Y0207445D01*
X0079304Y0207713D01*
X0079462Y0207985D01*
X0079613Y0208260D01*
X0079757Y0208540D01*
X0079895Y0208822D01*
X0080025Y0209108D01*
X0080149Y0209397D01*
X0080265Y0209690D01*
X0080374Y0209984D01*
X0080476Y0210282D01*
X0080570Y0210581D01*
X0080658Y0210884D01*
X0080738Y0211188D01*
X0080810Y0211493D01*
X0080875Y0211801D01*
X0080932Y0212110D01*
X0080982Y0212421D01*
X0081024Y0212732D01*
X0081059Y0213045D01*
X0081085Y0213358D01*
X0081105Y0213672D01*
X0081116Y0213986D01*
X0081120Y0214300D01*
X0081116Y0214614D01*
X0081105Y0214928D01*
X0081085Y0215242D01*
X0081059Y0215555D01*
X0081024Y0215868D01*
X0080982Y0216179D01*
X0080932Y0216490D01*
X0080875Y0216799D01*
X0080810Y0217107D01*
X0080738Y0217412D01*
X0080658Y0217716D01*
X0080570Y0218019D01*
X0080476Y0218318D01*
X0080374Y0218616D01*
X0080265Y0218910D01*
X0080149Y0219203D01*
X0080025Y0219492D01*
X0079895Y0219778D01*
X0079757Y0220060D01*
X0079613Y0220340D01*
X0079462Y0220615D01*
X0079304Y0220887D01*
X0079140Y0221155D01*
X0078969Y0221419D01*
X0078792Y0221679D01*
X0078608Y0221934D01*
X0078418Y0222185D01*
X0078223Y0222430D01*
X0078021Y0222672D01*
X0077813Y0222908D01*
X0077600Y0223139D01*
X0077381Y0223364D01*
X0077157Y0223584D01*
X0076927Y0223799D01*
X0076692Y0224008D01*
X0076452Y0224211D01*
X0076207Y0224408D01*
X0075958Y0224600D01*
X0075704Y0224785D01*
X0075445Y0224963D01*
X0075182Y0225136D01*
X0074915Y0225302D01*
X0074644Y0225461D01*
X0074369Y0225614D01*
X0074091Y0225760D01*
X0073809Y0225899D01*
X0073524Y0226031D01*
X0073235Y0226156D01*
X0072944Y0226274D01*
X0072650Y0226385D01*
X0072353Y0226488D01*
X0072054Y0226585D01*
X0071752Y0226674D01*
X0071449Y0226755D01*
X0071143Y0226829D01*
X0070836Y0226896D01*
X0070527Y0226955D01*
X0070217Y0227007D01*
X0069906Y0227051D01*
X0069594Y0227087D01*
X0069281Y0227116D01*
X0068967Y0227137D01*
X0068653Y0227150D01*
X0068339Y0227156D01*
X0068024Y0227154D01*
X0067710Y0227144D01*
X0067396Y0227127D01*
X0067083Y0227102D01*
X0066770Y0227069D01*
X0066458Y0227029D01*
X0066148Y0226981D01*
X0065838Y0226925D01*
X0065530Y0226862D01*
X0065224Y0226791D01*
X0064920Y0226713D01*
X0064617Y0226628D01*
X0064317Y0226535D01*
X0064019Y0226435D01*
X0063723Y0226327D01*
X0063431Y0226213D01*
X0063141Y0226091D01*
X0062854Y0225962D01*
X0062570Y0225826D01*
X0062290Y0225684D01*
X0062014Y0225534D01*
X0061741Y0225378D01*
X0061472Y0225215D01*
X0061207Y0225046D01*
X0060947Y0224870D01*
X0060690Y0224688D01*
X0060439Y0224500D01*
X0060191Y0224306D01*
X0059949Y0224105D01*
X0059712Y0223899D01*
X0059480Y0223687D01*
X0059253Y0223469D01*
X0059031Y0223246D01*
X0058815Y0223018D01*
X0058605Y0222784D01*
X0058401Y0222546D01*
X0058202Y0222302D01*
X0058009Y0222054D01*
X0058084Y0221997D01*
X0058276Y0222244D01*
X0058473Y0222486D01*
X0058676Y0222723D01*
X0058885Y0222954D01*
X0059099Y0223181D01*
X0059319Y0223403D01*
X0059544Y0223619D01*
X0059775Y0223829D01*
X0060010Y0224034D01*
X0060251Y0224233D01*
X0060496Y0224426D01*
X0060746Y0224612D01*
X0061000Y0224793D01*
X0061259Y0224968D01*
X0061522Y0225136D01*
X0061789Y0225297D01*
X0062060Y0225452D01*
X0062334Y0225601D01*
X0062612Y0225742D01*
X0062894Y0225877D01*
X0063178Y0226005D01*
X0063466Y0226126D01*
X0063757Y0226240D01*
X0064050Y0226346D01*
X0064346Y0226446D01*
X0064644Y0226538D01*
X0064944Y0226623D01*
X0065247Y0226700D01*
X0065551Y0226770D01*
X0065856Y0226833D01*
X0066163Y0226888D01*
X0066472Y0226936D01*
X0066781Y0226976D01*
X0067092Y0227008D01*
X0067403Y0227033D01*
X0067714Y0227050D01*
X0068026Y0227060D01*
X0068338Y0227062D01*
X0068650Y0227056D01*
X0068962Y0227043D01*
X0069273Y0227022D01*
X0069584Y0226994D01*
X0069894Y0226957D01*
X0070203Y0226914D01*
X0070511Y0226863D01*
X0070818Y0226804D01*
X0071122Y0226738D01*
X0071426Y0226664D01*
X0071727Y0226583D01*
X0072026Y0226495D01*
X0072323Y0226399D01*
X0072618Y0226296D01*
X0072910Y0226186D01*
X0073199Y0226069D01*
X0073486Y0225945D01*
X0073769Y0225814D01*
X0074049Y0225676D01*
X0074325Y0225531D01*
X0074598Y0225379D01*
X0074867Y0225221D01*
X0075132Y0225056D01*
X0075393Y0224885D01*
X0075649Y0224708D01*
X0075902Y0224524D01*
X0076149Y0224334D01*
X0076392Y0224139D01*
X0076631Y0223937D01*
X0076864Y0223729D01*
X0077092Y0223516D01*
X0077314Y0223298D01*
X0077532Y0223074D01*
X0077743Y0222845D01*
X0077949Y0222610D01*
X0078150Y0222371D01*
X0078344Y0222127D01*
X0078532Y0221878D01*
X0078715Y0221625D01*
X0078891Y0221367D01*
X0079060Y0221105D01*
X0079223Y0220839D01*
X0079380Y0220569D01*
X0079530Y0220295D01*
X0079673Y0220018D01*
X0079810Y0219738D01*
X0079939Y0219454D01*
X0080062Y0219167D01*
X0080177Y0218877D01*
X0080285Y0218584D01*
X0080387Y0218289D01*
X0080481Y0217991D01*
X0080567Y0217691D01*
X0080646Y0217390D01*
X0080718Y0217086D01*
X0080783Y0216781D01*
X0080840Y0216474D01*
X0080889Y0216166D01*
X0080931Y0215856D01*
X0080965Y0215546D01*
X0080992Y0215235D01*
X0081011Y0214924D01*
X0081022Y0214612D01*
X0081026Y0214300D01*
X0081022Y0213988D01*
X0081011Y0213676D01*
X0080992Y0213365D01*
X0080965Y0213054D01*
X0080931Y0212744D01*
X0080889Y0212434D01*
X0080840Y0212126D01*
X0080783Y0211819D01*
X0080718Y0211514D01*
X0080646Y0211210D01*
X0080567Y0210909D01*
X0080481Y0210609D01*
X0080387Y0210311D01*
X0080285Y0210016D01*
X0080177Y0209723D01*
X0080062Y0209433D01*
X0079939Y0209146D01*
X0079810Y0208862D01*
X0079673Y0208582D01*
X0079530Y0208305D01*
X0079380Y0208031D01*
X0079223Y0207761D01*
X0079060Y0207495D01*
X0078891Y0207233D01*
X0078715Y0206975D01*
X0078532Y0206722D01*
X0078344Y0206473D01*
X0078150Y0206229D01*
X0077949Y0205990D01*
X0077743Y0205755D01*
X0077532Y0205526D01*
X0077314Y0205302D01*
X0077092Y0205084D01*
X0076864Y0204871D01*
X0076631Y0204663D01*
X0076392Y0204461D01*
X0076149Y0204266D01*
X0075902Y0204076D01*
X0075649Y0203892D01*
X0075393Y0203715D01*
X0075132Y0203544D01*
X0074867Y0203379D01*
X0074598Y0203221D01*
X0074325Y0203069D01*
X0074049Y0202924D01*
X0073769Y0202786D01*
X0073486Y0202655D01*
X0073199Y0202531D01*
X0072910Y0202414D01*
X0072618Y0202304D01*
X0072323Y0202201D01*
X0072026Y0202105D01*
X0071727Y0202017D01*
X0071426Y0201936D01*
X0071122Y0201862D01*
X0070818Y0201796D01*
X0070511Y0201737D01*
X0070203Y0201686D01*
X0069894Y0201643D01*
X0069584Y0201606D01*
X0069273Y0201578D01*
X0068962Y0201557D01*
X0068650Y0201544D01*
X0068338Y0201538D01*
X0068026Y0201540D01*
X0067714Y0201550D01*
X0067403Y0201567D01*
X0067092Y0201592D01*
X0066781Y0201624D01*
X0066472Y0201664D01*
X0066163Y0201712D01*
X0065856Y0201767D01*
X0065551Y0201830D01*
X0065247Y0201900D01*
X0064944Y0201977D01*
X0064644Y0202062D01*
X0064346Y0202154D01*
X0064050Y0202254D01*
X0063757Y0202360D01*
X0063466Y0202474D01*
X0063178Y0202595D01*
X0062894Y0202723D01*
X0062612Y0202858D01*
X0062334Y0202999D01*
X0062060Y0203148D01*
X0061789Y0203303D01*
X0061522Y0203464D01*
X0061259Y0203632D01*
X0061000Y0203807D01*
X0060746Y0203988D01*
X0060496Y0204174D01*
X0060251Y0204367D01*
X0060010Y0204566D01*
X0059775Y0204771D01*
X0059544Y0204981D01*
X0059319Y0205197D01*
X0059099Y0205419D01*
X0058885Y0205646D01*
X0058676Y0205877D01*
X0058473Y0206114D01*
X0058276Y0206356D01*
X0058084Y0206603D01*
X0058160Y0206659D01*
X0058350Y0206414D01*
X0058545Y0206174D01*
X0058747Y0205939D01*
X0058954Y0205709D01*
X0059167Y0205484D01*
X0059385Y0205264D01*
X0059609Y0205050D01*
X0059838Y0204841D01*
X0060071Y0204638D01*
X0060310Y0204440D01*
X0060553Y0204249D01*
X0060802Y0204063D01*
X0061054Y0203884D01*
X0061311Y0203711D01*
X0061572Y0203544D01*
X0061837Y0203383D01*
X0062106Y0203230D01*
X0062378Y0203082D01*
X0062654Y0202942D01*
X0062934Y0202808D01*
X0063216Y0202681D01*
X0063502Y0202561D01*
X0063790Y0202448D01*
X0064081Y0202342D01*
X0064375Y0202244D01*
X0064671Y0202152D01*
X0064969Y0202068D01*
X0065269Y0201991D01*
X0065571Y0201922D01*
X0065874Y0201859D01*
X0066179Y0201805D01*
X0066485Y0201757D01*
X0066793Y0201718D01*
X0067101Y0201686D01*
X0067409Y0201661D01*
X0067719Y0201644D01*
X0068028Y0201634D01*
X0068338Y0201632D01*
X0068648Y0201638D01*
X0068957Y0201651D01*
X0069266Y0201672D01*
X0069575Y0201700D01*
X0069882Y0201736D01*
X0070189Y0201779D01*
X0070495Y0201830D01*
X0070799Y0201888D01*
X0071102Y0201954D01*
X0071403Y0202027D01*
X0071702Y0202107D01*
X0071999Y0202195D01*
X0072294Y0202290D01*
X0072586Y0202392D01*
X0072876Y0202501D01*
X0073163Y0202618D01*
X0073447Y0202741D01*
X0073728Y0202871D01*
X0074006Y0203008D01*
X0074280Y0203152D01*
X0074551Y0203302D01*
X0074818Y0203459D01*
X0075081Y0203623D01*
X0075340Y0203793D01*
X0075595Y0203969D01*
X0075846Y0204151D01*
X0076091Y0204340D01*
X0076333Y0204534D01*
X0076569Y0204734D01*
X0076800Y0204940D01*
X0077027Y0205152D01*
X0077248Y0205369D01*
X0077463Y0205591D01*
X0077674Y0205818D01*
X0077878Y0206051D01*
X0078077Y0206289D01*
X0078270Y0206531D01*
X0078457Y0206778D01*
X0078638Y0207029D01*
X0078812Y0207285D01*
X0078981Y0207545D01*
X0079143Y0207809D01*
X0079298Y0208077D01*
X0079447Y0208349D01*
X0079589Y0208624D01*
X0079725Y0208903D01*
X0079853Y0209184D01*
X0079975Y0209469D01*
X0080089Y0209757D01*
X0080197Y0210048D01*
X0080297Y0210341D01*
X0080391Y0210636D01*
X0080477Y0210934D01*
X0080555Y0211233D01*
X0080626Y0211535D01*
X0080690Y0211838D01*
X0080747Y0212142D01*
X0080796Y0212448D01*
X0080837Y0212755D01*
X0080871Y0213063D01*
X0080898Y0213372D01*
X0080917Y0213681D01*
X0080928Y0213990D01*
X0080932Y0214300D01*
X0080928Y0214610D01*
X0080917Y0214919D01*
X0080898Y0215228D01*
X0080871Y0215537D01*
X0080837Y0215845D01*
X0080796Y0216152D01*
X0080747Y0216458D01*
X0080690Y0216762D01*
X0080626Y0217065D01*
X0080555Y0217367D01*
X0080477Y0217666D01*
X0080391Y0217964D01*
X0080297Y0218259D01*
X0080197Y0218552D01*
X0080089Y0218843D01*
X0079975Y0219131D01*
X0079853Y0219416D01*
X0079725Y0219697D01*
X0079589Y0219976D01*
X0079447Y0220251D01*
X0079298Y0220523D01*
X0079143Y0220791D01*
X0078981Y0221055D01*
X0078812Y0221315D01*
X0078638Y0221571D01*
X0078457Y0221822D01*
X0078270Y0222069D01*
X0078077Y0222311D01*
X0077878Y0222549D01*
X0077674Y0222782D01*
X0077463Y0223009D01*
X0077248Y0223231D01*
X0077027Y0223448D01*
X0076800Y0223660D01*
X0076569Y0223866D01*
X0076333Y0224066D01*
X0076091Y0224260D01*
X0075846Y0224449D01*
X0075595Y0224631D01*
X0075340Y0224807D01*
X0075081Y0224977D01*
X0074818Y0225141D01*
X0074551Y0225298D01*
X0074280Y0225448D01*
X0074006Y0225592D01*
X0073728Y0225729D01*
X0073447Y0225859D01*
X0073163Y0225982D01*
X0072876Y0226099D01*
X0072586Y0226208D01*
X0072294Y0226310D01*
X0071999Y0226405D01*
X0071702Y0226493D01*
X0071403Y0226573D01*
X0071102Y0226646D01*
X0070799Y0226712D01*
X0070495Y0226770D01*
X0070189Y0226821D01*
X0069882Y0226864D01*
X0069575Y0226900D01*
X0069266Y0226928D01*
X0068957Y0226949D01*
X0068648Y0226962D01*
X0068338Y0226968D01*
X0068028Y0226966D01*
X0067719Y0226956D01*
X0067409Y0226939D01*
X0067101Y0226914D01*
X0066793Y0226882D01*
X0066485Y0226843D01*
X0066179Y0226795D01*
X0065874Y0226741D01*
X0065571Y0226678D01*
X0065269Y0226609D01*
X0064969Y0226532D01*
X0064671Y0226448D01*
X0064375Y0226356D01*
X0064081Y0226258D01*
X0063790Y0226152D01*
X0063502Y0226039D01*
X0063216Y0225919D01*
X0062934Y0225792D01*
X0062654Y0225658D01*
X0062378Y0225518D01*
X0062106Y0225370D01*
X0061837Y0225217D01*
X0061572Y0225056D01*
X0061311Y0224889D01*
X0061054Y0224716D01*
X0060802Y0224537D01*
X0060553Y0224351D01*
X0060310Y0224160D01*
X0060071Y0223962D01*
X0059838Y0223759D01*
X0059609Y0223550D01*
X0059385Y0223336D01*
X0059167Y0223116D01*
X0058954Y0222891D01*
X0058747Y0222661D01*
X0058545Y0222426D01*
X0058350Y0222186D01*
X0058160Y0221941D01*
X0058235Y0221884D01*
X0058423Y0222127D01*
X0058618Y0222366D01*
X0058818Y0222599D01*
X0059023Y0222827D01*
X0059235Y0223051D01*
X0059451Y0223269D01*
X0059673Y0223482D01*
X0059900Y0223689D01*
X0060132Y0223891D01*
X0060369Y0224087D01*
X0060611Y0224277D01*
X0060857Y0224461D01*
X0061108Y0224639D01*
X0061363Y0224811D01*
X0061622Y0224976D01*
X0061885Y0225136D01*
X0062152Y0225288D01*
X0062422Y0225435D01*
X0062696Y0225574D01*
X0062973Y0225707D01*
X0063254Y0225833D01*
X0063537Y0225952D01*
X0063824Y0226064D01*
X0064113Y0226169D01*
X0064404Y0226267D01*
X0064698Y0226358D01*
X0064994Y0226441D01*
X0065291Y0226518D01*
X0065591Y0226587D01*
X0065892Y0226648D01*
X0066195Y0226703D01*
X0066499Y0226749D01*
X0066804Y0226789D01*
X0067109Y0226821D01*
X0067416Y0226845D01*
X0067723Y0226862D01*
X0068030Y0226872D01*
X0068338Y0226874D01*
X0068645Y0226868D01*
X0068952Y0226855D01*
X0069259Y0226835D01*
X0069565Y0226806D01*
X0069871Y0226771D01*
X0070175Y0226728D01*
X0070478Y0226677D01*
X0070780Y0226620D01*
X0071081Y0226554D01*
X0071380Y0226482D01*
X0071676Y0226402D01*
X0071971Y0226315D01*
X0072264Y0226221D01*
X0072554Y0226119D01*
X0072842Y0226011D01*
X0073127Y0225896D01*
X0073409Y0225773D01*
X0073688Y0225644D01*
X0073964Y0225508D01*
X0074236Y0225365D01*
X0074505Y0225216D01*
X0074770Y0225060D01*
X0075031Y0224898D01*
X0075288Y0224729D01*
X0075541Y0224554D01*
X0075789Y0224373D01*
X0076033Y0224186D01*
X0076273Y0223993D01*
X0076507Y0223795D01*
X0076737Y0223590D01*
X0076962Y0223380D01*
X0077181Y0223165D01*
X0077395Y0222944D01*
X0077604Y0222719D01*
X0077807Y0222488D01*
X0078004Y0222252D01*
X0078196Y0222011D01*
X0078381Y0221766D01*
X0078561Y0221517D01*
X0078734Y0221263D01*
X0078901Y0221005D01*
X0079062Y0220743D01*
X0079216Y0220477D01*
X0079364Y0220207D01*
X0079505Y0219934D01*
X0079640Y0219657D01*
X0079767Y0219378D01*
X0079888Y0219095D01*
X0080002Y0218809D01*
X0080108Y0218521D01*
X0080208Y0218230D01*
X0080301Y0217937D01*
X0080386Y0217641D01*
X0080464Y0217344D01*
X0080535Y0217045D01*
X0080598Y0216744D01*
X0080654Y0216442D01*
X0080703Y0216138D01*
X0080744Y0215833D01*
X0080778Y0215528D01*
X0080804Y0215222D01*
X0080823Y0214915D01*
X0080834Y0214607D01*
X0080838Y0214300D01*
X0080834Y0213993D01*
X0080823Y0213685D01*
X0080804Y0213378D01*
X0080778Y0213072D01*
X0080744Y0212767D01*
X0080703Y0212462D01*
X0080654Y0212158D01*
X0080598Y0211856D01*
X0080535Y0211555D01*
X0080464Y0211256D01*
X0080386Y0210959D01*
X0080301Y0210663D01*
X0080208Y0210370D01*
X0080108Y0210079D01*
X0080002Y0209791D01*
X0079888Y0209505D01*
X0079767Y0209222D01*
X0079640Y0208943D01*
X0079505Y0208666D01*
X0079364Y0208393D01*
X0079216Y0208123D01*
X0079062Y0207857D01*
X0078901Y0207595D01*
X0078734Y0207337D01*
X0078561Y0207083D01*
X0078381Y0206834D01*
X0078196Y0206589D01*
X0078004Y0206348D01*
X0077807Y0206112D01*
X0077604Y0205881D01*
X0077395Y0205656D01*
X0077181Y0205435D01*
X0076962Y0205220D01*
X0076737Y0205010D01*
X0076507Y0204805D01*
X0076273Y0204607D01*
X0076033Y0204414D01*
X0075789Y0204227D01*
X0075541Y0204046D01*
X0075288Y0203871D01*
X0075031Y0203702D01*
X0074770Y0203540D01*
X0074505Y0203384D01*
X0074236Y0203235D01*
X0073964Y0203092D01*
X0073688Y0202956D01*
X0073409Y0202827D01*
X0073127Y0202704D01*
X0072842Y0202589D01*
X0072554Y0202481D01*
X0072264Y0202379D01*
X0071971Y0202285D01*
X0071676Y0202198D01*
X0071380Y0202118D01*
X0071081Y0202046D01*
X0070780Y0201980D01*
X0070478Y0201923D01*
X0070175Y0201872D01*
X0069871Y0201829D01*
X0069565Y0201794D01*
X0069259Y0201765D01*
X0068952Y0201745D01*
X0068645Y0201732D01*
X0068338Y0201726D01*
X0068030Y0201728D01*
X0067723Y0201738D01*
X0067416Y0201755D01*
X0067109Y0201779D01*
X0066804Y0201811D01*
X0066499Y0201851D01*
X0066195Y0201897D01*
X0065892Y0201952D01*
X0065591Y0202013D01*
X0065291Y0202082D01*
X0064994Y0202159D01*
X0064698Y0202242D01*
X0064404Y0202333D01*
X0064113Y0202431D01*
X0063824Y0202536D01*
X0063537Y0202648D01*
X0063254Y0202767D01*
X0062973Y0202893D01*
X0062696Y0203026D01*
X0062422Y0203165D01*
X0062152Y0203312D01*
X0061885Y0203464D01*
X0061622Y0203624D01*
X0061363Y0203789D01*
X0061108Y0203961D01*
X0060857Y0204139D01*
X0060611Y0204323D01*
X0060369Y0204513D01*
X0060132Y0204709D01*
X0059900Y0204911D01*
X0059673Y0205118D01*
X0059451Y0205331D01*
X0059235Y0205549D01*
X0059023Y0205773D01*
X0058818Y0206001D01*
X0058618Y0206234D01*
X0058423Y0206473D01*
X0058235Y0206716D01*
X0058310Y0206772D01*
X0058497Y0206531D01*
X0058690Y0206294D01*
X0058889Y0206063D01*
X0059093Y0205836D01*
X0059302Y0205614D01*
X0059517Y0205398D01*
X0059738Y0205187D01*
X0059963Y0204981D01*
X0060193Y0204781D01*
X0060429Y0204586D01*
X0060668Y0204398D01*
X0060913Y0204215D01*
X0061162Y0204038D01*
X0061415Y0203868D01*
X0061672Y0203703D01*
X0061933Y0203545D01*
X0062198Y0203394D01*
X0062466Y0203249D01*
X0062738Y0203110D01*
X0063013Y0202978D01*
X0063292Y0202853D01*
X0063573Y0202735D01*
X0063857Y0202624D01*
X0064144Y0202520D01*
X0064433Y0202422D01*
X0064725Y0202332D01*
X0065018Y0202249D01*
X0065314Y0202174D01*
X0065611Y0202105D01*
X0065910Y0202044D01*
X0066211Y0201990D01*
X0066512Y0201944D01*
X0066815Y0201904D01*
X0067118Y0201873D01*
X0067423Y0201848D01*
X0067727Y0201832D01*
X0068032Y0201822D01*
X0068337Y0201820D01*
X0068642Y0201826D01*
X0068947Y0201839D01*
X0069252Y0201859D01*
X0069556Y0201887D01*
X0069859Y0201922D01*
X0070161Y0201965D01*
X0070462Y0202015D01*
X0070762Y0202072D01*
X0071060Y0202137D01*
X0071356Y0202209D01*
X0071651Y0202288D01*
X0071944Y0202375D01*
X0072234Y0202468D01*
X0072522Y0202569D01*
X0072808Y0202677D01*
X0073091Y0202791D01*
X0073371Y0202913D01*
X0073648Y0203041D01*
X0073921Y0203176D01*
X0074191Y0203317D01*
X0074458Y0203466D01*
X0074721Y0203620D01*
X0074980Y0203781D01*
X0075236Y0203949D01*
X0075487Y0204122D01*
X0075733Y0204302D01*
X0075975Y0204488D01*
X0076213Y0204679D01*
X0076446Y0204876D01*
X0076674Y0205079D01*
X0076897Y0205288D01*
X0077115Y0205501D01*
X0077327Y0205720D01*
X0077534Y0205944D01*
X0077736Y0206174D01*
X0077932Y0206408D01*
X0078122Y0206646D01*
X0078306Y0206890D01*
X0078484Y0207137D01*
X0078656Y0207389D01*
X0078822Y0207646D01*
X0078981Y0207906D01*
X0079135Y0208170D01*
X0079281Y0208437D01*
X0079421Y0208708D01*
X0079555Y0208983D01*
X0079681Y0209260D01*
X0079801Y0209541D01*
X0079914Y0209825D01*
X0080020Y0210111D01*
X0080119Y0210399D01*
X0080211Y0210690D01*
X0080295Y0210984D01*
X0080373Y0211279D01*
X0080443Y0211576D01*
X0080506Y0211874D01*
X0080562Y0212174D01*
X0080610Y0212476D01*
X0080651Y0212778D01*
X0080684Y0213081D01*
X0080710Y0213385D01*
X0080729Y0213690D01*
X0080740Y0213995D01*
X0080744Y0214300D01*
X0080740Y0214605D01*
X0080729Y0214910D01*
X0080710Y0215215D01*
X0080684Y0215519D01*
X0080651Y0215822D01*
X0080610Y0216124D01*
X0080562Y0216426D01*
X0080506Y0216726D01*
X0080443Y0217024D01*
X0080373Y0217321D01*
X0080295Y0217616D01*
X0080211Y0217910D01*
X0080119Y0218201D01*
X0080020Y0218489D01*
X0079914Y0218775D01*
X0079801Y0219059D01*
X0079681Y0219340D01*
X0079555Y0219617D01*
X0079421Y0219892D01*
X0079281Y0220163D01*
X0079135Y0220430D01*
X0078981Y0220694D01*
X0078822Y0220954D01*
X0078656Y0221211D01*
X0078484Y0221463D01*
X0078306Y0221710D01*
X0078122Y0221954D01*
X0077932Y0222192D01*
X0077736Y0222426D01*
X0077534Y0222656D01*
X0077327Y0222880D01*
X0077115Y0223099D01*
X0076897Y0223312D01*
X0076674Y0223521D01*
X0076446Y0223724D01*
X0076213Y0223921D01*
X0075975Y0224112D01*
X0075733Y0224298D01*
X0075487Y0224478D01*
X0075236Y0224651D01*
X0074980Y0224819D01*
X0074721Y0224980D01*
X0074458Y0225134D01*
X0074191Y0225283D01*
X0073921Y0225424D01*
X0073648Y0225559D01*
X0073371Y0225687D01*
X0073091Y0225809D01*
X0072808Y0225923D01*
X0072522Y0226031D01*
X0072234Y0226132D01*
X0071944Y0226225D01*
X0071651Y0226312D01*
X0071356Y0226391D01*
X0071060Y0226463D01*
X0070762Y0226528D01*
X0070462Y0226585D01*
X0070161Y0226635D01*
X0069859Y0226678D01*
X0069556Y0226713D01*
X0069252Y0226741D01*
X0068947Y0226761D01*
X0068642Y0226774D01*
X0068337Y0226780D01*
X0068032Y0226778D01*
X0067727Y0226768D01*
X0067423Y0226752D01*
X0067118Y0226727D01*
X0066815Y0226696D01*
X0066512Y0226656D01*
X0066211Y0226610D01*
X0065910Y0226556D01*
X0065611Y0226495D01*
X0065314Y0226426D01*
X0065018Y0226351D01*
X0064725Y0226268D01*
X0064433Y0226178D01*
X0064144Y0226080D01*
X0063857Y0225976D01*
X0063573Y0225865D01*
X0063292Y0225747D01*
X0063013Y0225622D01*
X0062738Y0225490D01*
X0062466Y0225351D01*
X0062198Y0225206D01*
X0061933Y0225055D01*
X0061672Y0224897D01*
X0061415Y0224732D01*
X0061162Y0224562D01*
X0060913Y0224385D01*
X0060668Y0224202D01*
X0060429Y0224014D01*
X0060193Y0223819D01*
X0059963Y0223619D01*
X0059738Y0223413D01*
X0059517Y0223202D01*
X0059302Y0222986D01*
X0059093Y0222764D01*
X0058889Y0222537D01*
X0058690Y0222306D01*
X0058497Y0222069D01*
X0058310Y0221828D01*
X0058385Y0221772D01*
X0058571Y0222011D01*
X0058762Y0222246D01*
X0058959Y0222475D01*
X0059162Y0222700D01*
X0059370Y0222921D01*
X0059584Y0223135D01*
X0059802Y0223345D01*
X0060026Y0223549D01*
X0060254Y0223748D01*
X0060488Y0223941D01*
X0060726Y0224128D01*
X0060968Y0224309D01*
X0061215Y0224485D01*
X0061466Y0224654D01*
X0061722Y0224817D01*
X0061981Y0224974D01*
X0062244Y0225124D01*
X0062510Y0225268D01*
X0062780Y0225406D01*
X0063053Y0225537D01*
X0063329Y0225661D01*
X0063609Y0225778D01*
X0063891Y0225888D01*
X0064175Y0225992D01*
X0064462Y0226088D01*
X0064752Y0226178D01*
X0065043Y0226260D01*
X0065336Y0226335D01*
X0065632Y0226403D01*
X0065928Y0226464D01*
X0066226Y0226517D01*
X0066526Y0226563D01*
X0066826Y0226602D01*
X0067127Y0226634D01*
X0067429Y0226658D01*
X0067732Y0226675D01*
X0068034Y0226684D01*
X0068337Y0226686D01*
X0068640Y0226680D01*
X0068942Y0226667D01*
X0069245Y0226647D01*
X0069546Y0226619D01*
X0069847Y0226584D01*
X0070147Y0226542D01*
X0070446Y0226492D01*
X0070743Y0226435D01*
X0071039Y0226371D01*
X0071333Y0226300D01*
X0071626Y0226221D01*
X0071916Y0226135D01*
X0072205Y0226042D01*
X0072490Y0225943D01*
X0072774Y0225836D01*
X0073054Y0225722D01*
X0073332Y0225602D01*
X0073607Y0225474D01*
X0073879Y0225340D01*
X0074147Y0225200D01*
X0074412Y0225053D01*
X0074673Y0224899D01*
X0074930Y0224739D01*
X0075183Y0224573D01*
X0075432Y0224401D01*
X0075677Y0224223D01*
X0075918Y0224038D01*
X0076153Y0223848D01*
X0076384Y0223653D01*
X0076611Y0223451D01*
X0076832Y0223245D01*
X0077048Y0223032D01*
X0077259Y0222815D01*
X0077464Y0222593D01*
X0077664Y0222365D01*
X0077859Y0222133D01*
X0078047Y0221896D01*
X0078230Y0221654D01*
X0078407Y0221409D01*
X0078578Y0221158D01*
X0078742Y0220904D01*
X0078901Y0220646D01*
X0079053Y0220384D01*
X0079198Y0220119D01*
X0079337Y0219850D01*
X0079470Y0219577D01*
X0079595Y0219302D01*
X0079714Y0219023D01*
X0079826Y0218742D01*
X0079931Y0218458D01*
X0080030Y0218171D01*
X0080121Y0217882D01*
X0080205Y0217591D01*
X0080282Y0217298D01*
X0080351Y0217004D01*
X0080414Y0216707D01*
X0080469Y0216410D01*
X0080517Y0216111D01*
X0080558Y0215811D01*
X0080591Y0215509D01*
X0080617Y0215208D01*
X0080635Y0214905D01*
X0080646Y0214603D01*
X0080650Y0214300D01*
X0080646Y0213997D01*
X0080635Y0213695D01*
X0080617Y0213392D01*
X0080591Y0213091D01*
X0080558Y0212789D01*
X0080517Y0212489D01*
X0080469Y0212190D01*
X0080414Y0211893D01*
X0080351Y0211596D01*
X0080282Y0211302D01*
X0080205Y0211009D01*
X0080121Y0210718D01*
X0080030Y0210429D01*
X0079931Y0210142D01*
X0079826Y0209858D01*
X0079714Y0209577D01*
X0079595Y0209298D01*
X0079470Y0209023D01*
X0079337Y0208750D01*
X0079198Y0208481D01*
X0079053Y0208216D01*
X0078901Y0207954D01*
X0078742Y0207696D01*
X0078578Y0207442D01*
X0078407Y0207191D01*
X0078230Y0206946D01*
X0078047Y0206704D01*
X0077859Y0206467D01*
X0077664Y0206235D01*
X0077464Y0206007D01*
X0077259Y0205785D01*
X0077048Y0205568D01*
X0076832Y0205355D01*
X0076611Y0205149D01*
X0076384Y0204947D01*
X0076153Y0204752D01*
X0075918Y0204562D01*
X0075677Y0204377D01*
X0075432Y0204199D01*
X0075183Y0204027D01*
X0074930Y0203861D01*
X0074673Y0203701D01*
X0074412Y0203547D01*
X0074147Y0203400D01*
X0073879Y0203260D01*
X0073607Y0203126D01*
X0073332Y0202998D01*
X0073054Y0202878D01*
X0072774Y0202764D01*
X0072490Y0202657D01*
X0072205Y0202558D01*
X0071916Y0202465D01*
X0071626Y0202379D01*
X0071333Y0202300D01*
X0071039Y0202229D01*
X0070743Y0202165D01*
X0070446Y0202108D01*
X0070147Y0202058D01*
X0069847Y0202016D01*
X0069546Y0201981D01*
X0069245Y0201953D01*
X0068942Y0201933D01*
X0068640Y0201920D01*
X0068337Y0201914D01*
X0068034Y0201916D01*
X0067732Y0201925D01*
X0067429Y0201942D01*
X0067127Y0201966D01*
X0066826Y0201998D01*
X0066526Y0202037D01*
X0066226Y0202083D01*
X0065928Y0202136D01*
X0065632Y0202197D01*
X0065336Y0202265D01*
X0065043Y0202340D01*
X0064752Y0202422D01*
X0064462Y0202512D01*
X0064175Y0202608D01*
X0063891Y0202712D01*
X0063609Y0202822D01*
X0063329Y0202939D01*
X0063053Y0203063D01*
X0062780Y0203194D01*
X0062510Y0203332D01*
X0062244Y0203476D01*
X0061981Y0203626D01*
X0061722Y0203783D01*
X0061466Y0203946D01*
X0061215Y0204115D01*
X0060968Y0204291D01*
X0060726Y0204472D01*
X0060488Y0204659D01*
X0060254Y0204852D01*
X0060026Y0205051D01*
X0059802Y0205255D01*
X0059584Y0205465D01*
X0059370Y0205679D01*
X0059162Y0205900D01*
X0058959Y0206125D01*
X0058762Y0206354D01*
X0058571Y0206589D01*
X0058385Y0206828D01*
X0058460Y0206885D01*
X0058645Y0206647D01*
X0058835Y0206415D01*
X0059030Y0206186D01*
X0059231Y0205963D01*
X0059438Y0205745D01*
X0059650Y0205531D01*
X0059867Y0205323D01*
X0060089Y0205121D01*
X0060316Y0204924D01*
X0060547Y0204732D01*
X0060783Y0204546D01*
X0061024Y0204366D01*
X0061269Y0204192D01*
X0061518Y0204024D01*
X0061772Y0203862D01*
X0062029Y0203707D01*
X0062290Y0203558D01*
X0062554Y0203415D01*
X0062822Y0203278D01*
X0063093Y0203149D01*
X0063367Y0203026D01*
X0063644Y0202909D01*
X0063924Y0202800D01*
X0064207Y0202697D01*
X0064491Y0202601D01*
X0064779Y0202513D01*
X0065068Y0202431D01*
X0065359Y0202356D01*
X0065652Y0202289D01*
X0065946Y0202228D01*
X0066242Y0202175D01*
X0066539Y0202130D01*
X0066837Y0202091D01*
X0067136Y0202060D01*
X0067436Y0202036D01*
X0067736Y0202019D01*
X0068036Y0202010D01*
X0068337Y0202008D01*
X0068637Y0202014D01*
X0068938Y0202026D01*
X0069237Y0202047D01*
X0069537Y0202074D01*
X0069835Y0202109D01*
X0070133Y0202151D01*
X0070429Y0202200D01*
X0070724Y0202257D01*
X0071018Y0202321D01*
X0071310Y0202391D01*
X0071600Y0202469D01*
X0071889Y0202555D01*
X0072175Y0202647D01*
X0072459Y0202746D01*
X0072740Y0202852D01*
X0073018Y0202965D01*
X0073294Y0203084D01*
X0073567Y0203211D01*
X0073836Y0203344D01*
X0074102Y0203483D01*
X0074365Y0203629D01*
X0074624Y0203781D01*
X0074880Y0203940D01*
X0075131Y0204105D01*
X0075378Y0204276D01*
X0075621Y0204453D01*
X0075860Y0204636D01*
X0076094Y0204824D01*
X0076323Y0205018D01*
X0076547Y0205218D01*
X0076767Y0205423D01*
X0076981Y0205634D01*
X0077191Y0205850D01*
X0077395Y0206070D01*
X0077593Y0206296D01*
X0077786Y0206527D01*
X0077973Y0206762D01*
X0078155Y0207001D01*
X0078330Y0207245D01*
X0078500Y0207494D01*
X0078663Y0207746D01*
X0078820Y0208002D01*
X0078971Y0208262D01*
X0079115Y0208526D01*
X0079253Y0208793D01*
X0079385Y0209063D01*
X0079509Y0209336D01*
X0079627Y0209613D01*
X0079738Y0209892D01*
X0079843Y0210174D01*
X0079940Y0210458D01*
X0080031Y0210745D01*
X0080114Y0211034D01*
X0080190Y0211324D01*
X0080260Y0211617D01*
X0080322Y0211911D01*
X0080376Y0212206D01*
X0080424Y0212503D01*
X0080464Y0212801D01*
X0080497Y0213100D01*
X0080523Y0213399D01*
X0080541Y0213699D01*
X0080552Y0213999D01*
X0080556Y0214300D01*
X0080552Y0214601D01*
X0080541Y0214901D01*
X0080523Y0215201D01*
X0080497Y0215500D01*
X0080464Y0215799D01*
X0080424Y0216097D01*
X0080376Y0216394D01*
X0080322Y0216689D01*
X0080260Y0216983D01*
X0080190Y0217276D01*
X0080114Y0217566D01*
X0080031Y0217855D01*
X0079940Y0218142D01*
X0079843Y0218426D01*
X0079738Y0218708D01*
X0079627Y0218987D01*
X0079509Y0219264D01*
X0079385Y0219537D01*
X0079253Y0219807D01*
X0079115Y0220074D01*
X0078971Y0220338D01*
X0078820Y0220598D01*
X0078663Y0220854D01*
X0078500Y0221106D01*
X0078330Y0221355D01*
X0078155Y0221599D01*
X0077973Y0221838D01*
X0077786Y0222073D01*
X0077593Y0222304D01*
X0077395Y0222530D01*
X0077191Y0222750D01*
X0076981Y0222966D01*
X0076767Y0223177D01*
X0076547Y0223382D01*
X0076323Y0223582D01*
X0076094Y0223776D01*
X0075860Y0223964D01*
X0075621Y0224147D01*
X0075378Y0224324D01*
X0075131Y0224495D01*
X0074880Y0224660D01*
X0074624Y0224819D01*
X0074365Y0224971D01*
X0074102Y0225117D01*
X0073836Y0225256D01*
X0073567Y0225389D01*
X0073294Y0225516D01*
X0073018Y0225635D01*
X0072740Y0225748D01*
X0072459Y0225854D01*
X0072175Y0225953D01*
X0071889Y0226045D01*
X0071600Y0226131D01*
X0071310Y0226209D01*
X0071018Y0226279D01*
X0070724Y0226343D01*
X0070429Y0226400D01*
X0070133Y0226449D01*
X0069835Y0226491D01*
X0069537Y0226526D01*
X0069237Y0226553D01*
X0068938Y0226574D01*
X0068637Y0226586D01*
X0068337Y0226592D01*
X0068036Y0226590D01*
X0067736Y0226581D01*
X0067436Y0226564D01*
X0067136Y0226540D01*
X0066837Y0226509D01*
X0066539Y0226470D01*
X0066242Y0226425D01*
X0065946Y0226372D01*
X0065652Y0226311D01*
X0065359Y0226244D01*
X0065068Y0226169D01*
X0064779Y0226087D01*
X0064491Y0225999D01*
X0064207Y0225903D01*
X0063924Y0225800D01*
X0063644Y0225691D01*
X0063367Y0225574D01*
X0063093Y0225451D01*
X0062822Y0225322D01*
X0062554Y0225185D01*
X0062290Y0225042D01*
X0062029Y0224893D01*
X0061772Y0224738D01*
X0061518Y0224576D01*
X0061269Y0224408D01*
X0061024Y0224234D01*
X0060783Y0224054D01*
X0060547Y0223868D01*
X0060316Y0223676D01*
X0060089Y0223479D01*
X0059867Y0223277D01*
X0059650Y0223069D01*
X0059438Y0222855D01*
X0059231Y0222637D01*
X0059030Y0222414D01*
X0058835Y0222185D01*
X0058645Y0221953D01*
X0058460Y0221715D01*
X0058536Y0221659D01*
X0058718Y0221894D01*
X0058907Y0222125D01*
X0059101Y0222352D01*
X0059301Y0222574D01*
X0059506Y0222790D01*
X0059716Y0223002D01*
X0059931Y0223208D01*
X0060151Y0223409D01*
X0060377Y0223605D01*
X0060606Y0223795D01*
X0060841Y0223979D01*
X0061080Y0224158D01*
X0061323Y0224331D01*
X0061570Y0224497D01*
X0061822Y0224658D01*
X0062077Y0224812D01*
X0062336Y0224960D01*
X0062598Y0225102D01*
X0062864Y0225237D01*
X0063133Y0225366D01*
X0063405Y0225488D01*
X0063680Y0225604D01*
X0063958Y0225713D01*
X0064238Y0225814D01*
X0064521Y0225909D01*
X0064806Y0225997D01*
X0065093Y0226078D01*
X0065381Y0226153D01*
X0065672Y0226219D01*
X0065964Y0226279D01*
X0066258Y0226332D01*
X0066553Y0226377D01*
X0066848Y0226416D01*
X0067145Y0226447D01*
X0067442Y0226470D01*
X0067740Y0226487D01*
X0068038Y0226496D01*
X0068336Y0226498D01*
X0068635Y0226492D01*
X0068933Y0226480D01*
X0069230Y0226460D01*
X0069527Y0226432D01*
X0069823Y0226398D01*
X0070119Y0226356D01*
X0070413Y0226307D01*
X0070706Y0226251D01*
X0070997Y0226188D01*
X0071287Y0226117D01*
X0071575Y0226040D01*
X0071861Y0225956D01*
X0072145Y0225864D01*
X0072427Y0225766D01*
X0072706Y0225661D01*
X0072982Y0225549D01*
X0073256Y0225430D01*
X0073526Y0225305D01*
X0073794Y0225173D01*
X0074058Y0225034D01*
X0074319Y0224889D01*
X0074576Y0224738D01*
X0074829Y0224581D01*
X0075078Y0224417D01*
X0075324Y0224247D01*
X0075565Y0224072D01*
X0075802Y0223890D01*
X0076034Y0223703D01*
X0076261Y0223511D01*
X0076484Y0223312D01*
X0076702Y0223109D01*
X0076915Y0222900D01*
X0077123Y0222686D01*
X0077325Y0222466D01*
X0077522Y0222243D01*
X0077713Y0222014D01*
X0077899Y0221780D01*
X0078079Y0221543D01*
X0078253Y0221301D01*
X0078421Y0221054D01*
X0078583Y0220804D01*
X0078739Y0220550D01*
X0078889Y0220292D01*
X0079032Y0220030D01*
X0079169Y0219765D01*
X0079300Y0219497D01*
X0079423Y0219226D01*
X0079540Y0218951D01*
X0079651Y0218674D01*
X0079754Y0218394D01*
X0079851Y0218112D01*
X0079941Y0217828D01*
X0080023Y0217541D01*
X0080099Y0217253D01*
X0080168Y0216963D01*
X0080229Y0216671D01*
X0080284Y0216378D01*
X0080331Y0216083D01*
X0080371Y0215788D01*
X0080404Y0215491D01*
X0080429Y0215194D01*
X0080447Y0214896D01*
X0080458Y0214598D01*
X0080462Y0214300D01*
X0080458Y0214002D01*
X0080447Y0213704D01*
X0080429Y0213406D01*
X0080404Y0213109D01*
X0080371Y0212812D01*
X0080331Y0212517D01*
X0080284Y0212222D01*
X0080229Y0211929D01*
X0080168Y0211637D01*
X0080099Y0211347D01*
X0080023Y0211059D01*
X0079941Y0210772D01*
X0079851Y0210488D01*
X0079754Y0210206D01*
X0079651Y0209926D01*
X0079540Y0209649D01*
X0079423Y0209374D01*
X0079300Y0209103D01*
X0079169Y0208835D01*
X0079032Y0208570D01*
X0078889Y0208308D01*
X0078739Y0208050D01*
X0078583Y0207796D01*
X0078421Y0207546D01*
X0078253Y0207299D01*
X0078079Y0207057D01*
X0077899Y0206820D01*
X0077713Y0206586D01*
X0077522Y0206357D01*
X0077325Y0206134D01*
X0077123Y0205914D01*
X0076915Y0205700D01*
X0076702Y0205491D01*
X0076484Y0205288D01*
X0076261Y0205089D01*
X0076034Y0204897D01*
X0075802Y0204710D01*
X0075565Y0204528D01*
X0075324Y0204353D01*
X0075078Y0204183D01*
X0074829Y0204019D01*
X0074576Y0203862D01*
X0074319Y0203711D01*
X0074058Y0203566D01*
X0073794Y0203427D01*
X0073526Y0203295D01*
X0073256Y0203170D01*
X0072982Y0203051D01*
X0072706Y0202939D01*
X0072427Y0202834D01*
X0072145Y0202736D01*
X0071861Y0202644D01*
X0071575Y0202560D01*
X0071287Y0202483D01*
X0070997Y0202412D01*
X0070706Y0202349D01*
X0070413Y0202293D01*
X0070119Y0202244D01*
X0069823Y0202202D01*
X0069527Y0202168D01*
X0069230Y0202140D01*
X0068933Y0202120D01*
X0068635Y0202108D01*
X0068336Y0202102D01*
X0068038Y0202104D01*
X0067740Y0202113D01*
X0067442Y0202130D01*
X0067145Y0202153D01*
X0066848Y0202184D01*
X0066553Y0202223D01*
X0066258Y0202268D01*
X0065964Y0202321D01*
X0065672Y0202381D01*
X0065381Y0202447D01*
X0065093Y0202522D01*
X0064806Y0202603D01*
X0064521Y0202691D01*
X0064238Y0202786D01*
X0063958Y0202887D01*
X0063680Y0202996D01*
X0063405Y0203112D01*
X0063133Y0203234D01*
X0062864Y0203363D01*
X0062598Y0203498D01*
X0062336Y0203640D01*
X0062077Y0203788D01*
X0061822Y0203942D01*
X0061570Y0204103D01*
X0061323Y0204269D01*
X0061080Y0204442D01*
X0060841Y0204621D01*
X0060606Y0204805D01*
X0060377Y0204995D01*
X0060151Y0205191D01*
X0059931Y0205392D01*
X0059716Y0205598D01*
X0059506Y0205810D01*
X0059301Y0206026D01*
X0059101Y0206248D01*
X0058907Y0206475D01*
X0058718Y0206706D01*
X0058536Y0206941D01*
X0058611Y0206998D01*
X0058792Y0206764D01*
X0058979Y0206535D01*
X0059172Y0206310D01*
X0059370Y0206090D01*
X0059573Y0205875D01*
X0059782Y0205665D01*
X0059996Y0205460D01*
X0060214Y0205261D01*
X0060438Y0205067D01*
X0060666Y0204878D01*
X0060898Y0204695D01*
X0061135Y0204518D01*
X0061377Y0204347D01*
X0061622Y0204181D01*
X0061871Y0204022D01*
X0062125Y0203869D01*
X0062381Y0203722D01*
X0062642Y0203581D01*
X0062906Y0203447D01*
X0063173Y0203319D01*
X0063443Y0203198D01*
X0063715Y0203083D01*
X0063991Y0202975D01*
X0064269Y0202874D01*
X0064550Y0202780D01*
X0064832Y0202693D01*
X0065117Y0202612D01*
X0065404Y0202539D01*
X0065692Y0202472D01*
X0065982Y0202413D01*
X0066274Y0202361D01*
X0066566Y0202316D01*
X0066860Y0202278D01*
X0067154Y0202247D01*
X0067449Y0202223D01*
X0067744Y0202207D01*
X0068040Y0202198D01*
X0068336Y0202196D01*
X0068632Y0202202D01*
X0068928Y0202214D01*
X0069223Y0202234D01*
X0069518Y0202261D01*
X0069812Y0202295D01*
X0070105Y0202337D01*
X0070397Y0202385D01*
X0070687Y0202441D01*
X0070976Y0202504D01*
X0071264Y0202574D01*
X0071550Y0202651D01*
X0071834Y0202734D01*
X0072115Y0202825D01*
X0072395Y0202923D01*
X0072672Y0203027D01*
X0072946Y0203138D01*
X0073217Y0203256D01*
X0073486Y0203380D01*
X0073751Y0203511D01*
X0074013Y0203649D01*
X0074272Y0203792D01*
X0074527Y0203942D01*
X0074779Y0204099D01*
X0075026Y0204261D01*
X0075269Y0204429D01*
X0075509Y0204604D01*
X0075744Y0204784D01*
X0075974Y0204969D01*
X0076200Y0205161D01*
X0076421Y0205357D01*
X0076637Y0205559D01*
X0076848Y0205767D01*
X0077054Y0205979D01*
X0077255Y0206197D01*
X0077451Y0206419D01*
X0077641Y0206646D01*
X0077825Y0206877D01*
X0078003Y0207113D01*
X0078176Y0207353D01*
X0078343Y0207598D01*
X0078504Y0207846D01*
X0078659Y0208099D01*
X0078807Y0208355D01*
X0078949Y0208614D01*
X0079085Y0208877D01*
X0079215Y0209143D01*
X0079337Y0209412D01*
X0079454Y0209685D01*
X0079563Y0209960D01*
X0079666Y0210237D01*
X0079762Y0210517D01*
X0079851Y0210799D01*
X0079933Y0211084D01*
X0080008Y0211370D01*
X0080076Y0211658D01*
X0080137Y0211947D01*
X0080191Y0212238D01*
X0080238Y0212531D01*
X0080278Y0212824D01*
X0080310Y0213118D01*
X0080335Y0213413D01*
X0080354Y0213708D01*
X0080364Y0214004D01*
X0080368Y0214300D01*
X0080364Y0214596D01*
X0080354Y0214892D01*
X0080335Y0215187D01*
X0080310Y0215482D01*
X0080278Y0215776D01*
X0080238Y0216069D01*
X0080191Y0216362D01*
X0080137Y0216653D01*
X0080076Y0216942D01*
X0080008Y0217230D01*
X0079933Y0217516D01*
X0079851Y0217801D01*
X0079762Y0218083D01*
X0079666Y0218363D01*
X0079563Y0218640D01*
X0079454Y0218915D01*
X0079337Y0219188D01*
X0079215Y0219457D01*
X0079085Y0219723D01*
X0078949Y0219986D01*
X0078807Y0220245D01*
X0078659Y0220501D01*
X0078504Y0220754D01*
X0078343Y0221002D01*
X0078176Y0221247D01*
X0078003Y0221487D01*
X0077825Y0221723D01*
X0077641Y0221954D01*
X0077451Y0222181D01*
X0077255Y0222403D01*
X0077054Y0222621D01*
X0076848Y0222833D01*
X0076637Y0223041D01*
X0076421Y0223243D01*
X0076200Y0223439D01*
X0075974Y0223631D01*
X0075744Y0223816D01*
X0075509Y0223996D01*
X0075269Y0224171D01*
X0075026Y0224339D01*
X0074779Y0224501D01*
X0074527Y0224658D01*
X0074272Y0224808D01*
X0074013Y0224951D01*
X0073751Y0225089D01*
X0073486Y0225220D01*
X0073217Y0225344D01*
X0072946Y0225462D01*
X0072672Y0225573D01*
X0072395Y0225677D01*
X0072115Y0225775D01*
X0071834Y0225866D01*
X0071550Y0225949D01*
X0071264Y0226026D01*
X0070976Y0226096D01*
X0070687Y0226159D01*
X0070397Y0226215D01*
X0070105Y0226263D01*
X0069812Y0226305D01*
X0069518Y0226339D01*
X0069223Y0226366D01*
X0068928Y0226386D01*
X0068632Y0226398D01*
X0068336Y0226404D01*
X0068040Y0226402D01*
X0067744Y0226393D01*
X0067449Y0226377D01*
X0067154Y0226353D01*
X0066860Y0226322D01*
X0066566Y0226284D01*
X0066274Y0226239D01*
X0065982Y0226187D01*
X0065692Y0226128D01*
X0065404Y0226061D01*
X0065117Y0225988D01*
X0064832Y0225907D01*
X0064550Y0225820D01*
X0064269Y0225726D01*
X0063991Y0225625D01*
X0063715Y0225517D01*
X0063443Y0225402D01*
X0063173Y0225281D01*
X0062906Y0225153D01*
X0062642Y0225019D01*
X0062381Y0224878D01*
X0062125Y0224731D01*
X0061871Y0224578D01*
X0061622Y0224419D01*
X0061377Y0224253D01*
X0061135Y0224082D01*
X0060898Y0223905D01*
X0060666Y0223722D01*
X0060438Y0223533D01*
X0060214Y0223339D01*
X0059996Y0223140D01*
X0059782Y0222935D01*
X0059573Y0222725D01*
X0059370Y0222510D01*
X0059172Y0222290D01*
X0058979Y0222065D01*
X0058792Y0221836D01*
X0058611Y0221602D01*
X0203593Y0222109D02*
X0202873Y0221569D01*
X0202874Y0221570D02*
X0202693Y0221803D01*
X0202507Y0222031D01*
X0202315Y0222255D01*
X0202118Y0222474D01*
X0201916Y0222688D01*
X0201708Y0222897D01*
X0201495Y0223100D01*
X0201278Y0223299D01*
X0201055Y0223492D01*
X0200828Y0223680D01*
X0200597Y0223862D01*
X0200361Y0224039D01*
X0200120Y0224209D01*
X0199876Y0224374D01*
X0199628Y0224532D01*
X0199376Y0224685D01*
X0199120Y0224831D01*
X0198861Y0224971D01*
X0198598Y0225105D01*
X0198333Y0225232D01*
X0198064Y0225353D01*
X0197792Y0225467D01*
X0197518Y0225574D01*
X0197241Y0225675D01*
X0196962Y0225769D01*
X0196680Y0225856D01*
X0196397Y0225936D01*
X0196111Y0226009D01*
X0195824Y0226075D01*
X0195535Y0226134D01*
X0195245Y0226186D01*
X0194954Y0226231D01*
X0194662Y0226269D01*
X0194369Y0226299D01*
X0194075Y0226323D01*
X0193781Y0226339D01*
X0193487Y0226348D01*
X0193192Y0226350D01*
X0192897Y0226344D01*
X0192603Y0226332D01*
X0192309Y0226312D01*
X0192016Y0226285D01*
X0191723Y0226251D01*
X0191431Y0226210D01*
X0191141Y0226161D01*
X0190851Y0226106D01*
X0190564Y0226044D01*
X0190277Y0225974D01*
X0189993Y0225897D01*
X0189710Y0225814D01*
X0189430Y0225724D01*
X0189152Y0225627D01*
X0188876Y0225523D01*
X0188603Y0225412D01*
X0188333Y0225295D01*
X0188065Y0225171D01*
X0187801Y0225041D01*
X0187540Y0224904D01*
X0187283Y0224761D01*
X0187029Y0224611D01*
X0186778Y0224456D01*
X0186532Y0224294D01*
X0186290Y0224127D01*
X0186052Y0223953D01*
X0185818Y0223774D01*
X0185588Y0223589D01*
X0185364Y0223399D01*
X0185143Y0223203D01*
X0184928Y0223002D01*
X0184718Y0222795D01*
X0184513Y0222584D01*
X0184313Y0222367D01*
X0184118Y0222146D01*
X0183929Y0221920D01*
X0183746Y0221690D01*
X0183568Y0221455D01*
X0183396Y0221215D01*
X0183230Y0220972D01*
X0183070Y0220725D01*
X0182916Y0220474D01*
X0182768Y0220219D01*
X0182626Y0219960D01*
X0182491Y0219699D01*
X0182362Y0219434D01*
X0182240Y0219166D01*
X0182124Y0218895D01*
X0182015Y0218621D01*
X0181913Y0218345D01*
X0181818Y0218066D01*
X0181729Y0217785D01*
X0181647Y0217502D01*
X0181572Y0217217D01*
X0181505Y0216930D01*
X0181444Y0216642D01*
X0181390Y0216352D01*
X0181343Y0216061D01*
X0181304Y0215769D01*
X0181272Y0215477D01*
X0181246Y0215183D01*
X0181228Y0214889D01*
X0181218Y0214595D01*
X0181214Y0214300D01*
X0181218Y0214005D01*
X0181228Y0213711D01*
X0181246Y0213417D01*
X0181272Y0213123D01*
X0181304Y0212831D01*
X0181343Y0212539D01*
X0181390Y0212248D01*
X0181444Y0211958D01*
X0181505Y0211670D01*
X0181572Y0211383D01*
X0181647Y0211098D01*
X0181729Y0210815D01*
X0181818Y0210534D01*
X0181913Y0210255D01*
X0182015Y0209979D01*
X0182124Y0209705D01*
X0182240Y0209434D01*
X0182362Y0209166D01*
X0182491Y0208901D01*
X0182626Y0208640D01*
X0182768Y0208381D01*
X0182916Y0208126D01*
X0183070Y0207875D01*
X0183230Y0207628D01*
X0183396Y0207385D01*
X0183568Y0207145D01*
X0183746Y0206910D01*
X0183929Y0206680D01*
X0184118Y0206454D01*
X0184313Y0206233D01*
X0184513Y0206016D01*
X0184718Y0205805D01*
X0184928Y0205598D01*
X0185143Y0205397D01*
X0185364Y0205201D01*
X0185588Y0205011D01*
X0185818Y0204826D01*
X0186052Y0204647D01*
X0186290Y0204473D01*
X0186532Y0204306D01*
X0186778Y0204144D01*
X0187029Y0203989D01*
X0187283Y0203839D01*
X0187540Y0203696D01*
X0187801Y0203559D01*
X0188065Y0203429D01*
X0188333Y0203305D01*
X0188603Y0203188D01*
X0188876Y0203077D01*
X0189152Y0202973D01*
X0189430Y0202876D01*
X0189710Y0202786D01*
X0189993Y0202703D01*
X0190277Y0202626D01*
X0190564Y0202556D01*
X0190851Y0202494D01*
X0191141Y0202439D01*
X0191431Y0202390D01*
X0191723Y0202349D01*
X0192016Y0202315D01*
X0192309Y0202288D01*
X0192603Y0202268D01*
X0192897Y0202256D01*
X0193192Y0202250D01*
X0193487Y0202252D01*
X0193781Y0202261D01*
X0194075Y0202277D01*
X0194369Y0202301D01*
X0194662Y0202331D01*
X0194954Y0202369D01*
X0195245Y0202414D01*
X0195535Y0202466D01*
X0195824Y0202525D01*
X0196111Y0202591D01*
X0196397Y0202664D01*
X0196680Y0202744D01*
X0196962Y0202831D01*
X0197241Y0202925D01*
X0197518Y0203026D01*
X0197792Y0203133D01*
X0198064Y0203247D01*
X0198333Y0203368D01*
X0198598Y0203495D01*
X0198861Y0203629D01*
X0199120Y0203769D01*
X0199376Y0203915D01*
X0199628Y0204068D01*
X0199876Y0204226D01*
X0200120Y0204391D01*
X0200361Y0204561D01*
X0200597Y0204738D01*
X0200828Y0204920D01*
X0201055Y0205108D01*
X0201278Y0205301D01*
X0201495Y0205500D01*
X0201708Y0205703D01*
X0201916Y0205912D01*
X0202118Y0206126D01*
X0202315Y0206345D01*
X0202507Y0206569D01*
X0202693Y0206797D01*
X0202874Y0207030D01*
X0203593Y0206491D01*
X0203594Y0206490D01*
X0203400Y0206240D01*
X0203200Y0205994D01*
X0202994Y0205754D01*
X0202782Y0205519D01*
X0202564Y0205289D01*
X0202341Y0205064D01*
X0202113Y0204845D01*
X0201879Y0204631D01*
X0201640Y0204423D01*
X0201396Y0204221D01*
X0201147Y0204026D01*
X0200893Y0203836D01*
X0200635Y0203653D01*
X0200373Y0203476D01*
X0200106Y0203305D01*
X0199835Y0203141D01*
X0199560Y0202984D01*
X0199282Y0202833D01*
X0198999Y0202689D01*
X0198714Y0202553D01*
X0198425Y0202423D01*
X0198133Y0202300D01*
X0197838Y0202185D01*
X0197541Y0202077D01*
X0197240Y0201976D01*
X0196938Y0201882D01*
X0196633Y0201796D01*
X0196326Y0201717D01*
X0196018Y0201646D01*
X0195708Y0201583D01*
X0195396Y0201527D01*
X0195083Y0201478D01*
X0194769Y0201438D01*
X0194454Y0201405D01*
X0194138Y0201380D01*
X0193822Y0201362D01*
X0193506Y0201352D01*
X0193189Y0201350D01*
X0192872Y0201356D01*
X0192556Y0201369D01*
X0192240Y0201391D01*
X0191925Y0201419D01*
X0191610Y0201456D01*
X0191297Y0201500D01*
X0190984Y0201552D01*
X0190673Y0201612D01*
X0190364Y0201679D01*
X0190056Y0201754D01*
X0189750Y0201836D01*
X0189447Y0201925D01*
X0189145Y0202022D01*
X0188846Y0202127D01*
X0188550Y0202239D01*
X0188256Y0202357D01*
X0187966Y0202483D01*
X0187679Y0202616D01*
X0187394Y0202757D01*
X0187114Y0202904D01*
X0186837Y0203057D01*
X0186564Y0203218D01*
X0186295Y0203385D01*
X0186030Y0203559D01*
X0185770Y0203739D01*
X0185514Y0203925D01*
X0185263Y0204118D01*
X0185016Y0204316D01*
X0184774Y0204521D01*
X0184538Y0204731D01*
X0184306Y0204948D01*
X0184081Y0205170D01*
X0183860Y0205397D01*
X0183645Y0205629D01*
X0183436Y0205867D01*
X0183233Y0206110D01*
X0183035Y0206358D01*
X0182844Y0206610D01*
X0182659Y0206867D01*
X0182481Y0207129D01*
X0182309Y0207395D01*
X0182143Y0207664D01*
X0181984Y0207938D01*
X0181832Y0208216D01*
X0181687Y0208497D01*
X0181548Y0208782D01*
X0181417Y0209070D01*
X0181293Y0209362D01*
X0181175Y0209656D01*
X0181065Y0209953D01*
X0180963Y0210252D01*
X0180868Y0210554D01*
X0180780Y0210858D01*
X0180699Y0211165D01*
X0180626Y0211473D01*
X0180561Y0211783D01*
X0180503Y0212094D01*
X0180453Y0212407D01*
X0180411Y0212721D01*
X0180376Y0213035D01*
X0180349Y0213351D01*
X0180329Y0213667D01*
X0180318Y0213983D01*
X0180314Y0214300D01*
X0180318Y0214617D01*
X0180329Y0214933D01*
X0180349Y0215249D01*
X0180376Y0215565D01*
X0180411Y0215879D01*
X0180453Y0216193D01*
X0180503Y0216506D01*
X0180561Y0216817D01*
X0180626Y0217127D01*
X0180699Y0217435D01*
X0180780Y0217742D01*
X0180868Y0218046D01*
X0180963Y0218348D01*
X0181065Y0218647D01*
X0181175Y0218944D01*
X0181293Y0219238D01*
X0181417Y0219530D01*
X0181548Y0219818D01*
X0181687Y0220103D01*
X0181832Y0220384D01*
X0181984Y0220662D01*
X0182143Y0220936D01*
X0182309Y0221205D01*
X0182481Y0221471D01*
X0182659Y0221733D01*
X0182844Y0221990D01*
X0183035Y0222242D01*
X0183233Y0222490D01*
X0183436Y0222733D01*
X0183645Y0222971D01*
X0183860Y0223203D01*
X0184081Y0223430D01*
X0184306Y0223652D01*
X0184538Y0223869D01*
X0184774Y0224079D01*
X0185016Y0224284D01*
X0185263Y0224482D01*
X0185514Y0224675D01*
X0185770Y0224861D01*
X0186030Y0225041D01*
X0186295Y0225215D01*
X0186564Y0225382D01*
X0186837Y0225543D01*
X0187114Y0225696D01*
X0187394Y0225843D01*
X0187679Y0225984D01*
X0187966Y0226117D01*
X0188256Y0226243D01*
X0188550Y0226361D01*
X0188846Y0226473D01*
X0189145Y0226578D01*
X0189447Y0226675D01*
X0189750Y0226764D01*
X0190056Y0226846D01*
X0190364Y0226921D01*
X0190673Y0226988D01*
X0190984Y0227048D01*
X0191297Y0227100D01*
X0191610Y0227144D01*
X0191925Y0227181D01*
X0192240Y0227209D01*
X0192556Y0227231D01*
X0192872Y0227244D01*
X0193189Y0227250D01*
X0193506Y0227248D01*
X0193822Y0227238D01*
X0194138Y0227220D01*
X0194454Y0227195D01*
X0194769Y0227162D01*
X0195083Y0227122D01*
X0195396Y0227073D01*
X0195708Y0227017D01*
X0196018Y0226954D01*
X0196326Y0226883D01*
X0196633Y0226804D01*
X0196938Y0226718D01*
X0197240Y0226624D01*
X0197541Y0226523D01*
X0197838Y0226415D01*
X0198133Y0226300D01*
X0198425Y0226177D01*
X0198714Y0226047D01*
X0198999Y0225911D01*
X0199282Y0225767D01*
X0199560Y0225616D01*
X0199835Y0225459D01*
X0200106Y0225295D01*
X0200373Y0225124D01*
X0200635Y0224947D01*
X0200893Y0224764D01*
X0201147Y0224574D01*
X0201396Y0224379D01*
X0201640Y0224177D01*
X0201879Y0223969D01*
X0202113Y0223755D01*
X0202341Y0223536D01*
X0202564Y0223311D01*
X0202782Y0223081D01*
X0202994Y0222846D01*
X0203200Y0222606D01*
X0203400Y0222360D01*
X0203594Y0222110D01*
X0203519Y0222054D01*
X0203326Y0222302D01*
X0203127Y0222546D01*
X0202923Y0222784D01*
X0202713Y0223018D01*
X0202497Y0223246D01*
X0202275Y0223469D01*
X0202048Y0223687D01*
X0201816Y0223899D01*
X0201579Y0224105D01*
X0201337Y0224306D01*
X0201089Y0224500D01*
X0200838Y0224688D01*
X0200581Y0224870D01*
X0200321Y0225046D01*
X0200056Y0225215D01*
X0199787Y0225378D01*
X0199514Y0225534D01*
X0199238Y0225684D01*
X0198958Y0225826D01*
X0198674Y0225962D01*
X0198387Y0226091D01*
X0198097Y0226213D01*
X0197805Y0226327D01*
X0197509Y0226435D01*
X0197211Y0226535D01*
X0196911Y0226628D01*
X0196608Y0226713D01*
X0196304Y0226791D01*
X0195998Y0226862D01*
X0195690Y0226925D01*
X0195380Y0226981D01*
X0195070Y0227029D01*
X0194758Y0227069D01*
X0194445Y0227102D01*
X0194132Y0227127D01*
X0193818Y0227144D01*
X0193504Y0227154D01*
X0193189Y0227156D01*
X0192875Y0227150D01*
X0192561Y0227137D01*
X0192247Y0227116D01*
X0191934Y0227087D01*
X0191622Y0227051D01*
X0191311Y0227007D01*
X0191001Y0226955D01*
X0190692Y0226896D01*
X0190385Y0226829D01*
X0190079Y0226755D01*
X0189776Y0226674D01*
X0189474Y0226585D01*
X0189175Y0226488D01*
X0188878Y0226385D01*
X0188584Y0226274D01*
X0188293Y0226156D01*
X0188004Y0226031D01*
X0187719Y0225899D01*
X0187437Y0225760D01*
X0187159Y0225614D01*
X0186884Y0225461D01*
X0186613Y0225302D01*
X0186346Y0225136D01*
X0186083Y0224963D01*
X0185824Y0224785D01*
X0185570Y0224600D01*
X0185321Y0224408D01*
X0185076Y0224211D01*
X0184836Y0224008D01*
X0184601Y0223799D01*
X0184371Y0223584D01*
X0184147Y0223364D01*
X0183928Y0223139D01*
X0183715Y0222908D01*
X0183507Y0222672D01*
X0183305Y0222430D01*
X0183110Y0222185D01*
X0182920Y0221934D01*
X0182736Y0221679D01*
X0182559Y0221419D01*
X0182388Y0221155D01*
X0182224Y0220887D01*
X0182066Y0220615D01*
X0181915Y0220340D01*
X0181771Y0220060D01*
X0181633Y0219778D01*
X0181503Y0219492D01*
X0181379Y0219203D01*
X0181263Y0218910D01*
X0181154Y0218616D01*
X0181052Y0218318D01*
X0180958Y0218019D01*
X0180870Y0217716D01*
X0180790Y0217412D01*
X0180718Y0217107D01*
X0180653Y0216799D01*
X0180596Y0216490D01*
X0180546Y0216179D01*
X0180504Y0215868D01*
X0180469Y0215555D01*
X0180443Y0215242D01*
X0180423Y0214928D01*
X0180412Y0214614D01*
X0180408Y0214300D01*
X0180412Y0213986D01*
X0180423Y0213672D01*
X0180443Y0213358D01*
X0180469Y0213045D01*
X0180504Y0212732D01*
X0180546Y0212421D01*
X0180596Y0212110D01*
X0180653Y0211801D01*
X0180718Y0211493D01*
X0180790Y0211188D01*
X0180870Y0210884D01*
X0180958Y0210581D01*
X0181052Y0210282D01*
X0181154Y0209984D01*
X0181263Y0209690D01*
X0181379Y0209397D01*
X0181503Y0209108D01*
X0181633Y0208822D01*
X0181771Y0208540D01*
X0181915Y0208260D01*
X0182066Y0207985D01*
X0182224Y0207713D01*
X0182388Y0207445D01*
X0182559Y0207181D01*
X0182736Y0206921D01*
X0182920Y0206666D01*
X0183110Y0206415D01*
X0183305Y0206170D01*
X0183507Y0205928D01*
X0183715Y0205692D01*
X0183928Y0205461D01*
X0184147Y0205236D01*
X0184371Y0205016D01*
X0184601Y0204801D01*
X0184836Y0204592D01*
X0185076Y0204389D01*
X0185321Y0204192D01*
X0185570Y0204000D01*
X0185824Y0203815D01*
X0186083Y0203637D01*
X0186346Y0203464D01*
X0186613Y0203298D01*
X0186884Y0203139D01*
X0187159Y0202986D01*
X0187437Y0202840D01*
X0187719Y0202701D01*
X0188004Y0202569D01*
X0188293Y0202444D01*
X0188584Y0202326D01*
X0188878Y0202215D01*
X0189175Y0202112D01*
X0189474Y0202015D01*
X0189776Y0201926D01*
X0190079Y0201845D01*
X0190385Y0201771D01*
X0190692Y0201704D01*
X0191001Y0201645D01*
X0191311Y0201593D01*
X0191622Y0201549D01*
X0191934Y0201513D01*
X0192247Y0201484D01*
X0192561Y0201463D01*
X0192875Y0201450D01*
X0193189Y0201444D01*
X0193504Y0201446D01*
X0193818Y0201456D01*
X0194132Y0201473D01*
X0194445Y0201498D01*
X0194758Y0201531D01*
X0195070Y0201571D01*
X0195380Y0201619D01*
X0195690Y0201675D01*
X0195998Y0201738D01*
X0196304Y0201809D01*
X0196608Y0201887D01*
X0196911Y0201972D01*
X0197211Y0202065D01*
X0197509Y0202165D01*
X0197805Y0202273D01*
X0198097Y0202387D01*
X0198387Y0202509D01*
X0198674Y0202638D01*
X0198958Y0202774D01*
X0199238Y0202916D01*
X0199514Y0203066D01*
X0199787Y0203222D01*
X0200056Y0203385D01*
X0200321Y0203554D01*
X0200581Y0203730D01*
X0200838Y0203912D01*
X0201089Y0204100D01*
X0201337Y0204294D01*
X0201579Y0204495D01*
X0201816Y0204701D01*
X0202048Y0204913D01*
X0202275Y0205131D01*
X0202497Y0205354D01*
X0202713Y0205582D01*
X0202923Y0205816D01*
X0203127Y0206054D01*
X0203326Y0206298D01*
X0203519Y0206546D01*
X0203444Y0206603D01*
X0203252Y0206356D01*
X0203055Y0206114D01*
X0202852Y0205877D01*
X0202643Y0205646D01*
X0202429Y0205419D01*
X0202209Y0205197D01*
X0201984Y0204981D01*
X0201753Y0204771D01*
X0201518Y0204566D01*
X0201277Y0204367D01*
X0201032Y0204174D01*
X0200782Y0203988D01*
X0200528Y0203807D01*
X0200269Y0203632D01*
X0200006Y0203464D01*
X0199739Y0203303D01*
X0199468Y0203148D01*
X0199194Y0202999D01*
X0198916Y0202858D01*
X0198634Y0202723D01*
X0198350Y0202595D01*
X0198062Y0202474D01*
X0197771Y0202360D01*
X0197478Y0202254D01*
X0197182Y0202154D01*
X0196884Y0202062D01*
X0196584Y0201977D01*
X0196281Y0201900D01*
X0195977Y0201830D01*
X0195672Y0201767D01*
X0195365Y0201712D01*
X0195056Y0201664D01*
X0194747Y0201624D01*
X0194436Y0201592D01*
X0194125Y0201567D01*
X0193814Y0201550D01*
X0193502Y0201540D01*
X0193190Y0201538D01*
X0192878Y0201544D01*
X0192566Y0201557D01*
X0192255Y0201578D01*
X0191944Y0201606D01*
X0191634Y0201643D01*
X0191325Y0201686D01*
X0191017Y0201737D01*
X0190710Y0201796D01*
X0190406Y0201862D01*
X0190102Y0201936D01*
X0189801Y0202017D01*
X0189502Y0202105D01*
X0189205Y0202201D01*
X0188910Y0202304D01*
X0188618Y0202414D01*
X0188329Y0202531D01*
X0188042Y0202655D01*
X0187759Y0202786D01*
X0187479Y0202924D01*
X0187203Y0203069D01*
X0186930Y0203221D01*
X0186661Y0203379D01*
X0186396Y0203544D01*
X0186135Y0203715D01*
X0185879Y0203892D01*
X0185626Y0204076D01*
X0185379Y0204266D01*
X0185136Y0204461D01*
X0184897Y0204663D01*
X0184664Y0204871D01*
X0184436Y0205084D01*
X0184214Y0205302D01*
X0183996Y0205526D01*
X0183785Y0205755D01*
X0183579Y0205990D01*
X0183378Y0206229D01*
X0183184Y0206473D01*
X0182996Y0206722D01*
X0182813Y0206975D01*
X0182637Y0207233D01*
X0182468Y0207495D01*
X0182305Y0207761D01*
X0182148Y0208031D01*
X0181998Y0208305D01*
X0181855Y0208582D01*
X0181718Y0208862D01*
X0181589Y0209146D01*
X0181466Y0209433D01*
X0181351Y0209723D01*
X0181243Y0210016D01*
X0181141Y0210311D01*
X0181047Y0210609D01*
X0180961Y0210909D01*
X0180882Y0211210D01*
X0180810Y0211514D01*
X0180745Y0211819D01*
X0180688Y0212126D01*
X0180639Y0212434D01*
X0180597Y0212744D01*
X0180563Y0213054D01*
X0180536Y0213365D01*
X0180517Y0213676D01*
X0180506Y0213988D01*
X0180502Y0214300D01*
X0180506Y0214612D01*
X0180517Y0214924D01*
X0180536Y0215235D01*
X0180563Y0215546D01*
X0180597Y0215856D01*
X0180639Y0216166D01*
X0180688Y0216474D01*
X0180745Y0216781D01*
X0180810Y0217086D01*
X0180882Y0217390D01*
X0180961Y0217691D01*
X0181047Y0217991D01*
X0181141Y0218289D01*
X0181243Y0218584D01*
X0181351Y0218877D01*
X0181466Y0219167D01*
X0181589Y0219454D01*
X0181718Y0219738D01*
X0181855Y0220018D01*
X0181998Y0220295D01*
X0182148Y0220569D01*
X0182305Y0220839D01*
X0182468Y0221105D01*
X0182637Y0221367D01*
X0182813Y0221625D01*
X0182996Y0221878D01*
X0183184Y0222127D01*
X0183378Y0222371D01*
X0183579Y0222610D01*
X0183785Y0222845D01*
X0183996Y0223074D01*
X0184214Y0223298D01*
X0184436Y0223516D01*
X0184664Y0223729D01*
X0184897Y0223937D01*
X0185136Y0224139D01*
X0185379Y0224334D01*
X0185626Y0224524D01*
X0185879Y0224708D01*
X0186135Y0224885D01*
X0186396Y0225056D01*
X0186661Y0225221D01*
X0186930Y0225379D01*
X0187203Y0225531D01*
X0187479Y0225676D01*
X0187759Y0225814D01*
X0188042Y0225945D01*
X0188329Y0226069D01*
X0188618Y0226186D01*
X0188910Y0226296D01*
X0189205Y0226399D01*
X0189502Y0226495D01*
X0189801Y0226583D01*
X0190102Y0226664D01*
X0190406Y0226738D01*
X0190710Y0226804D01*
X0191017Y0226863D01*
X0191325Y0226914D01*
X0191634Y0226957D01*
X0191944Y0226994D01*
X0192255Y0227022D01*
X0192566Y0227043D01*
X0192878Y0227056D01*
X0193190Y0227062D01*
X0193502Y0227060D01*
X0193814Y0227050D01*
X0194125Y0227033D01*
X0194436Y0227008D01*
X0194747Y0226976D01*
X0195056Y0226936D01*
X0195365Y0226888D01*
X0195672Y0226833D01*
X0195977Y0226770D01*
X0196281Y0226700D01*
X0196584Y0226623D01*
X0196884Y0226538D01*
X0197182Y0226446D01*
X0197478Y0226346D01*
X0197771Y0226240D01*
X0198062Y0226126D01*
X0198350Y0226005D01*
X0198634Y0225877D01*
X0198916Y0225742D01*
X0199194Y0225601D01*
X0199468Y0225452D01*
X0199739Y0225297D01*
X0200006Y0225136D01*
X0200269Y0224968D01*
X0200528Y0224793D01*
X0200782Y0224612D01*
X0201032Y0224426D01*
X0201277Y0224233D01*
X0201518Y0224034D01*
X0201753Y0223829D01*
X0201984Y0223619D01*
X0202209Y0223403D01*
X0202429Y0223181D01*
X0202643Y0222954D01*
X0202852Y0222723D01*
X0203055Y0222486D01*
X0203252Y0222244D01*
X0203444Y0221997D01*
X0203368Y0221941D01*
X0203178Y0222186D01*
X0202983Y0222426D01*
X0202781Y0222661D01*
X0202574Y0222891D01*
X0202361Y0223116D01*
X0202143Y0223336D01*
X0201919Y0223550D01*
X0201690Y0223759D01*
X0201457Y0223962D01*
X0201218Y0224160D01*
X0200975Y0224351D01*
X0200726Y0224537D01*
X0200474Y0224716D01*
X0200217Y0224889D01*
X0199956Y0225056D01*
X0199691Y0225217D01*
X0199422Y0225370D01*
X0199150Y0225518D01*
X0198874Y0225658D01*
X0198594Y0225792D01*
X0198312Y0225919D01*
X0198026Y0226039D01*
X0197738Y0226152D01*
X0197447Y0226258D01*
X0197153Y0226356D01*
X0196857Y0226448D01*
X0196559Y0226532D01*
X0196259Y0226609D01*
X0195957Y0226678D01*
X0195654Y0226741D01*
X0195349Y0226795D01*
X0195043Y0226843D01*
X0194735Y0226882D01*
X0194427Y0226914D01*
X0194119Y0226939D01*
X0193809Y0226956D01*
X0193500Y0226966D01*
X0193190Y0226968D01*
X0192880Y0226962D01*
X0192571Y0226949D01*
X0192262Y0226928D01*
X0191953Y0226900D01*
X0191646Y0226864D01*
X0191339Y0226821D01*
X0191033Y0226770D01*
X0190729Y0226712D01*
X0190426Y0226646D01*
X0190125Y0226573D01*
X0189826Y0226493D01*
X0189529Y0226405D01*
X0189234Y0226310D01*
X0188942Y0226208D01*
X0188652Y0226099D01*
X0188365Y0225982D01*
X0188081Y0225859D01*
X0187800Y0225729D01*
X0187522Y0225592D01*
X0187248Y0225448D01*
X0186977Y0225298D01*
X0186710Y0225141D01*
X0186447Y0224977D01*
X0186188Y0224807D01*
X0185933Y0224631D01*
X0185682Y0224449D01*
X0185437Y0224260D01*
X0185195Y0224066D01*
X0184959Y0223866D01*
X0184728Y0223660D01*
X0184501Y0223448D01*
X0184280Y0223231D01*
X0184065Y0223009D01*
X0183854Y0222782D01*
X0183650Y0222549D01*
X0183451Y0222311D01*
X0183258Y0222069D01*
X0183071Y0221822D01*
X0182890Y0221571D01*
X0182716Y0221315D01*
X0182547Y0221055D01*
X0182385Y0220791D01*
X0182230Y0220523D01*
X0182081Y0220251D01*
X0181939Y0219976D01*
X0181803Y0219697D01*
X0181675Y0219416D01*
X0181553Y0219131D01*
X0181439Y0218843D01*
X0181331Y0218552D01*
X0181231Y0218259D01*
X0181137Y0217964D01*
X0181051Y0217666D01*
X0180973Y0217367D01*
X0180902Y0217065D01*
X0180838Y0216762D01*
X0180781Y0216458D01*
X0180732Y0216152D01*
X0180691Y0215845D01*
X0180657Y0215537D01*
X0180630Y0215228D01*
X0180611Y0214919D01*
X0180600Y0214610D01*
X0180596Y0214300D01*
X0180600Y0213990D01*
X0180611Y0213681D01*
X0180630Y0213372D01*
X0180657Y0213063D01*
X0180691Y0212755D01*
X0180732Y0212448D01*
X0180781Y0212142D01*
X0180838Y0211838D01*
X0180902Y0211535D01*
X0180973Y0211233D01*
X0181051Y0210934D01*
X0181137Y0210636D01*
X0181231Y0210341D01*
X0181331Y0210048D01*
X0181439Y0209757D01*
X0181553Y0209469D01*
X0181675Y0209184D01*
X0181803Y0208903D01*
X0181939Y0208624D01*
X0182081Y0208349D01*
X0182230Y0208077D01*
X0182385Y0207809D01*
X0182547Y0207545D01*
X0182716Y0207285D01*
X0182890Y0207029D01*
X0183071Y0206778D01*
X0183258Y0206531D01*
X0183451Y0206289D01*
X0183650Y0206051D01*
X0183854Y0205818D01*
X0184065Y0205591D01*
X0184280Y0205369D01*
X0184501Y0205152D01*
X0184728Y0204940D01*
X0184959Y0204734D01*
X0185195Y0204534D01*
X0185437Y0204340D01*
X0185682Y0204151D01*
X0185933Y0203969D01*
X0186188Y0203793D01*
X0186447Y0203623D01*
X0186710Y0203459D01*
X0186977Y0203302D01*
X0187248Y0203152D01*
X0187522Y0203008D01*
X0187800Y0202871D01*
X0188081Y0202741D01*
X0188365Y0202618D01*
X0188652Y0202501D01*
X0188942Y0202392D01*
X0189234Y0202290D01*
X0189529Y0202195D01*
X0189826Y0202107D01*
X0190125Y0202027D01*
X0190426Y0201954D01*
X0190729Y0201888D01*
X0191033Y0201830D01*
X0191339Y0201779D01*
X0191646Y0201736D01*
X0191953Y0201700D01*
X0192262Y0201672D01*
X0192571Y0201651D01*
X0192880Y0201638D01*
X0193190Y0201632D01*
X0193500Y0201634D01*
X0193809Y0201644D01*
X0194119Y0201661D01*
X0194427Y0201686D01*
X0194735Y0201718D01*
X0195043Y0201757D01*
X0195349Y0201805D01*
X0195654Y0201859D01*
X0195957Y0201922D01*
X0196259Y0201991D01*
X0196559Y0202068D01*
X0196857Y0202152D01*
X0197153Y0202244D01*
X0197447Y0202342D01*
X0197738Y0202448D01*
X0198026Y0202561D01*
X0198312Y0202681D01*
X0198594Y0202808D01*
X0198874Y0202942D01*
X0199150Y0203082D01*
X0199422Y0203230D01*
X0199691Y0203383D01*
X0199956Y0203544D01*
X0200217Y0203711D01*
X0200474Y0203884D01*
X0200726Y0204063D01*
X0200975Y0204249D01*
X0201218Y0204440D01*
X0201457Y0204638D01*
X0201690Y0204841D01*
X0201919Y0205050D01*
X0202143Y0205264D01*
X0202361Y0205484D01*
X0202574Y0205709D01*
X0202781Y0205939D01*
X0202983Y0206174D01*
X0203178Y0206414D01*
X0203368Y0206659D01*
X0203293Y0206716D01*
X0203105Y0206473D01*
X0202910Y0206234D01*
X0202710Y0206001D01*
X0202505Y0205773D01*
X0202293Y0205549D01*
X0202077Y0205331D01*
X0201855Y0205118D01*
X0201628Y0204911D01*
X0201396Y0204709D01*
X0201159Y0204513D01*
X0200917Y0204323D01*
X0200671Y0204139D01*
X0200420Y0203961D01*
X0200165Y0203789D01*
X0199906Y0203624D01*
X0199643Y0203464D01*
X0199376Y0203312D01*
X0199106Y0203165D01*
X0198832Y0203026D01*
X0198555Y0202893D01*
X0198274Y0202767D01*
X0197991Y0202648D01*
X0197704Y0202536D01*
X0197415Y0202431D01*
X0197124Y0202333D01*
X0196830Y0202242D01*
X0196534Y0202159D01*
X0196237Y0202082D01*
X0195937Y0202013D01*
X0195636Y0201952D01*
X0195333Y0201897D01*
X0195029Y0201851D01*
X0194724Y0201811D01*
X0194419Y0201779D01*
X0194112Y0201755D01*
X0193805Y0201738D01*
X0193498Y0201728D01*
X0193190Y0201726D01*
X0192883Y0201732D01*
X0192576Y0201745D01*
X0192269Y0201765D01*
X0191963Y0201794D01*
X0191657Y0201829D01*
X0191353Y0201872D01*
X0191050Y0201923D01*
X0190748Y0201980D01*
X0190447Y0202046D01*
X0190148Y0202118D01*
X0189852Y0202198D01*
X0189557Y0202285D01*
X0189264Y0202379D01*
X0188974Y0202481D01*
X0188686Y0202589D01*
X0188401Y0202704D01*
X0188119Y0202827D01*
X0187840Y0202956D01*
X0187564Y0203092D01*
X0187292Y0203235D01*
X0187023Y0203384D01*
X0186758Y0203540D01*
X0186497Y0203702D01*
X0186240Y0203871D01*
X0185987Y0204046D01*
X0185739Y0204227D01*
X0185495Y0204414D01*
X0185255Y0204607D01*
X0185021Y0204805D01*
X0184791Y0205010D01*
X0184566Y0205220D01*
X0184347Y0205435D01*
X0184133Y0205656D01*
X0183924Y0205881D01*
X0183721Y0206112D01*
X0183524Y0206348D01*
X0183332Y0206589D01*
X0183147Y0206834D01*
X0182967Y0207083D01*
X0182794Y0207337D01*
X0182627Y0207595D01*
X0182466Y0207857D01*
X0182312Y0208123D01*
X0182164Y0208393D01*
X0182023Y0208666D01*
X0181888Y0208943D01*
X0181761Y0209222D01*
X0181640Y0209505D01*
X0181526Y0209791D01*
X0181420Y0210079D01*
X0181320Y0210370D01*
X0181227Y0210663D01*
X0181142Y0210959D01*
X0181064Y0211256D01*
X0180993Y0211555D01*
X0180930Y0211856D01*
X0180874Y0212158D01*
X0180825Y0212462D01*
X0180784Y0212767D01*
X0180750Y0213072D01*
X0180724Y0213378D01*
X0180705Y0213685D01*
X0180694Y0213993D01*
X0180690Y0214300D01*
X0180694Y0214607D01*
X0180705Y0214915D01*
X0180724Y0215222D01*
X0180750Y0215528D01*
X0180784Y0215833D01*
X0180825Y0216138D01*
X0180874Y0216442D01*
X0180930Y0216744D01*
X0180993Y0217045D01*
X0181064Y0217344D01*
X0181142Y0217641D01*
X0181227Y0217937D01*
X0181320Y0218230D01*
X0181420Y0218521D01*
X0181526Y0218809D01*
X0181640Y0219095D01*
X0181761Y0219378D01*
X0181888Y0219657D01*
X0182023Y0219934D01*
X0182164Y0220207D01*
X0182312Y0220477D01*
X0182466Y0220743D01*
X0182627Y0221005D01*
X0182794Y0221263D01*
X0182967Y0221517D01*
X0183147Y0221766D01*
X0183332Y0222011D01*
X0183524Y0222252D01*
X0183721Y0222488D01*
X0183924Y0222719D01*
X0184133Y0222944D01*
X0184347Y0223165D01*
X0184566Y0223380D01*
X0184791Y0223590D01*
X0185021Y0223795D01*
X0185255Y0223993D01*
X0185495Y0224186D01*
X0185739Y0224373D01*
X0185987Y0224554D01*
X0186240Y0224729D01*
X0186497Y0224898D01*
X0186758Y0225060D01*
X0187023Y0225216D01*
X0187292Y0225365D01*
X0187564Y0225508D01*
X0187840Y0225644D01*
X0188119Y0225773D01*
X0188401Y0225896D01*
X0188686Y0226011D01*
X0188974Y0226119D01*
X0189264Y0226221D01*
X0189557Y0226315D01*
X0189852Y0226402D01*
X0190148Y0226482D01*
X0190447Y0226554D01*
X0190748Y0226620D01*
X0191050Y0226677D01*
X0191353Y0226728D01*
X0191657Y0226771D01*
X0191963Y0226806D01*
X0192269Y0226835D01*
X0192576Y0226855D01*
X0192883Y0226868D01*
X0193190Y0226874D01*
X0193498Y0226872D01*
X0193805Y0226862D01*
X0194112Y0226845D01*
X0194419Y0226821D01*
X0194724Y0226789D01*
X0195029Y0226749D01*
X0195333Y0226703D01*
X0195636Y0226648D01*
X0195937Y0226587D01*
X0196237Y0226518D01*
X0196534Y0226441D01*
X0196830Y0226358D01*
X0197124Y0226267D01*
X0197415Y0226169D01*
X0197704Y0226064D01*
X0197991Y0225952D01*
X0198274Y0225833D01*
X0198555Y0225707D01*
X0198832Y0225574D01*
X0199106Y0225435D01*
X0199376Y0225288D01*
X0199643Y0225136D01*
X0199906Y0224976D01*
X0200165Y0224811D01*
X0200420Y0224639D01*
X0200671Y0224461D01*
X0200917Y0224277D01*
X0201159Y0224087D01*
X0201396Y0223891D01*
X0201628Y0223689D01*
X0201855Y0223482D01*
X0202077Y0223269D01*
X0202293Y0223051D01*
X0202505Y0222827D01*
X0202710Y0222599D01*
X0202910Y0222366D01*
X0203105Y0222127D01*
X0203293Y0221884D01*
X0203218Y0221828D01*
X0203031Y0222069D01*
X0202838Y0222306D01*
X0202639Y0222537D01*
X0202435Y0222764D01*
X0202226Y0222986D01*
X0202011Y0223202D01*
X0201790Y0223413D01*
X0201565Y0223619D01*
X0201335Y0223819D01*
X0201099Y0224014D01*
X0200860Y0224202D01*
X0200615Y0224385D01*
X0200366Y0224562D01*
X0200113Y0224732D01*
X0199856Y0224897D01*
X0199595Y0225055D01*
X0199330Y0225206D01*
X0199062Y0225351D01*
X0198790Y0225490D01*
X0198515Y0225622D01*
X0198236Y0225747D01*
X0197955Y0225865D01*
X0197671Y0225976D01*
X0197384Y0226080D01*
X0197095Y0226178D01*
X0196803Y0226268D01*
X0196510Y0226351D01*
X0196214Y0226426D01*
X0195917Y0226495D01*
X0195618Y0226556D01*
X0195317Y0226610D01*
X0195016Y0226656D01*
X0194713Y0226696D01*
X0194410Y0226727D01*
X0194105Y0226752D01*
X0193801Y0226768D01*
X0193496Y0226778D01*
X0193191Y0226780D01*
X0192886Y0226774D01*
X0192581Y0226761D01*
X0192276Y0226741D01*
X0191972Y0226713D01*
X0191669Y0226678D01*
X0191367Y0226635D01*
X0191066Y0226585D01*
X0190766Y0226528D01*
X0190468Y0226463D01*
X0190172Y0226391D01*
X0189877Y0226312D01*
X0189584Y0226225D01*
X0189294Y0226132D01*
X0189006Y0226031D01*
X0188720Y0225923D01*
X0188437Y0225809D01*
X0188157Y0225687D01*
X0187880Y0225559D01*
X0187607Y0225424D01*
X0187337Y0225283D01*
X0187070Y0225134D01*
X0186807Y0224980D01*
X0186548Y0224819D01*
X0186292Y0224651D01*
X0186041Y0224478D01*
X0185795Y0224298D01*
X0185553Y0224112D01*
X0185315Y0223921D01*
X0185082Y0223724D01*
X0184854Y0223521D01*
X0184631Y0223312D01*
X0184413Y0223099D01*
X0184201Y0222880D01*
X0183994Y0222656D01*
X0183792Y0222426D01*
X0183596Y0222192D01*
X0183406Y0221954D01*
X0183222Y0221710D01*
X0183044Y0221463D01*
X0182872Y0221211D01*
X0182706Y0220954D01*
X0182547Y0220694D01*
X0182393Y0220430D01*
X0182247Y0220163D01*
X0182107Y0219892D01*
X0181973Y0219617D01*
X0181847Y0219340D01*
X0181727Y0219059D01*
X0181614Y0218775D01*
X0181508Y0218489D01*
X0181409Y0218201D01*
X0181317Y0217910D01*
X0181233Y0217616D01*
X0181155Y0217321D01*
X0181085Y0217024D01*
X0181022Y0216726D01*
X0180966Y0216426D01*
X0180918Y0216124D01*
X0180877Y0215822D01*
X0180844Y0215519D01*
X0180818Y0215215D01*
X0180799Y0214910D01*
X0180788Y0214605D01*
X0180784Y0214300D01*
X0180788Y0213995D01*
X0180799Y0213690D01*
X0180818Y0213385D01*
X0180844Y0213081D01*
X0180877Y0212778D01*
X0180918Y0212476D01*
X0180966Y0212174D01*
X0181022Y0211874D01*
X0181085Y0211576D01*
X0181155Y0211279D01*
X0181233Y0210984D01*
X0181317Y0210690D01*
X0181409Y0210399D01*
X0181508Y0210111D01*
X0181614Y0209825D01*
X0181727Y0209541D01*
X0181847Y0209260D01*
X0181973Y0208983D01*
X0182107Y0208708D01*
X0182247Y0208437D01*
X0182393Y0208170D01*
X0182547Y0207906D01*
X0182706Y0207646D01*
X0182872Y0207389D01*
X0183044Y0207137D01*
X0183222Y0206890D01*
X0183406Y0206646D01*
X0183596Y0206408D01*
X0183792Y0206174D01*
X0183994Y0205944D01*
X0184201Y0205720D01*
X0184413Y0205501D01*
X0184631Y0205288D01*
X0184854Y0205079D01*
X0185082Y0204876D01*
X0185315Y0204679D01*
X0185553Y0204488D01*
X0185795Y0204302D01*
X0186041Y0204122D01*
X0186292Y0203949D01*
X0186548Y0203781D01*
X0186807Y0203620D01*
X0187070Y0203466D01*
X0187337Y0203317D01*
X0187607Y0203176D01*
X0187880Y0203041D01*
X0188157Y0202913D01*
X0188437Y0202791D01*
X0188720Y0202677D01*
X0189006Y0202569D01*
X0189294Y0202468D01*
X0189584Y0202375D01*
X0189877Y0202288D01*
X0190172Y0202209D01*
X0190468Y0202137D01*
X0190766Y0202072D01*
X0191066Y0202015D01*
X0191367Y0201965D01*
X0191669Y0201922D01*
X0191972Y0201887D01*
X0192276Y0201859D01*
X0192581Y0201839D01*
X0192886Y0201826D01*
X0193191Y0201820D01*
X0193496Y0201822D01*
X0193801Y0201832D01*
X0194105Y0201848D01*
X0194410Y0201873D01*
X0194713Y0201904D01*
X0195016Y0201944D01*
X0195317Y0201990D01*
X0195618Y0202044D01*
X0195917Y0202105D01*
X0196214Y0202174D01*
X0196510Y0202249D01*
X0196803Y0202332D01*
X0197095Y0202422D01*
X0197384Y0202520D01*
X0197671Y0202624D01*
X0197955Y0202735D01*
X0198236Y0202853D01*
X0198515Y0202978D01*
X0198790Y0203110D01*
X0199062Y0203249D01*
X0199330Y0203394D01*
X0199595Y0203545D01*
X0199856Y0203703D01*
X0200113Y0203868D01*
X0200366Y0204038D01*
X0200615Y0204215D01*
X0200860Y0204398D01*
X0201099Y0204586D01*
X0201335Y0204781D01*
X0201565Y0204981D01*
X0201790Y0205187D01*
X0202011Y0205398D01*
X0202226Y0205614D01*
X0202435Y0205836D01*
X0202639Y0206063D01*
X0202838Y0206294D01*
X0203031Y0206531D01*
X0203218Y0206772D01*
X0203143Y0206828D01*
X0202957Y0206589D01*
X0202766Y0206354D01*
X0202569Y0206125D01*
X0202366Y0205900D01*
X0202158Y0205679D01*
X0201944Y0205465D01*
X0201726Y0205255D01*
X0201502Y0205051D01*
X0201274Y0204852D01*
X0201040Y0204659D01*
X0200802Y0204472D01*
X0200560Y0204291D01*
X0200313Y0204115D01*
X0200062Y0203946D01*
X0199806Y0203783D01*
X0199547Y0203626D01*
X0199284Y0203476D01*
X0199018Y0203332D01*
X0198748Y0203194D01*
X0198475Y0203063D01*
X0198199Y0202939D01*
X0197919Y0202822D01*
X0197637Y0202712D01*
X0197353Y0202608D01*
X0197066Y0202512D01*
X0196776Y0202422D01*
X0196485Y0202340D01*
X0196192Y0202265D01*
X0195896Y0202197D01*
X0195600Y0202136D01*
X0195302Y0202083D01*
X0195002Y0202037D01*
X0194702Y0201998D01*
X0194401Y0201966D01*
X0194099Y0201942D01*
X0193796Y0201925D01*
X0193494Y0201916D01*
X0193191Y0201914D01*
X0192888Y0201920D01*
X0192586Y0201933D01*
X0192283Y0201953D01*
X0191982Y0201981D01*
X0191681Y0202016D01*
X0191381Y0202058D01*
X0191082Y0202108D01*
X0190785Y0202165D01*
X0190489Y0202229D01*
X0190195Y0202300D01*
X0189902Y0202379D01*
X0189612Y0202465D01*
X0189323Y0202558D01*
X0189038Y0202657D01*
X0188754Y0202764D01*
X0188474Y0202878D01*
X0188196Y0202998D01*
X0187921Y0203126D01*
X0187649Y0203260D01*
X0187381Y0203400D01*
X0187116Y0203547D01*
X0186855Y0203701D01*
X0186598Y0203861D01*
X0186345Y0204027D01*
X0186096Y0204199D01*
X0185851Y0204377D01*
X0185610Y0204562D01*
X0185375Y0204752D01*
X0185144Y0204947D01*
X0184917Y0205149D01*
X0184696Y0205355D01*
X0184480Y0205568D01*
X0184269Y0205785D01*
X0184064Y0206007D01*
X0183864Y0206235D01*
X0183669Y0206467D01*
X0183481Y0206704D01*
X0183298Y0206946D01*
X0183121Y0207191D01*
X0182950Y0207442D01*
X0182786Y0207696D01*
X0182627Y0207954D01*
X0182475Y0208216D01*
X0182330Y0208481D01*
X0182191Y0208750D01*
X0182058Y0209023D01*
X0181933Y0209298D01*
X0181814Y0209577D01*
X0181702Y0209858D01*
X0181597Y0210142D01*
X0181498Y0210429D01*
X0181407Y0210718D01*
X0181323Y0211009D01*
X0181246Y0211302D01*
X0181177Y0211596D01*
X0181114Y0211893D01*
X0181059Y0212190D01*
X0181011Y0212489D01*
X0180970Y0212789D01*
X0180937Y0213091D01*
X0180911Y0213392D01*
X0180893Y0213695D01*
X0180882Y0213997D01*
X0180878Y0214300D01*
X0180882Y0214603D01*
X0180893Y0214905D01*
X0180911Y0215208D01*
X0180937Y0215509D01*
X0180970Y0215811D01*
X0181011Y0216111D01*
X0181059Y0216410D01*
X0181114Y0216707D01*
X0181177Y0217004D01*
X0181246Y0217298D01*
X0181323Y0217591D01*
X0181407Y0217882D01*
X0181498Y0218171D01*
X0181597Y0218458D01*
X0181702Y0218742D01*
X0181814Y0219023D01*
X0181933Y0219302D01*
X0182058Y0219577D01*
X0182191Y0219850D01*
X0182330Y0220119D01*
X0182475Y0220384D01*
X0182627Y0220646D01*
X0182786Y0220904D01*
X0182950Y0221158D01*
X0183121Y0221409D01*
X0183298Y0221654D01*
X0183481Y0221896D01*
X0183669Y0222133D01*
X0183864Y0222365D01*
X0184064Y0222593D01*
X0184269Y0222815D01*
X0184480Y0223032D01*
X0184696Y0223245D01*
X0184917Y0223451D01*
X0185144Y0223653D01*
X0185375Y0223848D01*
X0185610Y0224038D01*
X0185851Y0224223D01*
X0186096Y0224401D01*
X0186345Y0224573D01*
X0186598Y0224739D01*
X0186855Y0224899D01*
X0187116Y0225053D01*
X0187381Y0225200D01*
X0187649Y0225340D01*
X0187921Y0225474D01*
X0188196Y0225602D01*
X0188474Y0225722D01*
X0188754Y0225836D01*
X0189038Y0225943D01*
X0189323Y0226042D01*
X0189612Y0226135D01*
X0189902Y0226221D01*
X0190195Y0226300D01*
X0190489Y0226371D01*
X0190785Y0226435D01*
X0191082Y0226492D01*
X0191381Y0226542D01*
X0191681Y0226584D01*
X0191982Y0226619D01*
X0192283Y0226647D01*
X0192586Y0226667D01*
X0192888Y0226680D01*
X0193191Y0226686D01*
X0193494Y0226684D01*
X0193796Y0226675D01*
X0194099Y0226658D01*
X0194401Y0226634D01*
X0194702Y0226602D01*
X0195002Y0226563D01*
X0195302Y0226517D01*
X0195600Y0226464D01*
X0195896Y0226403D01*
X0196192Y0226335D01*
X0196485Y0226260D01*
X0196776Y0226178D01*
X0197066Y0226088D01*
X0197353Y0225992D01*
X0197637Y0225888D01*
X0197919Y0225778D01*
X0198199Y0225661D01*
X0198475Y0225537D01*
X0198748Y0225406D01*
X0199018Y0225268D01*
X0199284Y0225124D01*
X0199547Y0224974D01*
X0199806Y0224817D01*
X0200062Y0224654D01*
X0200313Y0224485D01*
X0200560Y0224309D01*
X0200802Y0224128D01*
X0201040Y0223941D01*
X0201274Y0223748D01*
X0201502Y0223549D01*
X0201726Y0223345D01*
X0201944Y0223135D01*
X0202158Y0222921D01*
X0202366Y0222700D01*
X0202569Y0222475D01*
X0202766Y0222246D01*
X0202957Y0222011D01*
X0203143Y0221772D01*
X0203068Y0221715D01*
X0202883Y0221953D01*
X0202693Y0222185D01*
X0202498Y0222414D01*
X0202297Y0222637D01*
X0202090Y0222855D01*
X0201878Y0223069D01*
X0201661Y0223277D01*
X0201439Y0223479D01*
X0201212Y0223676D01*
X0200981Y0223868D01*
X0200745Y0224054D01*
X0200504Y0224234D01*
X0200259Y0224408D01*
X0200010Y0224576D01*
X0199756Y0224738D01*
X0199499Y0224893D01*
X0199238Y0225042D01*
X0198974Y0225185D01*
X0198706Y0225322D01*
X0198435Y0225451D01*
X0198161Y0225574D01*
X0197884Y0225691D01*
X0197604Y0225800D01*
X0197321Y0225903D01*
X0197037Y0225999D01*
X0196749Y0226087D01*
X0196460Y0226169D01*
X0196169Y0226244D01*
X0195876Y0226311D01*
X0195582Y0226372D01*
X0195286Y0226425D01*
X0194989Y0226470D01*
X0194691Y0226509D01*
X0194392Y0226540D01*
X0194092Y0226564D01*
X0193792Y0226581D01*
X0193492Y0226590D01*
X0193191Y0226592D01*
X0192891Y0226586D01*
X0192590Y0226574D01*
X0192291Y0226553D01*
X0191991Y0226526D01*
X0191693Y0226491D01*
X0191395Y0226449D01*
X0191099Y0226400D01*
X0190804Y0226343D01*
X0190510Y0226279D01*
X0190218Y0226209D01*
X0189928Y0226131D01*
X0189639Y0226045D01*
X0189353Y0225953D01*
X0189069Y0225854D01*
X0188788Y0225748D01*
X0188510Y0225635D01*
X0188234Y0225516D01*
X0187961Y0225389D01*
X0187692Y0225256D01*
X0187426Y0225117D01*
X0187163Y0224971D01*
X0186904Y0224819D01*
X0186648Y0224660D01*
X0186397Y0224495D01*
X0186150Y0224324D01*
X0185907Y0224147D01*
X0185668Y0223964D01*
X0185434Y0223776D01*
X0185205Y0223582D01*
X0184981Y0223382D01*
X0184761Y0223177D01*
X0184547Y0222966D01*
X0184337Y0222750D01*
X0184133Y0222530D01*
X0183935Y0222304D01*
X0183742Y0222073D01*
X0183555Y0221838D01*
X0183373Y0221599D01*
X0183198Y0221355D01*
X0183028Y0221106D01*
X0182865Y0220854D01*
X0182708Y0220598D01*
X0182557Y0220338D01*
X0182413Y0220074D01*
X0182275Y0219807D01*
X0182143Y0219537D01*
X0182019Y0219264D01*
X0181901Y0218987D01*
X0181790Y0218708D01*
X0181685Y0218426D01*
X0181588Y0218142D01*
X0181497Y0217855D01*
X0181414Y0217566D01*
X0181338Y0217276D01*
X0181268Y0216983D01*
X0181206Y0216689D01*
X0181152Y0216394D01*
X0181104Y0216097D01*
X0181064Y0215799D01*
X0181031Y0215500D01*
X0181005Y0215201D01*
X0180987Y0214901D01*
X0180976Y0214601D01*
X0180972Y0214300D01*
X0180976Y0213999D01*
X0180987Y0213699D01*
X0181005Y0213399D01*
X0181031Y0213100D01*
X0181064Y0212801D01*
X0181104Y0212503D01*
X0181152Y0212206D01*
X0181206Y0211911D01*
X0181268Y0211617D01*
X0181338Y0211324D01*
X0181414Y0211034D01*
X0181497Y0210745D01*
X0181588Y0210458D01*
X0181685Y0210174D01*
X0181790Y0209892D01*
X0181901Y0209613D01*
X0182019Y0209336D01*
X0182143Y0209063D01*
X0182275Y0208793D01*
X0182413Y0208526D01*
X0182557Y0208262D01*
X0182708Y0208002D01*
X0182865Y0207746D01*
X0183028Y0207494D01*
X0183198Y0207245D01*
X0183373Y0207001D01*
X0183555Y0206762D01*
X0183742Y0206527D01*
X0183935Y0206296D01*
X0184133Y0206070D01*
X0184337Y0205850D01*
X0184547Y0205634D01*
X0184761Y0205423D01*
X0184981Y0205218D01*
X0185205Y0205018D01*
X0185434Y0204824D01*
X0185668Y0204636D01*
X0185907Y0204453D01*
X0186150Y0204276D01*
X0186397Y0204105D01*
X0186648Y0203940D01*
X0186904Y0203781D01*
X0187163Y0203629D01*
X0187426Y0203483D01*
X0187692Y0203344D01*
X0187961Y0203211D01*
X0188234Y0203084D01*
X0188510Y0202965D01*
X0188788Y0202852D01*
X0189069Y0202746D01*
X0189353Y0202647D01*
X0189639Y0202555D01*
X0189928Y0202469D01*
X0190218Y0202391D01*
X0190510Y0202321D01*
X0190804Y0202257D01*
X0191099Y0202200D01*
X0191395Y0202151D01*
X0191693Y0202109D01*
X0191991Y0202074D01*
X0192291Y0202047D01*
X0192590Y0202026D01*
X0192891Y0202014D01*
X0193191Y0202008D01*
X0193492Y0202010D01*
X0193792Y0202019D01*
X0194092Y0202036D01*
X0194392Y0202060D01*
X0194691Y0202091D01*
X0194989Y0202130D01*
X0195286Y0202175D01*
X0195582Y0202228D01*
X0195876Y0202289D01*
X0196169Y0202356D01*
X0196460Y0202431D01*
X0196749Y0202513D01*
X0197037Y0202601D01*
X0197321Y0202697D01*
X0197604Y0202800D01*
X0197884Y0202909D01*
X0198161Y0203026D01*
X0198435Y0203149D01*
X0198706Y0203278D01*
X0198974Y0203415D01*
X0199238Y0203558D01*
X0199499Y0203707D01*
X0199756Y0203862D01*
X0200010Y0204024D01*
X0200259Y0204192D01*
X0200504Y0204366D01*
X0200745Y0204546D01*
X0200981Y0204732D01*
X0201212Y0204924D01*
X0201439Y0205121D01*
X0201661Y0205323D01*
X0201878Y0205531D01*
X0202090Y0205745D01*
X0202297Y0205963D01*
X0202498Y0206186D01*
X0202693Y0206415D01*
X0202883Y0206647D01*
X0203068Y0206885D01*
X0202992Y0206941D01*
X0202810Y0206706D01*
X0202621Y0206475D01*
X0202427Y0206248D01*
X0202227Y0206026D01*
X0202022Y0205810D01*
X0201812Y0205598D01*
X0201597Y0205392D01*
X0201377Y0205191D01*
X0201151Y0204995D01*
X0200922Y0204805D01*
X0200687Y0204621D01*
X0200448Y0204442D01*
X0200205Y0204269D01*
X0199958Y0204103D01*
X0199706Y0203942D01*
X0199451Y0203788D01*
X0199192Y0203640D01*
X0198930Y0203498D01*
X0198664Y0203363D01*
X0198395Y0203234D01*
X0198123Y0203112D01*
X0197848Y0202996D01*
X0197570Y0202887D01*
X0197290Y0202786D01*
X0197007Y0202691D01*
X0196722Y0202603D01*
X0196435Y0202522D01*
X0196147Y0202447D01*
X0195856Y0202381D01*
X0195564Y0202321D01*
X0195270Y0202268D01*
X0194975Y0202223D01*
X0194680Y0202184D01*
X0194383Y0202153D01*
X0194086Y0202130D01*
X0193788Y0202113D01*
X0193490Y0202104D01*
X0193192Y0202102D01*
X0192893Y0202108D01*
X0192595Y0202120D01*
X0192298Y0202140D01*
X0192001Y0202168D01*
X0191705Y0202202D01*
X0191409Y0202244D01*
X0191115Y0202293D01*
X0190822Y0202349D01*
X0190531Y0202412D01*
X0190241Y0202483D01*
X0189953Y0202560D01*
X0189667Y0202644D01*
X0189383Y0202736D01*
X0189101Y0202834D01*
X0188822Y0202939D01*
X0188546Y0203051D01*
X0188272Y0203170D01*
X0188002Y0203295D01*
X0187734Y0203427D01*
X0187470Y0203566D01*
X0187209Y0203711D01*
X0186952Y0203862D01*
X0186699Y0204019D01*
X0186450Y0204183D01*
X0186204Y0204353D01*
X0185963Y0204528D01*
X0185726Y0204710D01*
X0185494Y0204897D01*
X0185267Y0205089D01*
X0185044Y0205288D01*
X0184826Y0205491D01*
X0184613Y0205700D01*
X0184405Y0205914D01*
X0184203Y0206134D01*
X0184006Y0206357D01*
X0183815Y0206586D01*
X0183629Y0206820D01*
X0183449Y0207057D01*
X0183275Y0207299D01*
X0183107Y0207546D01*
X0182945Y0207796D01*
X0182789Y0208050D01*
X0182639Y0208308D01*
X0182496Y0208570D01*
X0182359Y0208835D01*
X0182228Y0209103D01*
X0182105Y0209374D01*
X0181988Y0209649D01*
X0181877Y0209926D01*
X0181774Y0210206D01*
X0181677Y0210488D01*
X0181587Y0210772D01*
X0181505Y0211059D01*
X0181429Y0211347D01*
X0181360Y0211637D01*
X0181299Y0211929D01*
X0181244Y0212222D01*
X0181197Y0212517D01*
X0181157Y0212812D01*
X0181124Y0213109D01*
X0181099Y0213406D01*
X0181081Y0213704D01*
X0181070Y0214002D01*
X0181066Y0214300D01*
X0181070Y0214598D01*
X0181081Y0214896D01*
X0181099Y0215194D01*
X0181124Y0215491D01*
X0181157Y0215788D01*
X0181197Y0216083D01*
X0181244Y0216378D01*
X0181299Y0216671D01*
X0181360Y0216963D01*
X0181429Y0217253D01*
X0181505Y0217541D01*
X0181587Y0217828D01*
X0181677Y0218112D01*
X0181774Y0218394D01*
X0181877Y0218674D01*
X0181988Y0218951D01*
X0182105Y0219226D01*
X0182228Y0219497D01*
X0182359Y0219765D01*
X0182496Y0220030D01*
X0182639Y0220292D01*
X0182789Y0220550D01*
X0182945Y0220804D01*
X0183107Y0221054D01*
X0183275Y0221301D01*
X0183449Y0221543D01*
X0183629Y0221780D01*
X0183815Y0222014D01*
X0184006Y0222243D01*
X0184203Y0222466D01*
X0184405Y0222686D01*
X0184613Y0222900D01*
X0184826Y0223109D01*
X0185044Y0223312D01*
X0185267Y0223511D01*
X0185494Y0223703D01*
X0185726Y0223890D01*
X0185963Y0224072D01*
X0186204Y0224247D01*
X0186450Y0224417D01*
X0186699Y0224581D01*
X0186952Y0224738D01*
X0187209Y0224889D01*
X0187470Y0225034D01*
X0187734Y0225173D01*
X0188002Y0225305D01*
X0188272Y0225430D01*
X0188546Y0225549D01*
X0188822Y0225661D01*
X0189101Y0225766D01*
X0189383Y0225864D01*
X0189667Y0225956D01*
X0189953Y0226040D01*
X0190241Y0226117D01*
X0190531Y0226188D01*
X0190822Y0226251D01*
X0191115Y0226307D01*
X0191409Y0226356D01*
X0191705Y0226398D01*
X0192001Y0226432D01*
X0192298Y0226460D01*
X0192595Y0226480D01*
X0192893Y0226492D01*
X0193192Y0226498D01*
X0193490Y0226496D01*
X0193788Y0226487D01*
X0194086Y0226470D01*
X0194383Y0226447D01*
X0194680Y0226416D01*
X0194975Y0226377D01*
X0195270Y0226332D01*
X0195564Y0226279D01*
X0195856Y0226219D01*
X0196147Y0226153D01*
X0196435Y0226078D01*
X0196722Y0225997D01*
X0197007Y0225909D01*
X0197290Y0225814D01*
X0197570Y0225713D01*
X0197848Y0225604D01*
X0198123Y0225488D01*
X0198395Y0225366D01*
X0198664Y0225237D01*
X0198930Y0225102D01*
X0199192Y0224960D01*
X0199451Y0224812D01*
X0199706Y0224658D01*
X0199958Y0224497D01*
X0200205Y0224331D01*
X0200448Y0224158D01*
X0200687Y0223979D01*
X0200922Y0223795D01*
X0201151Y0223605D01*
X0201377Y0223409D01*
X0201597Y0223208D01*
X0201812Y0223002D01*
X0202022Y0222790D01*
X0202227Y0222574D01*
X0202427Y0222352D01*
X0202621Y0222125D01*
X0202810Y0221894D01*
X0202992Y0221659D01*
X0202917Y0221602D01*
X0202736Y0221836D01*
X0202549Y0222065D01*
X0202356Y0222290D01*
X0202158Y0222510D01*
X0201955Y0222725D01*
X0201746Y0222935D01*
X0201532Y0223140D01*
X0201314Y0223339D01*
X0201090Y0223533D01*
X0200862Y0223722D01*
X0200630Y0223905D01*
X0200393Y0224082D01*
X0200151Y0224253D01*
X0199906Y0224419D01*
X0199657Y0224578D01*
X0199403Y0224731D01*
X0199147Y0224878D01*
X0198886Y0225019D01*
X0198622Y0225153D01*
X0198355Y0225281D01*
X0198085Y0225402D01*
X0197813Y0225517D01*
X0197537Y0225625D01*
X0197259Y0225726D01*
X0196978Y0225820D01*
X0196696Y0225907D01*
X0196411Y0225988D01*
X0196124Y0226061D01*
X0195836Y0226128D01*
X0195546Y0226187D01*
X0195254Y0226239D01*
X0194962Y0226284D01*
X0194668Y0226322D01*
X0194374Y0226353D01*
X0194079Y0226377D01*
X0193784Y0226393D01*
X0193488Y0226402D01*
X0193192Y0226404D01*
X0192896Y0226398D01*
X0192600Y0226386D01*
X0192305Y0226366D01*
X0192010Y0226339D01*
X0191716Y0226305D01*
X0191423Y0226263D01*
X0191131Y0226215D01*
X0190841Y0226159D01*
X0190552Y0226096D01*
X0190264Y0226026D01*
X0189978Y0225949D01*
X0189694Y0225866D01*
X0189413Y0225775D01*
X0189133Y0225677D01*
X0188856Y0225573D01*
X0188582Y0225462D01*
X0188311Y0225344D01*
X0188042Y0225220D01*
X0187777Y0225089D01*
X0187515Y0224951D01*
X0187256Y0224808D01*
X0187001Y0224658D01*
X0186749Y0224501D01*
X0186502Y0224339D01*
X0186259Y0224171D01*
X0186019Y0223996D01*
X0185784Y0223816D01*
X0185554Y0223631D01*
X0185328Y0223439D01*
X0185107Y0223243D01*
X0184891Y0223041D01*
X0184680Y0222833D01*
X0184474Y0222621D01*
X0184273Y0222403D01*
X0184077Y0222181D01*
X0183887Y0221954D01*
X0183703Y0221723D01*
X0183525Y0221487D01*
X0183352Y0221247D01*
X0183185Y0221002D01*
X0183024Y0220754D01*
X0182869Y0220501D01*
X0182721Y0220245D01*
X0182579Y0219986D01*
X0182443Y0219723D01*
X0182313Y0219457D01*
X0182191Y0219188D01*
X0182074Y0218915D01*
X0181965Y0218640D01*
X0181862Y0218363D01*
X0181766Y0218083D01*
X0181677Y0217801D01*
X0181595Y0217516D01*
X0181520Y0217230D01*
X0181452Y0216942D01*
X0181391Y0216653D01*
X0181337Y0216362D01*
X0181290Y0216069D01*
X0181250Y0215776D01*
X0181218Y0215482D01*
X0181193Y0215187D01*
X0181174Y0214892D01*
X0181164Y0214596D01*
X0181160Y0214300D01*
X0181164Y0214004D01*
X0181174Y0213708D01*
X0181193Y0213413D01*
X0181218Y0213118D01*
X0181250Y0212824D01*
X0181290Y0212531D01*
X0181337Y0212238D01*
X0181391Y0211947D01*
X0181452Y0211658D01*
X0181520Y0211370D01*
X0181595Y0211084D01*
X0181677Y0210799D01*
X0181766Y0210517D01*
X0181862Y0210237D01*
X0181965Y0209960D01*
X0182074Y0209685D01*
X0182191Y0209412D01*
X0182313Y0209143D01*
X0182443Y0208877D01*
X0182579Y0208614D01*
X0182721Y0208355D01*
X0182869Y0208099D01*
X0183024Y0207846D01*
X0183185Y0207598D01*
X0183352Y0207353D01*
X0183525Y0207113D01*
X0183703Y0206877D01*
X0183887Y0206646D01*
X0184077Y0206419D01*
X0184273Y0206197D01*
X0184474Y0205979D01*
X0184680Y0205767D01*
X0184891Y0205559D01*
X0185107Y0205357D01*
X0185328Y0205161D01*
X0185554Y0204969D01*
X0185784Y0204784D01*
X0186019Y0204604D01*
X0186259Y0204429D01*
X0186502Y0204261D01*
X0186749Y0204099D01*
X0187001Y0203942D01*
X0187256Y0203792D01*
X0187515Y0203649D01*
X0187777Y0203511D01*
X0188042Y0203380D01*
X0188311Y0203256D01*
X0188582Y0203138D01*
X0188856Y0203027D01*
X0189133Y0202923D01*
X0189413Y0202825D01*
X0189694Y0202734D01*
X0189978Y0202651D01*
X0190264Y0202574D01*
X0190552Y0202504D01*
X0190841Y0202441D01*
X0191131Y0202385D01*
X0191423Y0202337D01*
X0191716Y0202295D01*
X0192010Y0202261D01*
X0192305Y0202234D01*
X0192600Y0202214D01*
X0192896Y0202202D01*
X0193192Y0202196D01*
X0193488Y0202198D01*
X0193784Y0202207D01*
X0194079Y0202223D01*
X0194374Y0202247D01*
X0194668Y0202278D01*
X0194962Y0202316D01*
X0195254Y0202361D01*
X0195546Y0202413D01*
X0195836Y0202472D01*
X0196124Y0202539D01*
X0196411Y0202612D01*
X0196696Y0202693D01*
X0196978Y0202780D01*
X0197259Y0202874D01*
X0197537Y0202975D01*
X0197813Y0203083D01*
X0198085Y0203198D01*
X0198355Y0203319D01*
X0198622Y0203447D01*
X0198886Y0203581D01*
X0199147Y0203722D01*
X0199403Y0203869D01*
X0199657Y0204022D01*
X0199906Y0204181D01*
X0200151Y0204347D01*
X0200393Y0204518D01*
X0200630Y0204695D01*
X0200862Y0204878D01*
X0201090Y0205067D01*
X0201314Y0205261D01*
X0201532Y0205460D01*
X0201746Y0205665D01*
X0201955Y0205875D01*
X0202158Y0206090D01*
X0202356Y0206310D01*
X0202549Y0206535D01*
X0202736Y0206764D01*
X0202917Y0206998D01*
D15*
X0184926Y0175422D02*
X0226602Y0175422D01*
X0229386Y0172638D01*
X0229386Y0130962D01*
X0226602Y0128178D01*
X0184926Y0128178D01*
X0182142Y0130962D01*
X0182142Y0172638D01*
X0184926Y0175422D01*
X0180173Y0151800D02*
X0180181Y0152428D01*
X0180204Y0153056D01*
X0180242Y0153683D01*
X0180296Y0154308D01*
X0180365Y0154933D01*
X0180450Y0155555D01*
X0180550Y0156175D01*
X0180665Y0156793D01*
X0180795Y0157407D01*
X0180940Y0158018D01*
X0181100Y0158625D01*
X0181275Y0159229D01*
X0181465Y0159827D01*
X0181669Y0160421D01*
X0181888Y0161010D01*
X0182121Y0161593D01*
X0182368Y0162171D01*
X0182630Y0162742D01*
X0182905Y0163306D01*
X0183195Y0163864D01*
X0183498Y0164414D01*
X0183814Y0164956D01*
X0184143Y0165491D01*
X0184486Y0166018D01*
X0184841Y0166536D01*
X0185209Y0167045D01*
X0185589Y0167544D01*
X0185982Y0168035D01*
X0186386Y0168515D01*
X0186802Y0168986D01*
X0187230Y0169446D01*
X0187668Y0169896D01*
X0188118Y0170334D01*
X0188578Y0170762D01*
X0189049Y0171178D01*
X0189529Y0171582D01*
X0190020Y0171975D01*
X0190519Y0172355D01*
X0191028Y0172723D01*
X0191546Y0173078D01*
X0192073Y0173421D01*
X0192608Y0173750D01*
X0193150Y0174066D01*
X0193700Y0174369D01*
X0194258Y0174659D01*
X0194822Y0174934D01*
X0195393Y0175196D01*
X0195971Y0175443D01*
X0196554Y0175676D01*
X0197143Y0175895D01*
X0197737Y0176099D01*
X0198335Y0176289D01*
X0198939Y0176464D01*
X0199546Y0176624D01*
X0200157Y0176769D01*
X0200771Y0176899D01*
X0201389Y0177014D01*
X0202009Y0177114D01*
X0202631Y0177199D01*
X0203256Y0177268D01*
X0203881Y0177322D01*
X0204508Y0177360D01*
X0205136Y0177383D01*
X0205764Y0177391D01*
X0206392Y0177383D01*
X0207020Y0177360D01*
X0207647Y0177322D01*
X0208272Y0177268D01*
X0208897Y0177199D01*
X0209519Y0177114D01*
X0210139Y0177014D01*
X0210757Y0176899D01*
X0211371Y0176769D01*
X0211982Y0176624D01*
X0212589Y0176464D01*
X0213193Y0176289D01*
X0213791Y0176099D01*
X0214385Y0175895D01*
X0214974Y0175676D01*
X0215557Y0175443D01*
X0216135Y0175196D01*
X0216706Y0174934D01*
X0217270Y0174659D01*
X0217828Y0174369D01*
X0218378Y0174066D01*
X0218920Y0173750D01*
X0219455Y0173421D01*
X0219982Y0173078D01*
X0220500Y0172723D01*
X0221009Y0172355D01*
X0221508Y0171975D01*
X0221999Y0171582D01*
X0222479Y0171178D01*
X0222950Y0170762D01*
X0223410Y0170334D01*
X0223860Y0169896D01*
X0224298Y0169446D01*
X0224726Y0168986D01*
X0225142Y0168515D01*
X0225546Y0168035D01*
X0225939Y0167544D01*
X0226319Y0167045D01*
X0226687Y0166536D01*
X0227042Y0166018D01*
X0227385Y0165491D01*
X0227714Y0164956D01*
X0228030Y0164414D01*
X0228333Y0163864D01*
X0228623Y0163306D01*
X0228898Y0162742D01*
X0229160Y0162171D01*
X0229407Y0161593D01*
X0229640Y0161010D01*
X0229859Y0160421D01*
X0230063Y0159827D01*
X0230253Y0159229D01*
X0230428Y0158625D01*
X0230588Y0158018D01*
X0230733Y0157407D01*
X0230863Y0156793D01*
X0230978Y0156175D01*
X0231078Y0155555D01*
X0231163Y0154933D01*
X0231232Y0154308D01*
X0231286Y0153683D01*
X0231324Y0153056D01*
X0231347Y0152428D01*
X0231355Y0151800D01*
X0231347Y0151172D01*
X0231324Y0150544D01*
X0231286Y0149917D01*
X0231232Y0149292D01*
X0231163Y0148667D01*
X0231078Y0148045D01*
X0230978Y0147425D01*
X0230863Y0146807D01*
X0230733Y0146193D01*
X0230588Y0145582D01*
X0230428Y0144975D01*
X0230253Y0144371D01*
X0230063Y0143773D01*
X0229859Y0143179D01*
X0229640Y0142590D01*
X0229407Y0142007D01*
X0229160Y0141429D01*
X0228898Y0140858D01*
X0228623Y0140294D01*
X0228333Y0139736D01*
X0228030Y0139186D01*
X0227714Y0138644D01*
X0227385Y0138109D01*
X0227042Y0137582D01*
X0226687Y0137064D01*
X0226319Y0136555D01*
X0225939Y0136056D01*
X0225546Y0135565D01*
X0225142Y0135085D01*
X0224726Y0134614D01*
X0224298Y0134154D01*
X0223860Y0133704D01*
X0223410Y0133266D01*
X0222950Y0132838D01*
X0222479Y0132422D01*
X0221999Y0132018D01*
X0221508Y0131625D01*
X0221009Y0131245D01*
X0220500Y0130877D01*
X0219982Y0130522D01*
X0219455Y0130179D01*
X0218920Y0129850D01*
X0218378Y0129534D01*
X0217828Y0129231D01*
X0217270Y0128941D01*
X0216706Y0128666D01*
X0216135Y0128404D01*
X0215557Y0128157D01*
X0214974Y0127924D01*
X0214385Y0127705D01*
X0213791Y0127501D01*
X0213193Y0127311D01*
X0212589Y0127136D01*
X0211982Y0126976D01*
X0211371Y0126831D01*
X0210757Y0126701D01*
X0210139Y0126586D01*
X0209519Y0126486D01*
X0208897Y0126401D01*
X0208272Y0126332D01*
X0207647Y0126278D01*
X0207020Y0126240D01*
X0206392Y0126217D01*
X0205764Y0126209D01*
X0205136Y0126217D01*
X0204508Y0126240D01*
X0203881Y0126278D01*
X0203256Y0126332D01*
X0202631Y0126401D01*
X0202009Y0126486D01*
X0201389Y0126586D01*
X0200771Y0126701D01*
X0200157Y0126831D01*
X0199546Y0126976D01*
X0198939Y0127136D01*
X0198335Y0127311D01*
X0197737Y0127501D01*
X0197143Y0127705D01*
X0196554Y0127924D01*
X0195971Y0128157D01*
X0195393Y0128404D01*
X0194822Y0128666D01*
X0194258Y0128941D01*
X0193700Y0129231D01*
X0193150Y0129534D01*
X0192608Y0129850D01*
X0192073Y0130179D01*
X0191546Y0130522D01*
X0191028Y0130877D01*
X0190519Y0131245D01*
X0190020Y0131625D01*
X0189529Y0132018D01*
X0189049Y0132422D01*
X0188578Y0132838D01*
X0188118Y0133266D01*
X0187668Y0133704D01*
X0187230Y0134154D01*
X0186802Y0134614D01*
X0186386Y0135085D01*
X0185982Y0135565D01*
X0185589Y0136056D01*
X0185209Y0136555D01*
X0184841Y0137064D01*
X0184486Y0137582D01*
X0184143Y0138109D01*
X0183814Y0138644D01*
X0183498Y0139186D01*
X0183195Y0139736D01*
X0182905Y0140294D01*
X0182630Y0140858D01*
X0182368Y0141429D01*
X0182121Y0142007D01*
X0181888Y0142590D01*
X0181669Y0143179D01*
X0181465Y0143773D01*
X0181275Y0144371D01*
X0181100Y0144975D01*
X0180940Y0145582D01*
X0180795Y0146193D01*
X0180665Y0146807D01*
X0180550Y0147425D01*
X0180450Y0148045D01*
X0180365Y0148667D01*
X0180296Y0149292D01*
X0180242Y0149917D01*
X0180204Y0150544D01*
X0180181Y0151172D01*
X0180173Y0151800D01*
X0079386Y0130962D02*
X0076602Y0128178D01*
X0034926Y0128178D01*
X0032142Y0130962D01*
X0032142Y0172638D01*
X0034926Y0175422D01*
X0076602Y0175422D01*
X0079386Y0172638D01*
X0079386Y0130962D01*
X0030173Y0151800D02*
X0030181Y0152428D01*
X0030204Y0153056D01*
X0030242Y0153683D01*
X0030296Y0154308D01*
X0030365Y0154933D01*
X0030450Y0155555D01*
X0030550Y0156175D01*
X0030665Y0156793D01*
X0030795Y0157407D01*
X0030940Y0158018D01*
X0031100Y0158625D01*
X0031275Y0159229D01*
X0031465Y0159827D01*
X0031669Y0160421D01*
X0031888Y0161010D01*
X0032121Y0161593D01*
X0032368Y0162171D01*
X0032630Y0162742D01*
X0032905Y0163306D01*
X0033195Y0163864D01*
X0033498Y0164414D01*
X0033814Y0164956D01*
X0034143Y0165491D01*
X0034486Y0166018D01*
X0034841Y0166536D01*
X0035209Y0167045D01*
X0035589Y0167544D01*
X0035982Y0168035D01*
X0036386Y0168515D01*
X0036802Y0168986D01*
X0037230Y0169446D01*
X0037668Y0169896D01*
X0038118Y0170334D01*
X0038578Y0170762D01*
X0039049Y0171178D01*
X0039529Y0171582D01*
X0040020Y0171975D01*
X0040519Y0172355D01*
X0041028Y0172723D01*
X0041546Y0173078D01*
X0042073Y0173421D01*
X0042608Y0173750D01*
X0043150Y0174066D01*
X0043700Y0174369D01*
X0044258Y0174659D01*
X0044822Y0174934D01*
X0045393Y0175196D01*
X0045971Y0175443D01*
X0046554Y0175676D01*
X0047143Y0175895D01*
X0047737Y0176099D01*
X0048335Y0176289D01*
X0048939Y0176464D01*
X0049546Y0176624D01*
X0050157Y0176769D01*
X0050771Y0176899D01*
X0051389Y0177014D01*
X0052009Y0177114D01*
X0052631Y0177199D01*
X0053256Y0177268D01*
X0053881Y0177322D01*
X0054508Y0177360D01*
X0055136Y0177383D01*
X0055764Y0177391D01*
X0056392Y0177383D01*
X0057020Y0177360D01*
X0057647Y0177322D01*
X0058272Y0177268D01*
X0058897Y0177199D01*
X0059519Y0177114D01*
X0060139Y0177014D01*
X0060757Y0176899D01*
X0061371Y0176769D01*
X0061982Y0176624D01*
X0062589Y0176464D01*
X0063193Y0176289D01*
X0063791Y0176099D01*
X0064385Y0175895D01*
X0064974Y0175676D01*
X0065557Y0175443D01*
X0066135Y0175196D01*
X0066706Y0174934D01*
X0067270Y0174659D01*
X0067828Y0174369D01*
X0068378Y0174066D01*
X0068920Y0173750D01*
X0069455Y0173421D01*
X0069982Y0173078D01*
X0070500Y0172723D01*
X0071009Y0172355D01*
X0071508Y0171975D01*
X0071999Y0171582D01*
X0072479Y0171178D01*
X0072950Y0170762D01*
X0073410Y0170334D01*
X0073860Y0169896D01*
X0074298Y0169446D01*
X0074726Y0168986D01*
X0075142Y0168515D01*
X0075546Y0168035D01*
X0075939Y0167544D01*
X0076319Y0167045D01*
X0076687Y0166536D01*
X0077042Y0166018D01*
X0077385Y0165491D01*
X0077714Y0164956D01*
X0078030Y0164414D01*
X0078333Y0163864D01*
X0078623Y0163306D01*
X0078898Y0162742D01*
X0079160Y0162171D01*
X0079407Y0161593D01*
X0079640Y0161010D01*
X0079859Y0160421D01*
X0080063Y0159827D01*
X0080253Y0159229D01*
X0080428Y0158625D01*
X0080588Y0158018D01*
X0080733Y0157407D01*
X0080863Y0156793D01*
X0080978Y0156175D01*
X0081078Y0155555D01*
X0081163Y0154933D01*
X0081232Y0154308D01*
X0081286Y0153683D01*
X0081324Y0153056D01*
X0081347Y0152428D01*
X0081355Y0151800D01*
X0081347Y0151172D01*
X0081324Y0150544D01*
X0081286Y0149917D01*
X0081232Y0149292D01*
X0081163Y0148667D01*
X0081078Y0148045D01*
X0080978Y0147425D01*
X0080863Y0146807D01*
X0080733Y0146193D01*
X0080588Y0145582D01*
X0080428Y0144975D01*
X0080253Y0144371D01*
X0080063Y0143773D01*
X0079859Y0143179D01*
X0079640Y0142590D01*
X0079407Y0142007D01*
X0079160Y0141429D01*
X0078898Y0140858D01*
X0078623Y0140294D01*
X0078333Y0139736D01*
X0078030Y0139186D01*
X0077714Y0138644D01*
X0077385Y0138109D01*
X0077042Y0137582D01*
X0076687Y0137064D01*
X0076319Y0136555D01*
X0075939Y0136056D01*
X0075546Y0135565D01*
X0075142Y0135085D01*
X0074726Y0134614D01*
X0074298Y0134154D01*
X0073860Y0133704D01*
X0073410Y0133266D01*
X0072950Y0132838D01*
X0072479Y0132422D01*
X0071999Y0132018D01*
X0071508Y0131625D01*
X0071009Y0131245D01*
X0070500Y0130877D01*
X0069982Y0130522D01*
X0069455Y0130179D01*
X0068920Y0129850D01*
X0068378Y0129534D01*
X0067828Y0129231D01*
X0067270Y0128941D01*
X0066706Y0128666D01*
X0066135Y0128404D01*
X0065557Y0128157D01*
X0064974Y0127924D01*
X0064385Y0127705D01*
X0063791Y0127501D01*
X0063193Y0127311D01*
X0062589Y0127136D01*
X0061982Y0126976D01*
X0061371Y0126831D01*
X0060757Y0126701D01*
X0060139Y0126586D01*
X0059519Y0126486D01*
X0058897Y0126401D01*
X0058272Y0126332D01*
X0057647Y0126278D01*
X0057020Y0126240D01*
X0056392Y0126217D01*
X0055764Y0126209D01*
X0055136Y0126217D01*
X0054508Y0126240D01*
X0053881Y0126278D01*
X0053256Y0126332D01*
X0052631Y0126401D01*
X0052009Y0126486D01*
X0051389Y0126586D01*
X0050771Y0126701D01*
X0050157Y0126831D01*
X0049546Y0126976D01*
X0048939Y0127136D01*
X0048335Y0127311D01*
X0047737Y0127501D01*
X0047143Y0127705D01*
X0046554Y0127924D01*
X0045971Y0128157D01*
X0045393Y0128404D01*
X0044822Y0128666D01*
X0044258Y0128941D01*
X0043700Y0129231D01*
X0043150Y0129534D01*
X0042608Y0129850D01*
X0042073Y0130179D01*
X0041546Y0130522D01*
X0041028Y0130877D01*
X0040519Y0131245D01*
X0040020Y0131625D01*
X0039529Y0132018D01*
X0039049Y0132422D01*
X0038578Y0132838D01*
X0038118Y0133266D01*
X0037668Y0133704D01*
X0037230Y0134154D01*
X0036802Y0134614D01*
X0036386Y0135085D01*
X0035982Y0135565D01*
X0035589Y0136056D01*
X0035209Y0136555D01*
X0034841Y0137064D01*
X0034486Y0137582D01*
X0034143Y0138109D01*
X0033814Y0138644D01*
X0033498Y0139186D01*
X0033195Y0139736D01*
X0032905Y0140294D01*
X0032630Y0140858D01*
X0032368Y0141429D01*
X0032121Y0142007D01*
X0031888Y0142590D01*
X0031669Y0143179D01*
X0031465Y0143773D01*
X0031275Y0144371D01*
X0031100Y0144975D01*
X0030940Y0145582D01*
X0030795Y0146193D01*
X0030665Y0146807D01*
X0030550Y0147425D01*
X0030450Y0148045D01*
X0030365Y0148667D01*
X0030296Y0149292D01*
X0030242Y0149917D01*
X0030204Y0150544D01*
X0030181Y0151172D01*
X0030173Y0151800D01*
M02*
