G75*
%MOIN*%
%OFA0B0*%
%FSLAX25Y25*%
%IPPOS*%
%LPD*%
%AMOC8*
5,1,8,0,0,1.08239X$1,22.5*
%
%ADD10C,0.07677*%
%ADD11R,0.07400X0.07400*%
%ADD12C,0.07400*%
%ADD13C,0.01000*%
%ADD14C,0.01600*%
D10*
X0130764Y0044713D03*
X0130764Y0123454D03*
X0181158Y0141957D03*
X0181158Y0161643D03*
X0230370Y0161643D03*
X0230370Y0141957D03*
X0080370Y0141957D03*
X0080370Y0161643D03*
X0031158Y0161643D03*
X0031158Y0141957D03*
D11*
X0073264Y0214300D03*
X0188264Y0214300D03*
D12*
X0198264Y0214300D03*
X0063264Y0214300D03*
D13*
X0125764Y0185800D02*
X0126264Y0185800D01*
X0126264Y0184800D01*
X0125764Y0184300D02*
X0133264Y0184300D01*
X0130764Y0181800D01*
X0125764Y0181800D01*
X0125764Y0184300D01*
X0125764Y0185800D01*
X0126264Y0183800D02*
X0130764Y0183800D01*
X0131764Y0183800D02*
X0130764Y0182800D01*
X0126264Y0182800D01*
X0126264Y0183800D01*
X0125764Y0181800D02*
X0125764Y0176800D01*
X0135764Y0176800D01*
X0135764Y0181800D01*
X0133264Y0184300D01*
X0135764Y0184300D01*
X0135764Y0181800D01*
X0135264Y0183300D02*
X0134764Y0183800D01*
X0135264Y0183800D01*
X0133764Y0179800D02*
X0132764Y0179800D01*
X0132764Y0178300D01*
X0133764Y0178300D01*
X0133764Y0179800D01*
X0128764Y0179800D02*
X0128764Y0178300D01*
X0127764Y0178300D01*
X0127764Y0179800D01*
X0128764Y0179800D01*
D14*
X0031158Y0141957D02*
X0068264Y0064300D01*
X0130764Y0014300D01*
X0193264Y0064300D01*
X0230370Y0141957D01*
X0181158Y0141957D01*
X0181158Y0161643D02*
X0230370Y0161643D01*
X0230764Y0201800D01*
X0198264Y0214300D01*
X0188264Y0214300D02*
X0130764Y0164300D01*
X0130764Y0123454D01*
X0130764Y0164300D02*
X0073264Y0214300D01*
X0063264Y0214300D02*
X0030764Y0201800D01*
X0031158Y0161643D01*
X0080370Y0161643D01*
X0080370Y0141957D02*
X0031158Y0141957D01*
X0130764Y0044713D02*
X0130764Y0014300D01*
M02*
